<svg xmlns="http://www.w3.org/2000/svg" viewBox="0 0 1397.6 683.56"><defs><style>.cls-1{fill:#595281;}.cls-2{fill:#b4629b;}.cls-3{fill:#cf6ca6;}.cls-4{fill:#fff4d0;}</style></defs><title>OFiesta-LockUp</title><g id="Layer_2" data-name="Layer 2"><g id="Layer_1-2" data-name="Layer 1"><path class="cls-1" d="M0,167.89c0,81.49,55.29,132,138.28,132,0,0,79-1,107.45-44.92v38.59H379.36l-.2,32.1,17.27,20.62a92.35,92.35,0,0,0-8.89,31.05l-.17,1.67v85.44h174.1v-9.59c15.19,9.24,33.75,14.07,54.5,14.07,20.13,0,38.24-4.53,53.18-13.21v8.73H843.26v-9.59c15.19,9.24,33.74,14.07,54.5,14.07,59.32,0,97.65-39.4,97.65-100.38V332.75a122,122,0,0,0-6.09-39.19h213.16l13.58-33.86h53.43l13.57,33.86H1397.6V257.77L1289.16,6.44h-92.05l-8.8,20.38V6.44H951.39v10C928.15,5.78,900.51,0,872.19,0c-37.89,0-68.91,10.26-89.68,29.29V6.44H301.79V6.36H227.53V30.71C204.18,10.55,172.43,0,134.53,0,51.55,0,0,50.62,0,132.1Z"/><path class="cls-2" d="M476.58,297.22c28.51,0,59.17,12.47,59.17,42.86,0,23.38-18.07,37.21-42.93,45.59-16.58,5.85-31.66,12.86-35.3,17.92H537.9v34.29h-127V417.62c2.82-27.27,22.87-49.68,57.52-61C483,351.58,495,348.07,495,341.06c0-6.82-9.77-10.52-20.38-10.52-14.59,0-29.17,7.21-41.93,20.65l-20.89-24.94C424.7,309.89,448.73,297.22,476.58,297.22Z"/><path class="cls-2" d="M542.05,369.7c0-46.56,28.84-72.67,73.92-72.67,45.25,0,74.09,26.11,74.09,72.67S661.22,442.36,616,442.36C570.89,442.36,542.05,416.26,542.05,369.7Zm107.07,0c0-22.6-12.26-35.46-33-35.46-20.89,0-33.15,12.86-33.15,35.46s12.26,35.45,33.15,35.45C636.86,405.15,649.12,392.3,649.12,369.7Z"/><path class="cls-2" d="M758.36,297.22c28.51,0,59.17,12.47,59.17,42.86,0,23.38-18.07,37.21-42.93,45.59C758,391.52,743,398.53,739.3,403.59h80.38v34.29H692.73V417.62c2.81-27.27,22.87-49.68,57.51-61,14.58-5.06,26.52-8.57,26.52-15.58,0-6.82-9.78-10.52-20.39-10.52-14.58,0-29.17,7.21-41.93,20.65l-20.89-24.94C706.48,309.89,730.52,297.22,758.36,297.22Z"/><path class="cls-2" d="M823.84,369.7c0-46.56,28.83-72.67,73.92-72.67,45.25,0,74.08,26.11,74.08,72.67S943,442.36,897.76,442.36C852.67,442.36,823.84,416.26,823.84,369.7Zm107.06,0c0-22.6-12.26-35.46-33-35.46-20.88,0-33.14,12.86-33.14,35.46s12.26,35.45,33.14,35.45C918.64,405.15,930.9,392.3,930.9,369.7Z"/><path class="cls-2" d="M23.57,169.05c0-66.89,44.29-104.4,111-104.4,66.91,0,111.2,37.51,111.2,104.4s-44.29,104.39-111.2,104.39C67.86,273.44,23.57,235.94,23.57,169.05Zm163.11,0c0-32.19-19.76-50.94-52.15-50.94-32.14,0-52.14,18.75-52.14,50.94S102.15,220,134.53,220,186.68,201.24,186.68,169.05Z"/><path class="cls-2" d="M351,122.31V152H451.49v49.81H351V267h-58.1V71.09H472.68v51.22Z"/><path class="cls-2" d="M495.08,267V71.09h58.1V267Z"/><path class="cls-2" d="M761.56,217.75V267H578.45V71.09H758.94v49.26H635.36v24.91H736.08V190.6H635.36v27.15Z"/><path class="cls-2" d="M972.91,203.75c0,42.27-32.14,69.69-93.82,69.69-43.33,0-81-13.43-107.86-37.22L800,197c19.05,16.79,47.39,28.26,80,28.26,23.81,0,35.48-4.75,35.48-14.55,0-9.51-9.53-12.87-40.48-15.95-51.2-5.32-96.68-19-96.68-63.82,0-42.82,39.77-66.33,93.82-66.33,35,0,69.53,9.52,93.58,28.27l-27.63,39.74c-18.8-14.55-40.95-20.43-65.95-20.43-16.91,0-36.43,2.52-36.43,13.16,0,9.51,15,11.47,41.91,14C933.38,144.7,972.91,157.29,972.91,203.75Z"/><path class="cls-2" d="M1164.74,122.87h-66V267h-58.1V122.87H975V71.09h189.78Z"/><path class="cls-2" d="M1284.44,233.14h-83.33L1187.53,267h-60.48l84.53-195.92h63.1L1359.21,267H1298Zm-17.62-44.22-24-60.45-24,60.45Z"/><path class="cls-2" d="M251.1,71v39.64l16.69.06S270,140,255.23,144.62v8.31s23-2.08,23-36.72V71Z"/><path class="cls-3" d="M476.58,278.75c28.51,0,59.17,12.47,59.17,42.86,0,23.38-18.07,37.21-42.93,45.59-16.58,5.84-31.66,12.86-35.3,17.92H537.9v34.29h-127V399.15c2.82-27.28,22.87-49.68,57.52-61C483,333.11,495,329.6,495,322.59c0-6.82-9.77-10.52-20.38-10.52-14.59,0-29.17,7.2-41.93,20.65l-20.89-24.94C424.7,291.42,448.73,278.75,476.58,278.75Z"/><path class="cls-3" d="M542.05,351.22c0-46.56,28.84-72.66,73.92-72.66,45.25,0,74.09,26.1,74.09,72.66S661.22,423.89,616,423.89C570.89,423.89,542.05,397.79,542.05,351.22Zm107.07,0c0-22.59-12.26-35.45-33-35.45-20.89,0-33.15,12.86-33.15,35.45s12.26,35.46,33.15,35.46C636.86,386.68,649.12,373.82,649.12,351.22Z"/><path class="cls-3" d="M758.36,278.75c28.51,0,59.17,12.47,59.17,42.86,0,23.38-18.07,37.21-42.93,45.59C758,373,743,380.06,739.3,385.12h80.38v34.29H692.73V399.15c2.81-27.28,22.87-49.68,57.51-61,14.58-5.06,26.52-8.57,26.52-15.58,0-6.82-9.78-10.52-20.39-10.52-14.58,0-29.17,7.2-41.93,20.65l-20.89-24.94C706.48,291.42,730.52,278.75,758.36,278.75Z"/><path class="cls-3" d="M823.84,351.22c0-46.56,28.83-72.66,73.92-72.66,45.25,0,74.08,26.1,74.08,72.66S943,423.89,897.76,423.89C852.67,423.89,823.84,397.79,823.84,351.22Zm107.06,0c0-22.59-12.26-35.45-33-35.45-20.88,0-33.14,12.86-33.14,35.45s12.26,35.46,33.14,35.46C918.64,386.68,930.9,373.82,930.9,351.22Z"/><path class="cls-3" d="M23.57,150.58c0-66.9,44.29-104.4,111-104.4,66.91,0,111.2,37.5,111.2,104.4S201.44,255,134.53,255C67.86,255,23.57,217.47,23.57,150.58Zm163.11,0c0-32.19-19.76-50.94-52.15-50.94-32.14,0-52.14,18.75-52.14,50.94s19.76,50.93,52.14,50.93S186.68,182.76,186.68,150.58Z"/><path class="cls-3" d="M351,103.84V133.5H451.49v49.82H351v65.21h-58.1V52.62H472.68v51.22Z"/><path class="cls-3" d="M495.08,248.53V52.62h58.1V248.53Z"/><path class="cls-3" d="M761.56,199.28v49.25H578.45V52.62H758.94v49.26H635.36v24.91H736.08v45.34H635.36v27.15Z"/><path class="cls-3" d="M972.91,185.28c0,42.26-32.14,69.69-93.82,69.69-43.33,0-81-13.43-107.86-37.22L800,178.56c19.05,16.8,47.39,28.27,80,28.27,23.81,0,35.48-4.76,35.48-14.55,0-9.52-9.53-12.88-40.48-15.95-51.2-5.32-96.68-19-96.68-63.82,0-42.82,39.77-66.33,93.82-66.33,35,0,69.53,9.52,93.58,28.27l-27.63,39.74c-18.8-14.55-40.95-20.43-65.95-20.43-16.91,0-36.43,2.52-36.43,13.15,0,9.52,15,11.48,41.91,14C933.38,126.23,972.91,138.82,972.91,185.28Z"/><path class="cls-3" d="M1164.74,104.4h-66V248.53h-58.1V104.4H975V52.62h189.78Z"/><path class="cls-3" d="M1284.44,214.67h-83.33l-13.58,33.86h-60.48l84.53-195.91h63.1l84.53,195.91H1298Zm-17.62-44.22-24-60.46-24,60.46Z"/><path class="cls-3" d="M251.1,52.54V92.18l16.69.06s2.2,29.27-12.56,33.9v8.32s23-2.08,23-36.73V52.54Z"/><path class="cls-4" d="M476.58,260.28c28.51,0,59.17,12.47,59.17,42.86,0,23.38-18.07,37.21-42.93,45.59-16.58,5.84-31.66,12.85-35.3,17.92H537.9v34.29h-127V380.68c2.82-27.28,22.87-49.68,57.52-61C483,314.63,495,311.13,495,304.11c0-6.81-9.77-10.52-20.38-10.52-14.59,0-29.17,7.21-41.93,20.65l-20.89-24.93C424.7,272.94,448.73,260.28,476.58,260.28Z"/><path class="cls-4" d="M542.05,332.75c0-46.56,28.84-72.66,73.92-72.66,45.25,0,74.09,26.1,74.09,72.66S661.22,405.42,616,405.42C570.89,405.42,542.05,379.31,542.05,332.75Zm107.07,0c0-22.6-12.26-35.45-33-35.45-20.89,0-33.15,12.85-33.15,35.45s12.26,35.46,33.15,35.46C636.86,368.21,649.12,355.35,649.12,332.75Z"/><path class="cls-4" d="M758.36,260.28c28.51,0,59.17,12.47,59.17,42.86,0,23.38-18.07,37.21-42.93,45.59C758,354.57,743,361.58,739.3,366.65h80.38v34.29H692.73V380.68c2.81-27.28,22.87-49.68,57.51-61,14.58-5.07,26.52-8.57,26.52-15.59,0-6.81-9.78-10.52-20.39-10.52-14.58,0-29.17,7.21-41.93,20.65l-20.89-24.93C706.48,272.94,730.52,260.28,758.36,260.28Z"/><path class="cls-4" d="M823.84,332.75c0-46.56,28.83-72.66,73.92-72.66,45.25,0,74.08,26.1,74.08,72.66S943,405.42,897.76,405.42C852.67,405.42,823.84,379.31,823.84,332.75Zm107.06,0c0-22.6-12.26-35.45-33-35.45-20.88,0-33.14,12.85-33.14,35.45s12.26,35.46,33.14,35.46C918.64,368.21,930.9,355.35,930.9,332.75Z"/><path class="cls-4" d="M23.57,132.1c0-66.89,44.29-104.39,111-104.39,66.91,0,111.2,37.5,111.2,104.39s-44.29,104.4-111.2,104.4C67.86,236.5,23.57,199,23.57,132.1Zm163.11,0c0-32.18-19.76-50.93-52.15-50.93-32.14,0-52.14,18.75-52.14,50.93S102.15,183,134.53,183,186.68,164.29,186.68,132.1Z"/><path class="cls-4" d="M351,85.36V115H451.49v49.82H351v65.21h-58.1V34.15H472.68V85.36Z"/><path class="cls-4" d="M495.08,230.06V34.15h58.1V230.06Z"/><path class="cls-4" d="M761.56,180.8v49.26H578.45V34.15H758.94V83.4H635.36v24.91H736.08v45.34H635.36V180.8Z"/><path class="cls-4" d="M972.91,166.81c0,42.26-32.14,69.69-93.82,69.69-43.33,0-81-13.43-107.86-37.22L800,160.09c19.05,16.79,47.39,28.27,80,28.27,23.81,0,35.48-4.76,35.48-14.55,0-9.52-9.53-12.88-40.48-16-51.2-5.31-96.68-19-96.68-63.81,0-42.82,39.77-66.33,93.82-66.33,35,0,69.53,9.51,93.58,28.27L938.14,95.72c-18.8-14.55-40.95-20.43-65.95-20.43-16.91,0-36.43,2.52-36.43,13.15,0,9.52,15,11.48,41.91,14C933.38,107.75,972.91,120.35,972.91,166.81Z"/><path class="cls-4" d="M1164.74,85.92h-66V230.06h-58.1V85.92H975V34.15h189.78Z"/><path class="cls-4" d="M1284.44,196.2h-83.33l-13.58,33.86h-60.48l84.53-195.91h63.1l84.53,195.91H1298ZM1266.82,152l-24-60.46-24,60.46Z"/><path class="cls-4" d="M251.1,34.07V73.71l16.69.05S270,103,255.23,107.67V116s23-2.08,23-36.73V34.07Z"/><path class="cls-4" d="M228.69,547.51v7.68h30.56v12.89H228.69V585H211V534.26H265.7v13.25Z"/><path class="cls-4" d="M320.89,571.41V585H270.7V534.26h17.67v37.15Z"/><path class="cls-4" d="M325.46,585V534.26h17.67V585Z"/><path class="cls-4" d="M413.6,534.26V585H398.1l-29.4-30.34V585h-17V534.26h18.68l26.15,27.52V534.26Z"/><path class="cls-4" d="M484,559.61c0,16-12.6,25.34-32.3,25.34H422.15V534.26H451.7C471.4,534.26,484,543.53,484,559.61Zm-18,0c0-7.68-6-11.88-15.71-11.88H439.82v23.75h10.43C460,571.48,466,567.28,466,559.61Z"/><path class="cls-4" d="M545.71,572.21V585H490V534.26h54.89V547H507.33v6.44H538v11.73H507.33v7Z"/><path class="cls-4" d="M593.66,585,581.35,570H569.47V585H552V534.26h36c13.54,0,24.26,5.79,24.26,17.89,0,8.32-5.07,13.68-12.67,16.22L613.79,585Zm-7.17-26.72c4.56,0,7.82-1.3,7.82-5.65s-3.26-5.65-7.82-5.65h-17v11.3Z"/><path class="cls-4" d="M675.87,568.59c0,10.93-9.78,18-28.54,18-13.18,0-24.62-3.48-32.8-9.63l8.76-10.14c5.79,4.34,14.41,7.31,24.33,7.31,7.24,0,10.79-1.23,10.79-3.76s-2.89-3.33-12.31-4.13c-15.57-1.38-29.4-4.93-29.4-16.51,0-11.08,12.09-17.17,28.53-17.17,10.65,0,21.15,2.47,28.46,7.32l-8.4,10.28c-5.72-3.76-12.45-5.29-20.06-5.29-5.14,0-11.08.66-11.08,3.41,0,2.46,4.57,3,12.75,3.62C663.85,553.31,675.87,556.56,675.87,568.59Z"/><path class="cls-4" d="M757.28,534.26v26.79c0,15.65-10.87,25.57-30.27,25.57s-30.35-9.92-30.35-25.57V534.26h17.67v25.42c0,7.53,3.91,13,12.68,13s12.6-5.43,12.6-13V534.26Z"/><path class="cls-4" d="M827,534.26V585H811.46l-29.41-30.34V585H765V534.26h18.68l26.14,27.52V534.26Z"/><path class="cls-4" d="M835.51,585V534.26h17.67V585Z"/><path class="cls-4" d="M937.63,552.51c0,12.31-9.71,18.32-24.26,18.32H895.48V585H877.81V534.26h35.56C927.92,534.26,937.63,540.27,937.63,552.51Zm-17.89.43c0-4.49-3.26-6-7.82-6H895.48V559h16.44C916.48,559,919.74,557.43,919.74,552.94Z"/><path class="cls-4" d="M992.68,571.41V585H942.49V534.26h17.67v37.15Z"/><path class="cls-4" d="M1039.18,576.19h-25.35L1009.7,585H991.31L1017,534.26h19.19L1061.92,585H1043.3Zm-5.36-11.44-7.32-15.64-7.31,15.64Z"/><path class="cls-4" d="M1119.79,544.76l-32.3,27.37H1121V585h-58.88v-10.5l32.3-27.37h-31V534.26h56.41Z"/><path class="cls-4" d="M1169,576.19H1143.7l-4.13,8.76h-18.39l25.7-50.69h19.19L1191.78,585h-18.61Zm-5.35-11.44-7.32-15.64-7.31,15.64Z"/><path class="cls-4" d="M307.2,637.43v7.68h30.56V658H307.2v16.87H289.53V624.18h54.68v13.25Z"/><path class="cls-4" d="M404.91,662.13v12.74H349.22V624.18h54.89v12.75H366.52v6.44h30.64V655.1H366.52v7Z"/><path class="cls-4" d="M472.41,661c0,8.47-8.11,13.83-20.86,13.83H411.14V624.18h37.52c12.74,0,20.85,5.21,20.85,13.18,0,5.72-4.27,10.72-11.95,11.23C465.67,649.09,472.41,653.37,472.41,661Zm-43.89-17h17.24c3.62,0,6.23-1.08,6.23-4.27s-2.61-4.2-6.23-4.2H428.52Zm25.79,14.85c0-3.26-2.47-4.56-6.45-4.56H428.52v9.19h19.34C451.84,663.5,454.31,662.13,454.31,658.87Z"/><path class="cls-4" d="M520,622.59c12.46,0,25.86,4.63,25.86,15.93,0,8.69-7.9,13.83-18.76,17-7.24,2.17-13.83,4.78-15.43,6.66H546.8v12.74H491.32v-7.53c1.24-10.14,10-18.46,25.13-22.66,6.38-1.89,11.59-3.19,11.59-5.8s-4.27-3.91-8.91-3.91c-6.37,0-12.74,2.68-18.32,7.68l-9.12-9.27C497.34,627.29,507.84,622.59,520,622.59Z"/><path class="cls-4" d="M610.82,660.75c0,10-12.45,15.79-30.05,15.79s-30-5.79-30-15.79c0-7.09,6.23-10.93,13.69-12.24-7.54-1-11.74-5.86-11.74-11.58,0-9.92,13-14.42,28-14.42s28.1,4.5,28.1,14.42c0,5.72-4.2,10.57-11.73,11.58C604.6,649.82,610.82,653.66,610.82,660.75Zm-18.32-1.37c0-4.06-5.5-5.72-11.73-5.72s-11.66,1.66-11.66,5.72,5.5,5.79,11.66,5.79S592.5,663.5,592.5,659.38Zm-11.73-15.65c5.5,0,10.36-1.66,10.36-4.92s-4.86-4.92-10.36-4.92-10.28,1.59-10.28,4.92S575.34,643.73,580.77,643.73Z"/><path class="cls-4" d="M665.3,624.18h15.86v59.38H665.3Z"/><path class="cls-4" d="M767.78,637.51H734.32V624.18h54.39v10.21L762,674.87h-19.7Z"/><path class="cls-4" d="M790.68,641.78c0-4.71,3.91-8.33,9.55-8.33s9.64,3.62,9.64,8.33S806,650,800.23,650,790.68,646.49,790.68,641.78Zm0,25.85c0-4.63,3.91-8.33,9.55-8.33s9.64,3.7,9.64,8.33S806,676,800.23,676,790.68,672.34,790.68,667.63Z"/><path class="cls-4" d="M813.42,649.53c0-17.31,12.6-27,32.3-27s32.37,9.71,32.37,27-12.6,27-32.37,27S813.42,666.84,813.42,649.53Zm46.78,0c0-8.4-5.36-13.18-14.41-13.18s-14.48,4.78-14.48,13.18,5.35,13.18,14.48,13.18S860.2,657.93,860.2,649.53Z"/><path class="cls-4" d="M881.5,649.53c0-17.31,12.6-27,32.3-27s32.37,9.71,32.37,27-12.6,27-32.37,27S881.5,666.84,881.5,649.53Zm46.79,0c0-8.4-5.36-13.18-14.42-13.18s-14.48,4.78-14.48,13.18,5.36,13.18,14.48,13.18S928.29,657.93,928.29,649.53Z"/><path class="cls-4" d="M1028.09,642.43c0,12.31-9.7,18.32-24.26,18.32H985.94v14.12H968.27V624.18h35.56C1018.39,624.18,1028.09,630.19,1028.09,642.43Zm-17.89.44c0-4.49-3.25-6-7.82-6H985.94V649h16.44C1007,649,1010.2,647.35,1010.2,642.87Z"/><path class="cls-4" d="M1105,624.18v50.69h-17.45V645.11l-18.4,22.67h-.87L1050,645.11v29.76h-17V624.18h19.27l16.94,22.09,17.09-22.09Z"/></g></g></svg>