<svg xmlns="http://www.w3.org/2000/svg" viewBox="0 0 1079.37 306.41"><defs><style>.cls-1{fill:#ffd251;}.cls-2{fill:#595281;}.cls-3{fill:#b4629b;}.cls-4{fill:#cf6ba6;}.cls-5{fill:#fff3d0;}</style></defs><title>OFiesta-TermsandConditions-Heading</title><g id="Layer_2" data-name="Layer 2"><g id="Layer_1-2" data-name="Layer 1"><rect class="cls-1" x="554.08" y="232.62" width="84.02" height="70.93"/><path class="cls-2" d="M1004.54,301.41c-19.72,0-37.78-4-52.79-11.7v8.84h-48l-29.25-30.19v30.19H815.19V281.61a57.7,57.7,0,0,1-5.23,4.58c-12.82,10-30.61,15.22-51.43,15.22S720,296.14,707.2,286.18a57.25,57.25,0,0,1-5.08-4.44v16.81H641.71V234.36H626.47v64.19H566.06V234.36H551v64.19H490.54V280.2a56.53,56.53,0,0,1-4.37,3.74c-12.38,9.56-29.56,14.61-49.67,14.61H334.81l-29.25-30.19v30.19H246.27V281.61a58.82,58.82,0,0,1-5.21,4.58c-12.85,10-30.63,15.22-51.44,15.22s-38.53-5.27-51.34-15.23a56.87,56.87,0,0,1-6.39-5.78c-12.83,13.25-33.24,21-55.93,21-20.87,0-38.6-5.73-51.26-16.58C11.81,273.8,5,258.27,5,239.92V212.17c0-18.36,6.92-33.89,20-44.93,12.86-10.83,30.86-16.55,52.05-16.55,21.73,0,42.07,8,54.69,21.13a58.32,58.32,0,0,1,6.51-5.9c12.81-10,30.56-15.23,51.34-15.23l2.13,0v-62h-34.4V7.87H454c16.72,0,31,4.43,41.08,12.46V7.87h55.55L572.46,36.3l22-28.43H649.1V19.11C660.46,10,677.63,5,698.28,5c21.94,0,42.82,5.5,57.27,15.09l13.82,9.16-.13.16.13.08-.13.17.13.08-.13.17.13.08-.13.17.13.08-.13.17.13.08-.13.17.13.08-.13.17.13.08-.13.17.13.08-.13.17.13.08-.13.17.13.08-.13.17.13.08-.13.17.13.08-.13.17.13.08-.13.17.13.08-.13.17.13.08-.13.17.13.08-.13.17.13.08-.13.17.13.08-.13.17.13.08-.13.17.13.08-.13.17.13.08-.13.17.13.08-.13.17.13.08-.13.17.13.08-.13.17.13.08-.13.17.13.08-.13.17.13.08-.13.17.13.08-.13.17.13.08-.13.17.13.08-.13.17.13.08-.13.17.13.08-.13.17.13.08-.13.17.13.08-.13.17.13.08-.13.17.13.08-.13.17.13.08-.13.17.13.08-.13.17.13.08-.13.17.13.08-.13.17.13.08-.13.17.13.08-.13.17.13.08-.13.17.13.08-.13.17.13.08-.13.17.13.08-.13.17.13.08-.13.17.13.08-.13.17.13.08-.13.17.13.08-.13.17.13.08-.13.17.13.08-.13.17.13.08-.13.17.13.08-.13.17.13.08-.13.17.13.08-.13.17.13.08-.13.17.13.08-.13.17.13.08-.13.17.13.08-.13.17.13.08-.13.17.13.08-.13.17.13.08-.13.17.13.08-.13.17.13.08-.13.17.13.08-.13.17.13.08-.13.17.13.08-.13.17.13.08-.13.17.13.08-.13.17.13.08-.13.17.13.08-.13.17.13.08-.13.17.13.08-.13.17.13.08-.13.17.13.08-.13.17.13.08-.13.17.13.08-.13.17.13.08-.13.17.13.08-.13.17.13.08-.13.17.13.08-.13.17.13.08-.13.17.13.08-.13.17.13.08-.13.17.13.08-.13.17.13.08-.13.17.13.08-.13.17.13.08-.13.17.13.08-.13.17.13.08-.13.17.13.08-.13.17.13.08-.13.17.13.08-.13.17.13.08-.13.17.13.08-.13.17.13.08-.13.17.13.08-.13.17.13.08-.13.17.13.08-.13.17.13.08-.13.17.13.08-.13.17.13.08-.13.17.13.08-.13.17.13.08-.13.17.13.08-.13.17.13.08-.13.17.13.08-.13.17.13.08-.13.17.13.08-.13.17.12.08-6.86,8.4A38.51,38.51,0,0,1,766,81.94v27.75a41.75,41.75,0,0,1-10.22,27.42C745,149.43,727,155.69,702.12,155.73v14.63a57.25,57.25,0,0,1,5.08-4.44c12.81-10,30.56-15.23,51.33-15.23S797.13,156,810,165.91a59.1,59.1,0,0,1,5.23,4.58V153.55h4.37c-26.45-5.3-44.19-21.81-44.19-43.11V82.69a34.17,34.17,0,0,1,10.22-24.55V45.3c0-19.87,16.16-39.93,52.27-39.93,26.12,0,45.34,9.82,58.74,30L907,51.06l-.15.06.13.2-.13,0,.13.2-.13,0,.13.2-.13,0,.13.2-.13,0,.13.2-.13,0,.13.2-.13,0,.07.11h3.68l0,.5h0l0,.25h0l0,.25h0l0,.25h0l0,.25h0l0,.25h0l0,.25h0l0,.25h0l0,.25h0l0,.25h0l0,.25h0l0,.25h0l0,.25h0l0,.25h0l0,.25h0l0,.25h0l0,.25h0l0,.25h0l0,.25h0l0,.25h0l0,.25h0l0,.25h0l0,.25h0l0,.25h0l0,.25h0l0,.25h0l0,.25h0l0,.25h0l0,.25h0l0,.25h0l0,.25h0l0,.25h0l0,.25h0l0,.25h0l0,.25h0l0,.25h0l0,.25h0l0,.25h0l0,.25h0l0,.25h0l0,.25h0l0,.25h0l0,.25h0l0,.25h0l0,.25h0l0,.25h0l0,.25h0l0,.25h0l0,.25h0l0,.25h0l0,.25h0l0,.25h0l0,.25h0l0,.25h0l0,.25h0l0,.25h0l0,.25h0l0,.25h0l0,.25h0l0,.25h0l0,.25h0l0,.25h0l0,.25h0l0,.25h0l0,.25h0l0,.25h0l0,.25h0l0,.25h0l0,.25h0l0,.25h0l0,.25h0l0,.25h0l0,.25h0l0,.25h0l0,.25h0l0,.25h0l0,.25h0l0,.25h0l0,.25h0l0,.25h0l0,.25h0l0,.25h0l0,.25h0l0,.25h0l0,.25h0l0,.25h0l0,.25h0l0,.25h0l0,.25h0l0,.25h0l0,.25h0l0,.25h0l0,.25h0l0,.25h0l0,.25h0l0,.25h0l0,.25h0l0,.25h0l0,.25h0l0,.25h0l0,.25h0l0,.25h0l0,.25h0l0,.25h0l0,.25h0l0,.25h0l0,.25h0l0,.25h0l0,.25h0l0,.25h0l-.37,5.37-.74,10,7.82,6.32v50.73H865.14l-1.39-1.08q-3.45,1-7,1.77h12.08l23.55,24.8v-24.8h59.42V164.8c11.36-9.08,28.53-14.11,49.18-14.11,21.94,0,42.81,5.5,57.27,15.08l13.81,9.17-.13.15.14.09-.14.16.14.09-.14.16.14.09-.14.16.14.09-.14.16.14.09-.14.16.14.09-.14.16.14.09-.14.16.14.09-.14.16.14.09-.14.16.14.09-.14.16.14.09-.14.16.14.09-.14.16.14.09-.14.16.14.09-.14.16.14.09-.14.16.14.09-.14.16.14.09-.14.16.14.09-.14.16.14.09-.14.16.14.09-.14.16.14.09-.14.16.14.09-.14.16.14.09-.14.16.14.09-.14.16.14.09-.14.16.14.09-.14.16.14.09-.14.16.14.09-.14.16.14.09-.14.16.14.09-.14.16.14.09-.14.16.14.09-.14.16.14.09-.14.16.14.09-.14.16.14.09-.14.16.14.09-.14.16.14.09-.14.16.14.09-.14.16.14.09-.14.16.14.09-.14.16.14.09-.14.16.14.09-.14.16.14.09-.14.16.14.09-.14.16.14.09-.14.16.14.09-.14.16.14.09-.14.16.14.09-.14.16.14.09-.14.16.14.09-.14.16.14.09-.14.16.14.09-.14.16.14.09-.14.16.14.09-.14.16.14.09-.14.16.14.09-.14.16.14.09-.14.16.14.09-.14.16.14.09-.14.16.14.09-.14.16.14.09-.14.16.14.09-.14.16.14.09-.14.16.14.09-.14.16.14.09-.14.16.14.09-.14.16.14.09-.14.16.14.09-.14.16.14.09-.14.16.14.09-.14.16.14.09-.14.16.14.09-.14.16.14.09-.14.16.14.09-.14.16.14.09-.14.16.14.09-.14.16.14.09-.14.16.14.09-.14.16.14.09-.14.16.14.09-.14.16.14.09-.14.16.14.09-.14.16.14.09-.14.16.14.09-.14.16.14.09-.14.16.14.09-.14.16.14.09-.14.16.14.09-.14.16.14.09-.14.16.14.09-.14.16.14.09-.14.16.14.09-.14.16.14.09-.14.16.14.09-.14.16.14.09-.14.16.14.09-.14.16.14.09-.14.16.14.09-.14.16.14.09-.14.16.14.09-.14.16.14.09-.14.16.14.09-.14.16.14.09-.14.16.14.09-.14.16.14.09-.14.16.14.09-.14.16.14.09-.14.16.14.09-.14.16.14.09-.14.16.14.09-.14.16.13.09-6.86,8.4a38.51,38.51,0,0,1,3.5,16.55v27.75a41.72,41.72,0,0,1-10.23,27.42C1047.62,295.15,1029.49,301.41,1004.54,301.41ZM299.87,153.55l23.55,24.8v-24.8H436.5c20.13,0,37.3,5,49.66,14.56a56.81,56.81,0,0,1,4.38,3.75V153.55H677.65A105,105,0,0,1,649.1,144v8.84h-60V128.93l-9.51,11.72h-15.8l-9.37-11.6v23.81H456.79l-19.56-23.7v23.7H267.4V88.67H252.16v64.19H211.55c11.47,2.41,21.46,6.81,29.5,13a59,59,0,0,1,5.22,4.58V153.55Z"/><path class="cls-3" d="M271.69,72.86H237.16v64.19H206.75V72.86H172.36v-23h99.33Z"/><path class="cls-3" d="M378.24,115.11v21.94H282.4V49.81h94.47V71.74H312.19V82.83h52.72V103H312.19v12.09Z"/><path class="cls-3" d="M463.86,137.05l-21.19-25.67H422.23v25.67H392.07V49.81H454c23.31,0,41.76,10,41.76,30.78,0,14.33-8.73,23.56-21.82,27.92l24.56,28.54Zm-12.34-46c7.85,0,13.46-2.24,13.46-9.72s-5.61-9.72-13.46-9.72H422.23V91.06Z"/><path class="cls-3" d="M634.1,49.81v87.24h-30V85.83l-31.66,39h-1.5l-31.53-39v51.22H510.09V49.81h33.15l29.17,38,29.41-38Z"/><path class="cls-3" d="M751,108.88c0,18.82-16.83,31-49.11,31-22.68,0-42.37-6-56.46-16.58l15.08-17.45c10,7.48,24.81,12.59,41.88,12.59,12.47,0,18.57-2.12,18.57-6.48s-5-5.73-21.19-7.1c-26.79-2.37-50.6-8.48-50.6-28.42,0-19.07,20.82-29.54,49.11-29.54,18.32,0,36.39,4.24,49,12.59L732.8,77.23c-9.84-6.48-21.43-9.1-34.52-9.1-8.85,0-19.07,1.12-19.07,5.86,0,4.23,7.85,5.11,21.94,6.23C730.31,82.59,751,88.19,751,108.88Z"/><path class="cls-3" d="M870.26,137.05l-3.86-3a69.42,69.42,0,0,1-28,5.48c-27.67,0-48-12.71-48-29.91,0-9.6,6.36-17.07,18-21.44-5-5-7.73-9.84-7.73-16,0-13.58,13-24.93,37.27-24.93,24.8,0,37.89,10.72,46.24,23.31L860,79.72c-7.1-11-15.33-13.21-21.31-13.21s-10.34,2.12-10.34,6.23c0,3.36,2.74,6.11,10.34,12.21l27.17,21.94a31.34,31.34,0,0,0,3.62-12.21h24.92a45.72,45.72,0,0,1-10.72,26.54l19.57,15.83Zm-22.68-17.7L822.16,99.29a13.39,13.39,0,0,0-2.5,7.47c0,7.86,8,13.22,20.19,13.22A39.49,39.49,0,0,0,847.58,119.35Z"/><path class="cls-4" d="M271.69,58.86H237.16v64.19H206.75V58.86H172.36v-23h99.33Z"/><path class="cls-4" d="M378.24,101.11v21.94H282.4V35.81h94.47V57.74H312.19V68.83h52.72V89H312.19v12.09Z"/><path class="cls-4" d="M463.86,123.05,442.67,97.38H422.23v25.67H392.07V35.81H454c23.31,0,41.76,10,41.76,30.78,0,14.33-8.73,23.56-21.82,27.92l24.56,28.54Zm-12.34-46c7.85,0,13.46-2.24,13.46-9.72s-5.61-9.72-13.46-9.72H422.23V77.06Z"/><path class="cls-4" d="M634.1,35.81v87.24h-30V71.83l-31.66,39h-1.5l-31.53-39v51.22H510.09V35.81h33.15l29.17,38,29.41-38Z"/><path class="cls-4" d="M751,94.88c0,18.82-16.83,31-49.11,31-22.68,0-42.37-6-56.46-16.58l15.08-17.45c10,7.48,24.81,12.59,41.88,12.59,12.47,0,18.57-2.12,18.57-6.48s-5-5.73-21.19-7.1c-26.79-2.37-50.6-8.48-50.6-28.42,0-19.07,20.82-29.54,49.11-29.54,18.32,0,36.39,4.24,49,12.59L732.8,63.23c-9.84-6.48-21.43-9.1-34.52-9.1-8.85,0-19.07,1.12-19.07,5.86,0,4.23,7.85,5.11,21.94,6.23C730.31,68.59,751,74.19,751,94.88Z"/><path class="cls-4" d="M870.26,123.05l-3.86-3a69.42,69.42,0,0,1-28,5.48c-27.67,0-48-12.71-48-29.91,0-9.6,6.36-17.07,18-21.44-5-5-7.73-9.84-7.73-15.95,0-13.58,13-24.93,37.27-24.93,24.8,0,37.89,10.72,46.24,23.31L860,65.72c-7.1-11-15.33-13.21-21.31-13.21s-10.34,2.12-10.34,6.23c0,3.36,2.74,6.11,10.34,12.21L865.9,92.89a31.34,31.34,0,0,0,3.62-12.21h24.92a45.72,45.72,0,0,1-10.72,26.54l19.57,15.83Zm-22.68-17.7L822.16,85.29a13.39,13.39,0,0,0-2.5,7.47c0,7.86,8,13.22,20.19,13.22A39.49,39.49,0,0,0,847.58,105.35Z"/><path class="cls-5" d="M271.69,45.92H237.16v64.19H206.75V45.92H172.36v-23h99.33Z"/><path class="cls-5" d="M378.24,88.17v21.94H282.4V22.87h94.47V44.8H312.19V55.89h52.72V76.08H312.19V88.17Z"/><path class="cls-5" d="M463.86,110.11,442.67,84.44H422.23v25.67H392.07V22.87H454c23.31,0,41.76,10,41.76,30.78C495.77,68,487,77.21,474,81.57l24.56,28.54Zm-12.34-46c7.85,0,13.46-2.24,13.46-9.72s-5.61-9.72-13.46-9.72H422.23V64.12Z"/><path class="cls-5" d="M634.1,22.87v87.24h-30V58.89l-31.66,39h-1.5l-31.53-39v51.22H510.09V22.87h33.15l29.17,38,29.41-38Z"/><path class="cls-5" d="M751,81.94c0,18.82-16.83,31-49.11,31-22.68,0-42.37-6-56.46-16.58L660.51,79c10,7.48,24.81,12.59,41.88,12.59,12.47,0,18.57-2.12,18.57-6.48s-5-5.73-21.19-7.11c-26.79-2.36-50.6-8.47-50.6-28.41C649.17,30.47,670,20,698.28,20c18.32,0,36.39,4.24,49,12.59L732.8,50.29c-9.84-6.49-21.43-9.1-34.52-9.1-8.85,0-19.07,1.12-19.07,5.86,0,4.23,7.85,5.1,21.94,6.23C730.31,55.65,751,61.25,751,81.94Z"/><path class="cls-5" d="M870.26,110.11l-3.86-3a69.42,69.42,0,0,1-28,5.48c-27.67,0-48-12.71-48-29.91,0-9.6,6.36-17.07,18-21.44-5-5-7.73-9.84-7.73-16,0-13.58,13-24.93,37.27-24.93,24.8,0,37.89,10.72,46.24,23.31L860,52.78c-7.1-11-15.33-13.21-21.31-13.21s-10.34,2.12-10.34,6.23c0,3.36,2.74,6.11,10.34,12.21L865.9,80a31.33,31.33,0,0,0,3.62-12.22h24.92a45.73,45.73,0,0,1-10.72,26.55l19.57,15.83Zm-22.68-17.7L822.16,72.35a13.39,13.39,0,0,0-2.5,7.47c0,7.86,8,13.21,20.19,13.21A39.49,39.49,0,0,0,847.58,92.41Z"/><path class="cls-3" d="M101.25,249.21l25,13.21C118.45,275.63,100.13,285.6,76,285.6c-33,0-56-16.7-56-46.48s22.94-46.49,57.08-46.49c23.06,0,41.26,10.09,48.86,23.06l-25.17,13.08c-5.36-8.35-13.59-12.34-24.06-12.34-15.45,0-25.92,8.23-25.92,22.69S61.25,261.8,76.7,261.8C87.17,261.8,95.52,258.06,101.25,249.21Z"/><path class="cls-3" d="M131.53,239.12c0-29.79,23.19-46.49,58.08-46.49s58.21,16.7,58.21,46.49-23.19,46.48-58.21,46.48S131.53,268.9,131.53,239.12Zm85.38,0c0-14.34-10.35-22.69-27.3-22.69s-27.29,8.35-27.29,22.69,10.34,22.68,27.29,22.68S216.91,253.45,216.91,239.12Z"/><path class="cls-3" d="M367.83,195.49v87.25H341.16l-50.6-52.22v52.22H261.27V195.49h32.16l45,47.37V195.49Z"/><path class="cls-3" d="M492.08,239.12c0,27.54-21.68,43.62-55.58,43.62H385.65V195.49H436.5C470.4,195.49,492.08,211.45,492.08,239.12Zm-31,0c0-13.22-10.35-20.44-27.05-20.44H416.06v40.88H434C450.7,259.56,461.05,252.33,461.05,239.12Z"/><path class="cls-3" d="M505.54,282.74V195.49H536v87.25Z"/><path class="cls-3" d="M646,218.55H611.47v64.19H581.06V218.55h-34.4V195.49H646Z"/><path class="cls-3" d="M656.71,282.74V195.49h30.41v87.25Z"/><path class="cls-3" d="M700.45,239.12c0-29.79,23.18-46.49,58.08-46.49s58.2,16.7,58.2,46.49-23.18,46.48-58.2,46.48S700.45,268.9,700.45,239.12Zm85.37,0c0-14.34-10.34-22.69-27.29-22.69s-27.3,8.35-27.3,22.69,10.35,22.68,27.3,22.68S785.82,253.45,785.82,239.12Z"/><path class="cls-3" d="M936.75,195.49v87.25H910.08l-50.61-52.22v52.22H830.19V195.49h32.15l45,47.37V195.49Z"/><path class="cls-3" d="M1053.65,254.57c0,18.82-16.83,31-49.11,31-22.68,0-42.38-6-56.46-16.57l15.08-17.45c10,7.48,24.8,12.59,41.88,12.59,12.46,0,18.57-2.12,18.57-6.48s-5-5.74-21.19-7.11c-26.79-2.37-50.6-8.47-50.6-28.41,0-19.07,20.81-29.54,49.11-29.54,18.32,0,36.39,4.24,49,12.59l-14.46,17.69c-9.85-6.48-21.44-9.09-34.52-9.09-8.85,0-19.07,1.12-19.07,5.85,0,4.24,7.85,5.11,21.93,6.23C1033,228.27,1053.65,233.88,1053.65,254.57Z"/><path class="cls-4" d="M101.25,235.21l25,13.21C118.45,261.63,100.13,271.6,76,271.6c-33,0-56-16.7-56-46.48s22.94-46.49,57.08-46.49c23.06,0,41.26,10.09,48.86,23.06l-25.17,13.08c-5.36-8.35-13.59-12.34-24.06-12.34-15.45,0-25.92,8.23-25.92,22.69S61.25,247.8,76.7,247.8C87.17,247.8,95.52,244.06,101.25,235.21Z"/><path class="cls-4" d="M131.53,225.12c0-29.79,23.19-46.49,58.08-46.49s58.21,16.7,58.21,46.49-23.19,46.48-58.21,46.48S131.53,254.9,131.53,225.12Zm85.38,0c0-14.34-10.35-22.69-27.3-22.69s-27.29,8.35-27.29,22.69,10.34,22.68,27.29,22.68S216.91,239.45,216.91,225.12Z"/><path class="cls-4" d="M367.83,181.49v87.25H341.16l-50.6-52.22v52.22H261.27V181.49h32.16l45,47.37V181.49Z"/><path class="cls-4" d="M492.08,225.12c0,27.54-21.68,43.62-55.58,43.62H385.65V181.49H436.5C470.4,181.49,492.08,197.45,492.08,225.12Zm-31,0c0-13.22-10.35-20.44-27.05-20.44H416.06v40.88H434C450.7,245.56,461.05,238.33,461.05,225.12Z"/><path class="cls-4" d="M505.54,268.74V181.49H536v87.25Z"/><path class="cls-4" d="M646,204.55H611.47v64.19H581.06V204.55h-34.4V181.49H646Z"/><path class="cls-4" d="M656.71,268.74V181.49h30.41v87.25Z"/><path class="cls-4" d="M700.45,225.12c0-29.79,23.18-46.49,58.08-46.49s58.2,16.7,58.2,46.49-23.18,46.48-58.2,46.48S700.45,254.9,700.45,225.12Zm85.37,0c0-14.34-10.34-22.69-27.29-22.69s-27.3,8.35-27.3,22.69,10.35,22.68,27.3,22.68S785.82,239.45,785.82,225.12Z"/><path class="cls-4" d="M936.75,181.49v87.25H910.08l-50.61-52.22v52.22H830.19V181.49h32.15l45,47.37V181.49Z"/><path class="cls-4" d="M1053.65,240.57c0,18.82-16.83,31-49.11,31-22.68,0-42.38-6-56.46-16.57l15.08-17.45c10,7.48,24.8,12.59,41.88,12.59,12.46,0,18.57-2.12,18.57-6.48s-5-5.74-21.19-7.11c-26.79-2.37-50.6-8.47-50.6-28.41,0-19.07,20.81-29.54,49.11-29.54,18.32,0,36.39,4.24,49,12.59l-14.46,17.69c-9.85-6.48-21.44-9.09-34.52-9.09-8.85,0-19.07,1.12-19.07,5.85,0,4.24,7.85,5.11,21.93,6.23C1033,214.27,1053.65,219.88,1053.65,240.57Z"/><path class="cls-5" d="M101.25,222.27l25,13.21c-7.85,13.21-26.17,23.18-50.35,23.18-33,0-56-16.7-56-46.48s22.94-46.49,57.08-46.49c23.06,0,41.26,10.09,48.86,23.05l-25.17,13.09c-5.36-8.35-13.59-12.34-24.06-12.34-15.45,0-25.92,8.23-25.92,22.69s10.47,22.68,25.92,22.68C87.17,234.86,95.52,231.12,101.25,222.27Z"/><path class="cls-5" d="M131.53,212.18c0-29.79,23.19-46.49,58.08-46.49s58.21,16.7,58.21,46.49-23.19,46.48-58.21,46.48S131.53,242,131.53,212.18Zm85.38,0c0-14.34-10.35-22.69-27.3-22.69s-27.29,8.35-27.29,22.69,10.34,22.68,27.29,22.68S216.91,226.51,216.91,212.18Z"/><path class="cls-5" d="M367.83,168.55V255.8H341.16l-50.6-52.22V255.8H261.27V168.55h32.16l45,47.36V168.55Z"/><path class="cls-5" d="M492.08,212.18c0,27.54-21.68,43.62-55.58,43.62H385.65V168.55H436.5C470.4,168.55,492.08,184.51,492.08,212.18Zm-31,0c0-13.22-10.35-20.44-27.05-20.44H416.06v40.88H434C450.7,232.62,461.05,225.39,461.05,212.18Z"/><path class="cls-5" d="M505.54,255.8V168.55H536V255.8Z"/><path class="cls-5" d="M646,191.61H611.47V255.8H581.06V191.61h-34.4V168.55H646Z"/><path class="cls-5" d="M656.71,255.8V168.55h30.41V255.8Z"/><path class="cls-5" d="M700.45,212.18c0-29.79,23.18-46.49,58.08-46.49s58.2,16.7,58.2,46.49-23.18,46.48-58.2,46.48S700.45,242,700.45,212.18Zm85.37,0c0-14.34-10.34-22.69-27.29-22.69s-27.3,8.35-27.3,22.69,10.35,22.68,27.3,22.68S785.82,226.51,785.82,212.18Z"/><path class="cls-5" d="M936.75,168.55V255.8H910.08l-50.61-52.22V255.8H830.19V168.55h32.15l45,47.36V168.55Z"/><path class="cls-5" d="M1053.65,227.63c0,18.82-16.83,31-49.11,31-22.68,0-42.38-6-56.46-16.57l15.08-17.45c10,7.48,24.8,12.59,41.88,12.59,12.46,0,18.57-2.12,18.57-6.48s-5-5.74-21.19-7.11c-26.79-2.37-50.6-8.47-50.6-28.41,0-19.07,20.81-29.54,49.11-29.54,18.32,0,36.39,4.23,49,12.59L1035.45,196c-9.85-6.48-21.44-9.1-34.52-9.1-8.85,0-19.07,1.13-19.07,5.86,0,4.24,7.85,5.11,21.93,6.23C1033,201.33,1053.65,206.94,1053.65,227.63Z"/><path class="cls-1" d="M1079.24,174l.13-.16-9.2-6.11-9.21-6.1c-15.25-10.12-37.13-15.92-60-15.92-17.4,0-32.54,3.45-44.18,9.84v-7H922.28V99.74l-3.71-3-3.93-3.18.54-7.34L916,75.48h0l0-.25h0l0-.25h0l0-.25h0l0-.25h0l0-.25h0l0-.25h0l0-.25h0l0-.25h0l0-.25h0l0-.25h0l0-.25h0l0-.25h0l0-.25h0l0-.25h0l0-.25h0l0-.25h0l0-.25h0l0-.25h0l0-.25h0l0-.25h0l0-.25h0l0-.25h0l0-.25h0l0-.25h0l0-.25h0l0-.25h0l0-.25h0l0-.25h0l0-.25h0l0-.25h0l0-.25h0l0-.25h0l0-.25h0l0-.25h0l0-.25h0l0-.25h0l0-.25h0l0-.25h0l0-.25h0l0-.25h0l0-.25h0l0-.25h0l0-.25h0l0-.25h0l0-.25h0l0-.25h0l0-.25h0l0-.25h0l0-.25h0l0-.25h0l0-.25h0l0-.25h0l0-.25h0l0-.25h0l0-.25h0l0-.25h0l0-.25h0l0-.25h0l0-.25h0l0-.25h0l0-.25h0l0-.25h0l0-.25h0l0-.25h0l0-.25h0l0-.25h0l0-.25h0l0-.25h0l0-.25h0l0-.25h0l0-.25h0l0-.25h0l0-.25h0l0-.25h0l0-.25h0l0-.25h0l0-.25h0l0-.25h0l0-.25h0l0-.25h0l0-.25h0l0-.25h0l0-.25h0l0-.25h0l0-.25h0l0-.25h0l0-.25h0l0-.25h0l0-.25h0l0-.25h0l0-.25h0l0-.25h0l0-.25h0l0-.25h0l0-.25h0l0-.25h0l0-.25h0l0-.25h0l0-.25h0l0-.25h0l0-.25h0l0-.25h0l0-.25h0l0-.25h0l0-.25h0l0-.25h0l0-.25h0l0-.25h0l0-.25h0l0-.25h0l0-.25h-5.2l-3.09-4.65-6.93-10.45C886.56,11.22,865.4.37,837.86.37,820.43.37,805.79,5,795.51,13.69A41,41,0,0,0,780.59,45.3V56.15A38.85,38.85,0,0,0,770.76,77a42.74,42.74,0,0,0-2.48-10.8l1.46-1.78,7-8.56-.13-.09.13-.16-.13-.09.13-.16-.13-.09.13-.16L776.6,55l.13-.16-.13-.09.13-.16-.13-.09.13-.16-.13-.09.13-.16L776.6,54l.13-.16-.13-.09.13-.16-.13-.09.13-.16-.13-.09.13-.16L776.6,53l.13-.16-.13-.09.13-.16-.13-.09.13-.16-.13-.09.13-.16L776.6,52l.13-.16-.13-.09.13-.16-.13-.09.13-.16-.13-.09.13-.16L776.6,51l.13-.16-.13-.09.13-.16-.13-.09.13-.16-.13-.09.13-.16L776.6,50l.13-.16-.13-.09.13-.16-.13-.09.13-.16-.13-.09.13-.16L776.6,49l.13-.16-.13-.09.13-.16-.13-.09.13-.16-.13-.09.13-.16L776.6,48l.13-.16-.13-.09.13-.16-.13-.09.13-.16-.13-.09.13-.16L776.6,47l.13-.16-.13-.09.13-.16-.13-.09.13-.16-.13-.09.13-.16L776.6,46l.13-.16-.13-.09.13-.16-.13-.09.13-.16-.13-.09.13-.16L776.6,45l.13-.16-.13-.09.13-.16-.13-.09.13-.16-.13-.09.13-.16L776.6,44l.13-.16-.13-.09.13-.16-.13-.09.13-.16-.13-.09.13-.16L776.6,43l.13-.16-.13-.09.13-.16-.13-.09.13-.16-.13-.09.13-.16L776.6,42l.13-.16-.13-.09.13-.16-.13-.09.13-.16-.13-.09.13-.16L776.6,41l.13-.16-.13-.09.13-.16-.13-.09.13-.16-.13-.09.13-.16L776.6,40l.13-.16-.13-.09.13-.16-.13-.09.13-.16-.13-.09.13-.16L776.6,39l.13-.16-.13-.09.13-.16-.13-.09.13-.16-.13-.09.13-.16L776.6,38l.13-.16-.13-.09.13-.16-.13-.09.13-.16-.13-.09.13-.16L776.6,37l.13-.16-.13-.09.13-.16-.13-.09.13-.16-.13-.09.13-.16L776.6,36l.13-.16-.13-.09.13-.16-.13-.09.13-.16-.13-.09.13-.16L776.6,35l.13-.16-.13-.09.13-.16-.13-.09.13-.16-.13-.09.13-.16L776.6,34l.13-.16-.13-.09.13-.16-.13-.09.13-.16-.13-.09.13-.16L776.6,33l.13-.16-.13-.09.13-.16-.13-.09.13-.16-.13-.09.13-.16L776.6,32l.13-.16-.13-.09.13-.16-.13-.09.13-.16-.13-.09.13-.16L776.6,31l.13-.16-.13-.09.13-.16-.13-.09.13-.16-.13-.09.13-.16L776.6,30l.13-.16-.13-.09.13-.16-.13-.09.13-.16-.13-.09.13-.16L776.6,29l.13-.16-.13-.09.13-.16-.13-.09.13-.16-.13-.09.13-.15L767.52,22l-9.2-6.11C743.06,5.8,721.18,0,698.28,0c-17.4,0-32.54,3.45-44.18,9.84v-7H592l-3,3.88L572.48,28.11,556.11,6.78l-3-3.91h-63V11c-1.26-.68-2.56-1.32-3.9-1.91C476.92,5,466.09,2.87,454,2.87H152.35v90.8h34.4v52.05c-20.67.47-38.45,6.07-51.54,16.26q-1.8,1.4-3.47,2.9c-13.63-12-33.56-19.19-54.66-19.19-22.39,0-41.5,6.13-55.27,17.72C7.54,175.43,0,192.29,0,212.17v27.75c0,19.85,7.41,36.69,21.44,48.71C35,300.26,53.88,306.41,76,306.41s42.09-7,55.89-19.08c1.08,1,2.2,1.9,3.36,2.8,13.69,10.65,32.51,16.28,54.41,16.28,20.45,0,38.22-4.89,51.65-14.18v11.32h69.29V280.71l19.18,19.8,2.95,3H436.5c19.32,0,36.16-4.48,49-13v13H556V239.36h5.11v64.19h70.41V239.36h5.24v64.19h70.41V292.32c13.39,9.23,31.07,14.09,51.41,14.09s38.23-4.89,51.66-14.19v11.33h69.29V280.71l19.18,19.8,3,3h55.14v-6c14.13,5.85,30.35,8.89,47.79,8.89,26.45,0,45.85-6.83,57.65-20.32a46.75,46.75,0,0,0,11.46-30.71V227.62a47.32,47.32,0,0,0-.69-8.17,40.86,40.86,0,0,0-2-7.54l1.46-1.79,7-8.55-.13-.09.13-.16-.13-.09.13-.16-.13-.09.13-.16-.13-.09.13-.16-.13-.09.13-.16-.13-.09.13-.16-.13-.09.13-.16-.13-.09.13-.16-.13-.09.13-.16-.13-.09.13-.16-.13-.09.13-.16-.13-.09.13-.16-.13-.09.13-.16-.13-.09.13-.16-.13-.09.13-.16-.13-.09.13-.16-.13-.09.13-.16-.13-.09.13-.16-.13-.09.13-.16-.13-.09.13-.16-.13-.09.13-.16-.13-.09.13-.16-.13-.09.13-.16-.13-.09.13-.16-.13-.09.13-.16-.13-.09.13-.16-.13-.09.13-.16-.13-.09.13-.16-.13-.09.13-.16-.13-.09.13-.16-.13-.09.13-.16-.13-.09.13-.16-.13-.09.13-.16-.13-.09.13-.16-.13-.09.13-.16-.13-.09.13-.16-.13-.09.13-.16-.13-.09.13-.16-.13-.09.13-.16-.13-.09.13-.16-.13-.09.13-.16-.13-.09.13-.16-.13-.09.13-.16-.13-.09.13-.16-.13-.09.13-.16-.13-.09.13-.16-.13-.09.13-.16-.13-.09.13-.16-.13-.09.13-.16-.13-.09.13-.16-.13-.09.13-.16-.13-.09.13-.16-.13-.09.13-.16-.13-.09.13-.16-.13-.09.13-.16-.13-.09.13-.16-.13-.09.13-.16-.13-.09.13-.16-.13-.09.13-.16-.13-.09.13-.16-.13-.09.13-.16-.13-.09.13-.16-.13-.09.13-.16-.13-.09.13-.16-.13-.09.13-.16-.13-.09.13-.16-.13-.09.13-.16-.13-.09.13-.16-.13-.09.13-.16-.13-.09.13-.16-.13-.09.13-.16-.13-.09.13-.16-.13-.09.13-.16-.13-.09.13-.16-.13-.09.13-.16-.13-.09.13-.16-.13-.09.13-.16-.13-.09.13-.16-.13-.09.13-.16-.13-.09.13-.16-.13-.09.13-.16-.13-.09.13-.16-.13-.09.13-.16-.13-.09.13-.16-.13-.09.13-.16-.13-.09.13-.16-.13-.09.13-.16-.13-.09.13-.16-.13-.09.13-.16-.13-.09.13-.16-.13-.09.13-.16-.13-.09.13-.16-.13-.09.13-.16-.13-.09.13-.16-.13-.09.13-.16-.13-.09.13-.16-.13-.09.13-.16-.13-.09.13-.16-.13-.09.13-.16-.13-.09.13-.16-.13-.09.13-.16-.13-.09.13-.16-.13-.09.13-.16-.13-.09.13-.16-.13-.09.13-.16-.13-.09.13-.16-.13-.09.13-.16-.13-.09.13-.16-.13-.09.13-.16-.13-.09.13-.16ZM780.37,82.69a29.54,29.54,0,0,1,10.22-22.41v-15c0-17.39,14.62-34.93,47.27-34.93,24.32,0,42.17,9.09,54.57,27.78l6.93,10.45-.13,0,.13.2-.13,0,.13.2-.13,0,.13.2-.13,0,.13.2-.13,0,.13.2-.13,0,.13.2-.13,0,.13.2-.13,0,.13.2-.13,0,.13.2-.13,0,.13.2-.13,0,.13.2-.13,0,.13.2-.13,0,.13.2-.13,0,.13.2-.13,0,.13.2-.13,0,.13.2-.13,0,.13.2-.13,0,.13.2-.13,0,.13.2-.13,0,.13.2-.13,0,.13.2-.13,0,.13.2-.13,0,.13.2-.13,0,.13.2-.13,0,.13.2-.13,0,.13.2-.13,0,.13.2-.13,0,.13.2-.13,0,.13.2-.13,0,.13.2-.13,0,.13.2-.13,0,.13.2-.13,0,.13.2-.13,0,.13.2-.13,0,.13.2-.13,0,.13.2-.13,0,0,.08h5.93l0,.25h0l0,.25h0l0,.25h0l0,.25h0l0,.25h0l0,.25h0l0,.25h0l0,.25h0l0,.25h0l0,.25h0l0,.25h0l0,.25h0l0,.25h0l0,.25h0l0,.25h0l0,.25h0l0,.25h0l0,.25h0l0,.25h0l0,.25h0l0,.25h0l0,.25h0l0,.25h0l0,.25h0l0,.25h0l0,.25h0l0,.25h0l0,.25h0l0,.25h0l0,.25h0l0,.25h0l0,.25h0l0,.25h0l0,.25h0l0,.25h0l0,.25h0l0,.25h0l0,.25h0l0,.25h0l0,.25h0l0,.25h0l0,.25h0l0,.25h0l0,.25h0l0,.25h0l0,.25h0l0,.25h0l0,.25h0l0,.25h0l0,.25h0l0,.25h0l0,.25h0l0,.25h0l0,.25h0l0,.25h0l0,.25h0l0,.25h0l0,.25h0l0,.25h0l0,.25h0l0,.25h0l0,.25h0l0,.25h0l0,.25h0l0,.25h0l0,.25h0l0,.25h0l0,.25h0l0,.25h0l0,.25h0l0,.25h0l0,.25h0l0,.25h0l0,.25h0l0,.25h0l0,.25h0l0,.25h0l0,.25h0l0,.25h0l0,.25h0l0,.25h0l0,.25h0l0,.25h0l0,.25h0l0,.25h0l0,.25h0l0,.25h0l0,.25h0l0,.25h0l0,.25h0l0,.25h0l0,.25h0l0,.25h0l0,.25h0l0,.25h0l0,.25h0l0,.25h0l0,.25h0l0,.25h0l0,.25h0l0,.25h0l0,.25h0l0,.25h0l0,.25h0l0,.25h0l0,.25h0l0,.25h0l0,.25h0l0,.25h0l0,.25h0l0,.25h0l-.79,10.74c0,.6-.12,1.19-.18,1.79l8,6.5v43.35H866.85l-2.12-1.64a82,82,0,0,1-26.37,4.13c-33.6,0-58-16.79-58-39.91Zm-9.72,32.66c2.21,19.1,17.27,34.15,39.54,41v3.54c-13.43-9.3-31.2-14.19-51.66-14.19-1.52,0-3,0-4.51.08a46.53,46.53,0,0,0,16.63-30.42ZM162.35,83.67V12.87H454c21.61,0,38,7.56,46.08,20.34V12.87h48.09l24.26,31.62,24.48-31.62H644.1V32c8.61-13.76,28-22,54.18-22,21,0,40.85,5.19,54.51,14.25l9.2,6.11-.13.16.13.09-.13.16.13.09-.13.16.13.09-.13.16.13.09-.13.16.13.09-.13.16.13.09-.13.16.13.09-.13.16.13.09-.13.16.13.09-.13.16.13.09-.13.16.13.09-.13.16.13.09-.13.16.13.09-.13.16.13.09-.13.16.13.09-.13.16.13.09-.13.16.13.09-.13.16.13.09-.13.16.13.09-.13.16.13.09-.13.16.13.09-.13.16.13.09-.13.16.13.09-.13.16.13.09-.13.16.13.09-.13.16.13.09-.13.16.13.09-.13.16.13.09-.13.16.13.09-.13.16.13.09-.13.16.13.09-.13.16.13.09-.13.16.13.09-.13.16.13.09-.13.16.13.09-.13.16.13.09-.13.16.13.09-.13.16.13.09-.13.16.13.09-.13.16.13.09-.13.16.13.09-.13.16.13.09-.13.16.13.09-.13.16.13.09-.13.16.13.09-.13.16.13.09-.13.16.13.09-.13.16.13.09-.13.16.13.09-.13.16.13.09-.13.16.13.09-.13.16.13.09-.13.16.13.09-.13.16.13.09-.13.16.13.09-.13.16.13.09-.13.16.13.09-.13.16.13.09-.13.16.13.09-.13.16.13.09-.13.16.13.09-.13.16.13.09-.13.16.13.09-.13.16.13.09-.13.16.13.09-.13.16.13.09-.13.16.13.09-.13.16.13.09-.13.16.13.09-.13.16.13.09-.13.16.13.09-.13.16.13.09-.13.16.13.09-.13.16.13.09-.13.16.13.09-.13.16.13.09-.13.16.13.09-.13.16.13.09-.13.16.13.09-.13.16.13.09-.13.16.13.09-.13.16.13.09-.13.16.13.09-.13.16.13.09-.13.16.13.09-.13.16.13.09-.13.16.13.09-.13.16.13.09-.13.16.13.09-.13.16.13.09-.13.16.13.09-.13.16.13.09-.13.16.13.09-.13.16.13.09-.13.16.13.09-.13.16.13.09-.13.16.13.09-.13.16.13.09-.13.16.13.09-.13.16.13.09-.13.16.13.09-.13.16.13.09-.13.16.13.09-.13.16.13.09-.13.16.13.09-.13.16.13.09-.13.16.13.09-.13.16.13.09-.13.16.13.09-.13.16.13.09-.13.16.13.09-5.47,6.7A32.27,32.27,0,0,1,761,81.94v27.75c0,9.63-4.26,41-59.11,41-22.4,0-42.23-5.3-57.79-15.35v12.48h-50v-33l-16.89,20.82h-11l-16.76-20.74v33H459.15L438,122.18h-5.73v25.68H272.4V83.67H247.16v64.19H196.75V83.67Zm902.29,92.63-.13.16.13.09-.13.16.13.09-.13.16.13.09-.13.16.13.09-.13.16.13.09-.13.16.13.09-.13.16.13.09-.13.16.13.09-.13.16.13.09-.13.16.13.09-.13.16.13.09-.13.16.13.09-.13.16.13.09-.13.16.13.09-.13.16.13.09-.13.16.13.09-.13.16.13.09-.13.16.13.09-.13.16.13.09-.13.16.13.09-.13.16.13.09-.13.16.13.09-.13.16.13.09-.13.16.13.09-.13.16.13.09-.13.16.13.09-.13.16.13.09-.13.16.13.09-.13.16.13.09-.13.16.13.09-.13.16.13.09-.13.16.13.09-.13.16.13.09-.13.16.13.09-.13.16.13.09-.13.16.13.09-.13.16.13.09-.13.16.13.09-.13.16.13.09-.13.16.13.09-.13.16.13.09-.13.16.13.09-.13.16.13.09-.13.16.13.09-.13.16.13.09-.13.16.13.09-.13.16.13.09-.13.16.13.09-.13.16.13.09-.13.16.13.09-.13.16.13.09-.13.16.13.09-.13.16.13.09-.13.16.13.09-.13.16.13.09-.13.16.13.09-.13.16.13.09-.13.16.13.09-.13.16.13.09-.13.16.13.09-.13.16.13.09-.13.16.13.09-.13.16.13.09-.13.16.13.09-.13.16.13.09-.13.16.13.09-.13.16.13.09-.13.16.13.09-.13.16.13.09-.13.16.13.09-.13.16.13.09-.13.16.13.09-.13.16.13.09-.13.16.13.09-.13.16.13.09-.13.16.13.09-.13.16.13.09-.13.16.13.09-.13.16.13.09-.13.16.13.09-.13.16.13.09-.13.16.13.09-.13.16.13.09-.13.16.13.09-.13.16.13.09-.13.16.13.09-.13.16.13.09-.13.16.13.09-.13.16.13.09-.13.16.13.09-.13.16.13.09-.13.16.13.09-.13.16.13.09-.13.16.13.09-.13.16.13.09-.13.16.13.09-.13.16.13.09-.13.16.13.09-.13.16.13.09-.13.16.13.09-.13.16.13.09-.13.16.13.09-.13.16.13.09-.13.16.13.09-.13.16.13.09-.13.16.13.09-.13.16.13.09-.13.16.13.09-.13.16.13.09-.13.16.13.09-5.48,6.7a32.13,32.13,0,0,1,4.49,17.13c0,.07,0,.14,0,.2s0,0,0,0,0,.14,0,.2,0,0,0,0,0,.14,0,.2,0,0,0,0,0,.14,0,.2,0,0,0,0,0,.14,0,.2,0,0,0,0,0,.14,0,.2,0,0,0,0,0,.14,0,.2,0,0,0,0,0,.14,0,.2,0,0,0,0,0,.14,0,.2,0,0,0,0,0,.14,0,.2,0,0,0,0,0,.14,0,.2,0,0,0,0,0,.14,0,.2,0,0,0,0,0,.14,0,.2,0,0,0,0,0,.14,0,.2,0,0,0,0,0,.14,0,.2,0,0,0,0,0,.14,0,.2,0,0,0,0,0,.14,0,.2,0,0,0,0,0,.14,0,.2,0,0,0,0,0,.14,0,.2,0,0,0,0,0,.14,0,.2,0,0,0,0,0,.14,0,.2,0,0,0,0,0,.14,0,.2,0,0,0,0,0,.14,0,.2,0,0,0,0,0,.14,0,.2,0,0,0,0,0,.14,0,.2,0,0,0,0,0,.14,0,.2,0,0,0,0,0,.14,0,.2,0,0,0,0,0,.14,0,.2,0,0,0,0,0,.14,0,.2,0,0,0,0,0,.14,0,.2,0,0,0,0,0,.14,0,.2,0,0,0,0,0,.14,0,.2,0,0,0,0,0,.14,0,.2,0,0,0,0,0,.14,0,.2,0,0,0,0,0,.14,0,.2,0,0,0,0,0,.14,0,.2,0,0,0,0,0,.14,0,.2,0,0,0,0,0,.14,0,.2,0,0,0,0,0,.14,0,.2,0,0,0,0,0,.14,0,.2,0,0,0,0,0,.14,0,.2,0,0,0,0,0,.14,0,.2,0,0,0,0,0,.14,0,.2,0,0,0,0,0,.14,0,.2,0,0,0,0,0,.14,0,.2,0,0,0,0,0,.14,0,.2,0,0,0,0,0,.14,0,.2,0,0,0,0,0,.14,0,.2,0,0,0,0,0,.14,0,.2,0,0,0,0,0,.14,0,.2,0,0,0,0,0,.14,0,.2,0,0,0,0,0,.14,0,.2,0,0,0,0,0,.14,0,.2,0,0,0,0,0,.14,0,.2,0,0,0,0,0,.14,0,.2,0,0,0,0,0,.14,0,.2,0,0,0,0,0,.14,0,.2,0,0,0,0,0,.14,0,.2,0,0,0,0,0,.14,0,.2,0,0,0,0,0,.14,0,.2,0,0,0,0,0,.14,0,.2,0,0,0,0,0,.14,0,.2,0,0,0,0,0,.14,0,.2,0,0,0,0,0,.14,0,.2,0,0,0,0,0,.14,0,.2,0,0,0,0,0,.14,0,.2,0,0,0,0,0,.14,0,.2,0,0,0,0,0,.14,0,.2,0,0,0,0,0,.14,0,.2,0,0,0,0,0,.14,0,.2,0,0,0,0,0,.14,0,.2,0,0,0,0,0,.14,0,.2,0,0,0,0,0,.14,0,.2,0,0,0,0,0,.14,0,.2,0,0,0,0,0,.14,0,.2,0,0,0,0,0,.14,0,.2,0,0,0,0,0,.14,0,.2,0,0,0,0,0,.14,0,.2,0,0,0,0,0,.14,0,.2,0,0,0,0,0,.14,0,.2,0,0,0,0,0,.14,0,.2,0,0,0,0,0,.14,0,.2,0,0,0,0,0,.14,0,.2,0,0,0,0,0,.14,0,.2,0,0,0,0,0,.14,0,.2,0,0,0,0,0,.14,0,.2,0,0,0,0,0,.14,0,.2,0,0,0,0,0,.14,0,.2,0,0,0,0,0,.14,0,.2,0,0,0,0,0,.14,0,.2,0,0,0,0,0,.14,0,.2,0,0,0,0,0,.14,0,.2,0,0,0,0,0,.14,0,.2,0,0,0,0,0,.14,0,.2,0,0,0,0,0,.14,0,.2,0,0,0,0,0,.14,0,.2,0,0,0,0,0,.14,0,.2,0,0,0,0,0,.14,0,.2,0,0,0,0,0,.14,0,.2,0,0,0,0,0,.14,0,.2,0,0,0,0,0,.14,0,.2,0,0,0,0,0,.14,0,.2,0,0,0,0,0,.14,0,.2,0,0,0,0,0,.14,0,.2,0,0,0,0,0,.14,0,.2,0,0,0,0,0,.14,0,.2,0,0,0,0,0,.14,0,.2,0,0,0,0,0,.14,0,.2,0,0,0,0,0,.14,0,.2,0,0,0,0,0,.14,0,.2,0,0,0,0,0,.14,0,.2,0,0,0,0c0,9.63-4.27,41-59.11,41-22.4,0-42.24-5.3-57.79-15.35v12.49H905.84L869.48,256v37.53H820.19V266.83a48.67,48.67,0,0,1-5.78,8.29,51.91,51.91,0,0,1-7.51,7.12c-11.94,9.27-28.67,14.17-48.37,14.17s-36.33-4.9-48.26-14.18a50.23,50.23,0,0,1-13.15-15.18v26.5H646.71V229.36H621.47v64.19H571.06V229.36H546v64.19H495.54V265.87a46.49,46.49,0,0,1-5.42,7.57,49.61,49.61,0,0,1-7,6.54c-11.49,8.87-27.61,13.57-46.62,13.57H336.93L300.56,256v37.53H251.27V266.83A50.34,50.34,0,0,1,238,282.24c-12,9.27-28.67,14.17-48.37,14.17s-36.34-4.9-48.27-14.18a51.06,51.06,0,0,1-9.43-9.5c-11.29,14.73-32.17,23.68-56,23.68-40.07,0-66-22.17-66-56.49V212.17c0-34.31,26.33-56.48,67.08-56.48,22.85,0,43.71,9.23,54.71,23.85a51.14,51.14,0,0,1,9.56-9.67c11.93-9.28,28.62-14.18,48.27-14.18S226,160.59,238,169.86a50.34,50.34,0,0,1,13.28,15.41V158.55h46.45l30.7,32.32V158.55H436.5c19,0,35.14,4.68,46.61,13.52a48.1,48.1,0,0,1,12.43,14.11V158.55H697.12v26.5a50.23,50.23,0,0,1,13.15-15.18c11.93-9.28,28.62-14.18,48.26-14.18s36.43,4.9,48.37,14.17a50.24,50.24,0,0,1,13.29,15.41V158.55h46.44l30.7,32.32V158.55h49.42V177.7c8.61-13.77,28-22,54.18-22,21,0,40.85,5.19,54.5,14.25l9.21,6.11-.13.16Z"/></g></g></svg>