<svg xmlns="http://www.w3.org/2000/svg" viewBox="0 0 51.46 51.46"><defs><style>.cls-1{fill:#ffd151;}</style></defs><title>OFiesta-Insta-Logo</title><g id="Layer_2" data-name="Layer 2"><g id="Layer_1-2" data-name="Layer 1"><g id="Insta"><path class="cls-1" d="M26,20.42a5.48,5.48,0,1,0,5.48,5.48A5.48,5.48,0,0,0,26,20.42ZM25.73,0A25.73,25.73,0,1,0,51.46,25.73,25.73,25.73,0,0,0,25.73,0ZM43.34,32.9A10.33,10.33,0,0,1,33,43.22H19A10.33,10.33,0,0,1,8.69,32.9v-14A10.33,10.33,0,0,1,19,8.58H33A10.33,10.33,0,0,1,43.34,18.9ZM33,12.06H19a6.83,6.83,0,0,0-6.83,6.84v14A6.83,6.83,0,0,0,19,39.74H33a6.83,6.83,0,0,0,6.83-6.84v-14A6.83,6.83,0,0,0,33,12.06Zm-7,22.8a9,9,0,1,1,9-9A9,9,0,0,1,26,34.86Zm9-15.71A2.15,2.15,0,1,1,37.14,17,2.14,2.14,0,0,1,35,19.15Z"/></g></g></g></svg>