<svg xmlns="http://www.w3.org/2000/svg" viewBox="0 0 35.96 35.96"><defs><style>.cls-1{fill:#ffd151;}</style></defs><title>OFiesta-Insta</title><g id="Layer_2" data-name="Layer 2"><g id="Layer_1-2" data-name="Layer 1"><g id="Insta"><path class="cls-1" d="M23.08,8.43H13.29a4.78,4.78,0,0,0-4.78,4.78V23a4.77,4.77,0,0,0,4.78,4.77h9.79A4.77,4.77,0,0,0,27.85,23V13.21A4.78,4.78,0,0,0,23.08,8.43Zm-4.9,15.94a6.27,6.27,0,1,1,6.27-6.27A6.27,6.27,0,0,1,18.18,24.37Zm6.28-11a1.5,1.5,0,1,1,1.5-1.5A1.5,1.5,0,0,1,24.46,13.39Zm-6.28.89A3.83,3.83,0,1,0,22,18.1,3.83,3.83,0,0,0,18.18,14.28ZM18,0A18,18,0,1,0,36,18,18,18,0,0,0,18,0ZM30.29,23a7.23,7.23,0,0,1-7.21,7.21H13.29A7.23,7.23,0,0,1,6.07,23V13.21A7.23,7.23,0,0,1,13.29,6h9.79a7.23,7.23,0,0,1,7.21,7.22Z"/></g></g></g></svg>