<?xml version="1.0" encoding="utf-8"?>
<!-- Generator: Adobe Illustrator 23.0.4, SVG Export Plug-In . SVG Version: 6.00 Build 0)  -->
<svg version="1.1" id="Layer_1" xmlns="http://www.w3.org/2000/svg" xmlns:xlink="http://www.w3.org/1999/xlink" x="0px" y="0px"
	 viewBox="0 0 1920 1080" style="enable-background:new 0 0 1920 1080;" xml:space="preserve">
<style type="text/css">
	.st0{fill:#E497B4;stroke:url(#SVGID_1_);stroke-width:5.6484;stroke-linejoin:round;stroke-miterlimit:10;}
	.st1{fill:#E497B4;stroke:url(#SVGID_2_);stroke-width:5.6484;stroke-linejoin:round;stroke-miterlimit:10;}
	.st2{fill:#E497B4;stroke:url(#SVGID_3_);stroke-width:5.6484;stroke-miterlimit:10;}
	.st3{fill:#E497B4;stroke:url(#SVGID_4_);stroke-width:5.6484;stroke-miterlimit:10;}
	.st4{fill:#E497B4;stroke:url(#SVGID_5_);stroke-width:2.1181;stroke-miterlimit:10;}
	.st5{fill:url(#SVGID_6_);}
	.st6{fill:#E497B4;}
	.st7{fill:url(#SVGID_7_);}
	.st8{fill:url(#SVGID_8_);}
	.st9{fill:url(#SVGID_9_);}
	.st10{fill:#FFFFFF;stroke:url(#SVGID_10_);stroke-width:4.5531;stroke-linejoin:round;stroke-miterlimit:10;}
	.st11{fill:#E497B4;stroke:url(#SVGID_11_);stroke-width:4.5531;stroke-linejoin:round;stroke-miterlimit:10;}
	.st12{fill:#E497B4;stroke:url(#SVGID_12_);stroke-width:4.5531;stroke-linejoin:round;stroke-miterlimit:10;}
	.st13{fill:#EEDBE1;stroke:url(#SVGID_13_);stroke-width:2.4471;stroke-linejoin:round;stroke-miterlimit:10;}
	.st14{fill:#EEDBE1;stroke:url(#SVGID_14_);stroke-width:2.4471;stroke-linejoin:round;stroke-miterlimit:10;}
	.st15{fill:#EEDBE1;stroke:url(#SVGID_15_);stroke-width:2.4471;stroke-linejoin:round;stroke-miterlimit:10;}
	.st16{fill:#231F20;stroke:#000000;stroke-width:0.5823;stroke-miterlimit:10;}
	.st17{fill:none;stroke:#231F20;stroke-width:0.8384;stroke-miterlimit:10;}
	.st18{fill:#FFFFFF;stroke:url(#SVGID_16_);stroke-width:2.4487;stroke-linecap:round;stroke-linejoin:round;stroke-miterlimit:10;}
	.st19{fill:#FFFFFF;stroke:url(#SVGID_17_);stroke-width:2.4487;stroke-linecap:round;stroke-linejoin:round;stroke-miterlimit:10;}
	.st20{fill:#FFD151;}
	.st21{fill:#E497B4;stroke:#000000;stroke-width:5.3152;stroke-linejoin:round;stroke-miterlimit:10;}
	.st22{fill:#E9AAC2;}
	.st23{fill:#EFC0D2;}
	.st24{fill:none;stroke:#000000;stroke-width:2.4472;stroke-linejoin:round;stroke-miterlimit:10;}
	.st25{fill:none;stroke:#000000;stroke-width:5.3152;stroke-linejoin:round;stroke-miterlimit:10;}
	.st26{fill:none;stroke:#000000;stroke-width:2.1439;stroke-linejoin:round;stroke-miterlimit:10;}
	.st27{clip-path:url(#SVGID_19_);}
	.st28{fill:#E497B4;stroke:#000000;stroke-width:2.4472;stroke-linejoin:round;stroke-miterlimit:10;}
	.st29{fill:#F1F2F2;}
	.st30{fill:#E497B4;stroke:#000000;stroke-width:4.4973;stroke-linejoin:round;stroke-miterlimit:10;}
	.st31{fill:#E9AAC2;stroke:#000000;stroke-width:2.2229;stroke-miterlimit:10;}
	.st32{fill:none;stroke:#231F20;stroke-width:0.6135;}
	.st33{clip-path:url(#SVGID_21_);}
	.st34{fill:none;stroke:#000000;stroke-width:2.2229;stroke-miterlimit:10;}
	.st35{fill:#E497B4;stroke:#000000;stroke-width:4.7698;stroke-linejoin:round;stroke-miterlimit:10;}
	.st36{fill:none;stroke:url(#SVGID_22_);stroke-width:1.5735;stroke-miterlimit:10;}
	.st37{fill:none;stroke:url(#SVGID_23_);stroke-width:1.5735;stroke-miterlimit:10;}
	.st38{fill:none;stroke:url(#SVGID_24_);stroke-width:1.5735;stroke-miterlimit:10;}
	.st39{fill:#E497B4;stroke:#000000;stroke-width:0.588;stroke-miterlimit:10;}
	.st40{clip-path:url(#SVGID_26_);}
	.st41{fill:none;stroke:#000000;stroke-width:2.3576;stroke-miterlimit:10;}
	.st42{fill:none;stroke:#231F20;stroke-width:0.6507;}
	.st43{fill:#E497B4;stroke:#000000;stroke-width:4.673;stroke-linejoin:round;stroke-miterlimit:10;}
	.st44{fill:#E9AAC2;stroke:#231F20;stroke-width:1.946;stroke-miterlimit:10;}
	.st45{clip-path:url(#SVGID_28_);}
	.st46{fill:none;stroke:#231F20;stroke-width:1.946;stroke-miterlimit:10;}
	.st47{clip-path:url(#SVGID_30_);}
	.st48{fill:#E497B4;stroke:#000000;stroke-width:4.5493;stroke-linejoin:round;stroke-miterlimit:10;}
	.st49{fill:#E497B4;stroke:#000000;stroke-width:4.5493;stroke-miterlimit:10;}
	.st50{fill:#E497B4;stroke:#000000;stroke-width:1.706;stroke-miterlimit:10;}
	.st51{clip-path:url(#SVGID_32_);fill:#231F20;}
	.st52{clip-path:url(#SVGID_34_);}
	.st53{clip-path:url(#SVGID_36_);}
	.st54{clip-path:url(#SVGID_38_);}
	.st55{fill:#E9AAC2;stroke:#231F20;stroke-width:1.9093;stroke-linejoin:round;}
	.st56{clip-path:url(#SVGID_40_);}
	.st57{clip-path:url(#SVGID_42_);fill:#231F20;}
	.st58{clip-path:url(#SVGID_44_);}
	.st59{clip-path:url(#SVGID_46_);}
	.st60{clip-path:url(#SVGID_48_);}
	.st61{fill:#E497B4;stroke:#000000;stroke-width:4.5124;stroke-linecap:round;stroke-linejoin:round;stroke-miterlimit:10;}
	.st62{fill:#E9AAC2;stroke:#231F20;stroke-width:1.8791;}
	.st63{fill:none;stroke:#231F20;stroke-width:3.4969;}
	.st64{clip-path:url(#SVGID_50_);}
	.st65{fill:#FFFFFF;}
	.st66{fill:#E497B4;stroke:#000000;stroke-width:3.7431;stroke-linejoin:round;stroke-miterlimit:10;}
	.st67{fill:#E9AAC2;stroke:#000000;stroke-width:2.0555;stroke-linejoin:round;stroke-miterlimit:10;}
	.st68{fill:none;}
	.st69{clip-path:url(#SVGID_52_);}
	.st70{clip-path:url(#SVGID_54_);}
	.st71{clip-path:url(#SVGID_56_);}
	.st72{clip-path:url(#SVGID_58_);}
	.st73{clip-path:url(#SVGID_60_);}
	.st74{clip-path:url(#SVGID_62_);}
	.st75{fill:#E497B4;stroke:#000000;stroke-width:5.0899;stroke-linejoin:round;stroke-miterlimit:10;}
	.st76{fill:#E497B4;stroke:#000000;stroke-width:2.0207;stroke-linejoin:round;stroke-miterlimit:10;}
	.st77{fill:#E9AAC2;stroke:#231F20;stroke-width:2.0207;stroke-linejoin:round;}
	.st78{clip-path:url(#SVGID_64_);}
	.st79{fill:#E497B4;stroke:#231F20;stroke-width:2.0207;}
</style>
<g>
	
		<linearGradient id="SVGID_1_" gradientUnits="userSpaceOnUse" x1="4313.771" y1="-126.5356" x2="4230.8794" y2="-126.5356" gradientTransform="matrix(-0.9412 0.4313 0.3916 0.883 4265.9214 -771.1252)">
		<stop  offset="0.2649" style="stop-color:#000000"/>
		<stop  offset="0.452" style="stop-color:#0D0C0C"/>
		<stop  offset="0.7605" style="stop-color:#1D1A1B"/>
		<stop  offset="1" style="stop-color:#231F20"/>
	</linearGradient>
	<path class="st0" d="M162.8,985.1c3.2,7.3,22.2,5.8,42.2-3.4s33.7-22.6,30.5-29.9c-3.2-7.3-31.6-22.3-51.6-13.1
		S159.6,977.8,162.8,985.1z"/>
	<g>
		
			<linearGradient id="SVGID_2_" gradientUnits="userSpaceOnUse" x1="4319.5815" y1="-184.3902" x2="4225.6084" y2="-184.3902" gradientTransform="matrix(-0.9412 0.4313 0.3916 0.883 4265.9214 -771.1252)">
			<stop  offset="0.2649" style="stop-color:#000000"/>
			<stop  offset="0.452" style="stop-color:#0D0C0C"/>
			<stop  offset="0.7605" style="stop-color:#1D1A1B"/>
			<stop  offset="1" style="stop-color:#231F20"/>
		</linearGradient>
		<path class="st1" d="M104,867.2l51.2,115.4c0,0,13.7,6.5,46.6-7.7c32.9-14.2,36.5-30.4,36.5-30.4l-51.2-115.4
			c-5.4,6.1-19.1,9.1-39,17.7c-17.6,7.6-28.8,10.7-40.7,12.2C112.7,857.4,104,867.2,104,867.2z"/>
		
			<linearGradient id="SVGID_3_" gradientUnits="userSpaceOnUse" x1="4319.5815" y1="-253.0785" x2="4225.6084" y2="-253.0785" gradientTransform="matrix(-0.9412 0.4313 0.3916 0.883 4265.9214 -771.1252)">
			<stop  offset="0.2649" style="stop-color:#000000"/>
			<stop  offset="0.452" style="stop-color:#0D0C0C"/>
			<stop  offset="0.7605" style="stop-color:#1D1A1B"/>
			<stop  offset="1" style="stop-color:#231F20"/>
		</linearGradient>
		
			<ellipse transform="matrix(0.9087 -0.4176 0.4176 0.9087 -340.8621 138.2448)" class="st2" cx="145.5" cy="848.2" rx="45.7" ry="12.8"/>
		
			<linearGradient id="SVGID_4_" gradientUnits="userSpaceOnUse" x1="4313.3306" y1="-260.9734" x2="4231.8594" y2="-260.9734" gradientTransform="matrix(-0.9412 0.4313 0.3916 0.883 4265.9214 -771.1252)">
			<stop  offset="0.2649" style="stop-color:#000000"/>
			<stop  offset="0.452" style="stop-color:#0D0C0C"/>
			<stop  offset="0.7605" style="stop-color:#1D1A1B"/>
			<stop  offset="1" style="stop-color:#231F20"/>
		</linearGradient>
		
			<ellipse transform="matrix(0.9087 -0.4176 0.4176 0.9087 -338.2336 136.3169)" class="st3" cx="142.4" cy="841.2" rx="39.2" ry="11"/>
		
			<linearGradient id="SVGID_5_" gradientUnits="userSpaceOnUse" x1="4244.1177" y1="-259.6937" x2="4264.2212" y2="-259.6937" gradientTransform="matrix(-0.9412 0.4313 0.3916 0.883 4265.9214 -771.1252)">
			<stop  offset="0.2649" style="stop-color:#000000"/>
			<stop  offset="0.452" style="stop-color:#0D0C0C"/>
			<stop  offset="0.7605" style="stop-color:#1D1A1B"/>
			<stop  offset="1" style="stop-color:#231F20"/>
		</linearGradient>
		<path class="st4" d="M152.9,833.9c0,0,14.2-6.3,15.5-4.3c1.5,2.4-4.8,7.1-16.1,12.3"/>
		
			<linearGradient id="SVGID_6_" gradientUnits="userSpaceOnUse" x1="4301.7642" y1="-176.1833" x2="4282.231" y2="-176.1833" gradientTransform="matrix(-0.9412 0.4313 0.3916 0.883 4265.9214 -771.1252)">
			<stop  offset="0.2649" style="stop-color:#000000"/>
			<stop  offset="0.452" style="stop-color:#0D0C0C"/>
			<stop  offset="0.7605" style="stop-color:#1D1A1B"/>
			<stop  offset="1" style="stop-color:#231F20"/>
		</linearGradient>
		<path class="st5" d="M141.2,863.1c0,0,3.7,53.2,13.7,62.9c9.9,9.7,35.8,53.3,35.8,53.3l-17.6,5.4c0,0-14.2-39.3-22.2-51.8
			c-10.2-15.8-20.7-57-21.5-63.1C128.6,865.2,141.2,863.1,141.2,863.1z"/>
		<g>
			<path class="st6" d="M153,833.7c0,0-18.9,2-20.1,6.1s0.5,9.1,2,8.9c1.5-0.1,16.6-5.6,17.3-6.4C152.8,841.5,153,833.7,153,833.7z"
				/>
			
				<linearGradient id="SVGID_7_" gradientUnits="userSpaceOnUse" x1="4386.2153" y1="116.3558" x2="4360.8096" y2="116.3558" gradientTransform="matrix(-0.9544 0.3165 0.4122 0.9111 4269.4072 -649.7045)">
				<stop  offset="0.2649" style="stop-color:#000000"/>
				<stop  offset="0.452" style="stop-color:#0D0C0C"/>
				<stop  offset="0.7605" style="stop-color:#1D1A1B"/>
				<stop  offset="1" style="stop-color:#231F20"/>
			</linearGradient>
			<path class="st7" d="M134.8,849.4c-0.5,0.1-1.1-0.2-1.5-0.7c-1.4-1.6-2.3-5.7-1.2-9.1c1.4-4.4,17.7-6.3,20.9-6.7l0.8-0.1l0,0.7
				c-0.1,3.7-0.3,8.2-1.1,9.1c-0.2,0.2-0.8,0.5-1.6,0.9C146.8,845.5,135.5,849.3,134.8,849.4z M152.2,834.5
				c-7.5,0.9-17.8,3.1-18.6,5.4c-1.2,3.8,0.5,7.9,1.2,8.1c1.3-0.1,15-5,16.7-6.1C151.8,841.1,152.1,837.6,152.2,834.5z"/>
		</g>
		<g>
			<path class="st6" d="M137.2,839.5c0,0,3.4-1.8,3.7-1.2c0.3,0.6,1,5.2-0.7,6c-0.4,0.2-0.8,0.3-1.3,0.5c-1.9,0.6-3.9-0.3-4.1-2
				C134.8,841.7,135.3,840.6,137.2,839.5z"/>
			
				<linearGradient id="SVGID_8_" gradientUnits="userSpaceOnUse" x1="4382.9971" y1="116.229" x2="4373.9277" y2="116.229" gradientTransform="matrix(-0.9544 0.3165 0.4122 0.9111 4269.4072 -649.7045)">
				<stop  offset="0.2649" style="stop-color:#000000"/>
				<stop  offset="0.452" style="stop-color:#0D0C0C"/>
				<stop  offset="0.7605" style="stop-color:#1D1A1B"/>
				<stop  offset="1" style="stop-color:#231F20"/>
			</linearGradient>
			<path class="st8" d="M140.5,844.9c-0.4,0.2-0.9,0.4-1.4,0.5c-1.2,0.4-2.4,0.3-3.4-0.2c-0.9-0.5-1.5-1.3-1.6-2.3
				c-0.1-1,0.3-2.6,2.7-4l0,0c4.1-2.2,4.6-1.4,4.8-1c0.3,0.6,0.9,3.9,0.1,5.7C141.5,844.2,141.1,844.7,140.5,844.9
				C140.5,844.9,140.5,844.9,140.5,844.9z M137.6,840.1c-2,1.2-1.9,2.1-1.8,2.5c0.1,0.6,0.4,1.1,1,1.3c0.6,0.3,1.4,0.4,2.2,0.2
				c0.4-0.1,0.8-0.3,1.1-0.4c0,0,0,0,0,0c0.1,0,0.2-0.2,0.3-0.4c0.5-1.2,0.3-3.5,0.1-4.4C139.8,839,138.6,839.5,137.6,840.1z"/>
		</g>
		<g>
			
				<linearGradient id="SVGID_9_" gradientUnits="userSpaceOnUse" x1="4373.0356" y1="116.619" x2="4366.3735" y2="116.619" gradientTransform="matrix(-0.9544 0.3165 0.4122 0.9111 4269.4072 -649.7045)">
				<stop  offset="0.2649" style="stop-color:#000000"/>
				<stop  offset="0.452" style="stop-color:#0D0C0C"/>
				<stop  offset="0.7605" style="stop-color:#1D1A1B"/>
				<stop  offset="1" style="stop-color:#231F20"/>
			</linearGradient>
			<path class="st9" d="M145.2,842.1L145.2,842.1c-1.5-0.7-1.9-2.4-0.9-3.9c1-1.4,3-2.1,4.5-1.4c1.5,0.7,1.9,2.4,0.9,3.9
				c-0.4,0.6-0.9,1-1.6,1.3C147.2,842.4,146.1,842.5,145.2,842.1z M145.6,838.8c-0.5,0.7-0.3,1.6,0.5,2l0,0c0.8,0.3,1.8,0,2.3-0.7
				c0.5-0.7,0.3-1.6-0.5-2c-0.5-0.2-1-0.2-1.5,0C146.1,838.3,145.8,838.5,145.6,838.8z"/>
		</g>
	</g>
</g>
<g>
	
		<linearGradient id="SVGID_10_" gradientUnits="userSpaceOnUse" x1="1501.8859" y1="1565.9506" x2="1501.8859" y2="1565.9506" gradientTransform="matrix(0.9679 0.4052 -0.1856 0.9554 538.0259 -1213.4828)">
		<stop  offset="0.2649" style="stop-color:#000000"/>
		<stop  offset="0.452" style="stop-color:#0D0C0C"/>
		<stop  offset="0.7605" style="stop-color:#1D1A1B"/>
		<stop  offset="1" style="stop-color:#231F20"/>
	</linearGradient>
	<path class="st10" d="M1701.2,891.3"/>
	<g>
		
			<linearGradient id="SVGID_11_" gradientUnits="userSpaceOnUse" x1="1577.3159" y1="1545.692" x2="1605.6133" y2="1545.692" gradientTransform="matrix(0.9842 0.3216 -0.1856 0.9554 509.3644 -1065.9244)">
			<stop  offset="0.2649" style="stop-color:#000000"/>
			<stop  offset="0.452" style="stop-color:#0D0C0C"/>
			<stop  offset="0.7605" style="stop-color:#1D1A1B"/>
			<stop  offset="1" style="stop-color:#231F20"/>
		</linearGradient>
		<path class="st11" d="M1765.1,990.5c20.8-17.2,25.4-25.6,25.4-25.6c6-20.4,23.8-109.3,23.8-109.3
			C1776.2,873.8,1765.1,990.5,1765.1,990.5z"/>
		
			<linearGradient id="SVGID_12_" gradientUnits="userSpaceOnUse" x1="1482.8999" y1="1562.3904" x2="1605.7568" y2="1562.3904" gradientTransform="matrix(0.9679 0.4052 -0.1856 0.9554 538.0259 -1213.4828)">
			<stop  offset="0.2649" style="stop-color:#000000"/>
			<stop  offset="0.452" style="stop-color:#0D0C0C"/>
			<stop  offset="0.7605" style="stop-color:#1D1A1B"/>
			<stop  offset="1" style="stop-color:#231F20"/>
		</linearGradient>
		<path class="st12" d="M1783.4,932.6c5-49.7,30.9-77.1,30.9-77.1s2.7,0.6-14.9-6.5c-17.6-7.1-79.2-30.3-79.2-30.3s-14.3,3-16.6,5.8
			s-19.4,67.9-19.4,67.9s-11.4,50.6-12.2,62.7c0,0,79.7,31.8,93.1,35.4C1765.1,990.5,1780.8,958.2,1783.4,932.6z"/>
	</g>
	
		<linearGradient id="SVGID_13_" gradientUnits="userSpaceOnUse" x1="1503.0818" y1="1582.844" x2="1570.01" y2="1582.844" gradientTransform="matrix(0.9679 0.4052 -0.1856 0.9554 538.0259 -1213.4828)">
		<stop  offset="0.2649" style="stop-color:#000000"/>
		<stop  offset="0.452" style="stop-color:#0D0C0C"/>
		<stop  offset="0.7605" style="stop-color:#1D1A1B"/>
		<stop  offset="1" style="stop-color:#231F20"/>
	</linearGradient>
	<path class="st13" d="M1763.6,930.2c-1.8,9.5-6.5,15.9-34.6,4.2c-31.2-13.1-29.7-20.8-27.9-30.3c0.1-0.3,0.2-0.7,0.3-1
		c0.1-0.5,0.3-0.9,0.5-1.3c2.8-2.5,16.3,0.3,32.1,6.9c15.7,6.6,28.2,14.7,29.7,19c0,0.5,0,1,0,1.5
		C1763.7,929.5,1763.7,929.8,1763.6,930.2z"/>
	
		<linearGradient id="SVGID_14_" gradientUnits="userSpaceOnUse" x1="1494.5647" y1="1579.2799" x2="1578.5271" y2="1579.2799" gradientTransform="matrix(0.9679 0.4052 -0.1856 0.9554 538.0259 -1213.4828)">
		<stop  offset="0.2649" style="stop-color:#000000"/>
		<stop  offset="0.452" style="stop-color:#0D0C0C"/>
		<stop  offset="0.7605" style="stop-color:#1D1A1B"/>
		<stop  offset="1" style="stop-color:#231F20"/>
	</linearGradient>
	<path class="st14" d="M1772.5,930.2c-1.8,9.5-21,9.8-42.8,0.7c-21.8-9.1-38-24.2-36.1-33.7c0.1-0.3,0.2-0.7,0.3-1
		c0.2-0.5,0.4-0.9,0.6-1.3c3.4-2.3,20.3,2,40.2,10.3c19.9,8.3,35.8,17.8,37.9,22.4c0.1,0.5,0.1,1.1,0.1,1.6
		C1772.6,929.5,1772.6,929.9,1772.5,930.2z"/>
	
		<linearGradient id="SVGID_15_" gradientUnits="userSpaceOnUse" x1="1494.5647" y1="1573.2034" x2="1578.5271" y2="1573.2034" gradientTransform="matrix(0.9679 0.4052 -0.1856 0.9554 538.0259 -1213.4828)">
		<stop  offset="0.2649" style="stop-color:#000000"/>
		<stop  offset="0.452" style="stop-color:#0D0C0C"/>
		<stop  offset="0.7605" style="stop-color:#1D1A1B"/>
		<stop  offset="1" style="stop-color:#231F20"/>
	</linearGradient>
	<path class="st15" d="M1772.8,928.8c0,0.1-0.1,0.3-0.2,0.4c-1.9,3.2-19.7-1-40.7-9.8c-21-8.8-37.6-18.9-38.1-23.1
		c0-0.2,0-0.3,0-0.4c0.1-0.3,0.3-0.6,0.6-0.8c3.4-2.3,20.3,2,40.2,10.3c19.9,8.3,35.8,17.8,37.9,22.4
		C1772.8,928,1772.9,928.4,1772.8,928.8z"/>
	<g>
		<path class="st16" d="M1719.7,877.5c-0.3,0.3-0.5,0.5-0.9,1.1c-1.8,2.6-3.9,4.2-6.6,4.9c-1.8,0.5-3.4,0.6-6.5,0.4
			c-0.3-1.3-0.5-1.7-1.3-3.2c2.9,0.5,4.8,0.5,6.8-0.1c1.9-0.6,3.1-1.5,4.6-3.4l-11-4.6c-1.5-0.6-2.1-0.8-2.9-1.1l0.5-2.5
			c0.8,0.5,1.3,0.7,2.9,1.4l10.7,4.5c1.4,0.6,1.9,0.7,2.6,0.9L1719.7,877.5z M1705.3,864.6c0.7,0.4,1.2,0.7,2.6,1.3l7.9,3.3
			c1.4,0.6,1.9,0.8,2.7,1l-0.5,2.6c-0.7-0.4-1.1-0.6-2.6-1.2l-8-3.3c-1.5-0.6-1.9-0.8-2.6-1L1705.3,864.6z"/>
		<path class="st16" d="M1720.1,878.3c1,0.5,1.4,0.7,3.6,1.7l12,5c2.2,0.9,2.7,1.1,3.7,1.4l-0.6,2.9c-0.9-0.5-1.1-0.6-3.7-1.6l-12-5
			c-2.5-1.1-2.8-1.2-3.7-1.4L1720.1,878.3z"/>
		<path class="st16" d="M1756.1,886.6c-0.3,0.3-0.4,0.4-1.1,1.2c-2,2.5-3.2,3.7-4.3,4.6c1.6,2.3,2.6,3.8,4.2,6.5l-2.6,1.2
			c-0.9-1.9-2-3.8-3.7-6.3c-1.2,0.8-2.6,1.5-4.2,2c-1.9,0.6-3.5,1-6,1.2c-0.4-1.3-0.7-1.8-1.6-3c2.7-0.1,4.5-0.4,6.5-1.2
			c1.3-0.4,2.3-1,3.4-1.6c-1.5-2.1-3.4-4.4-5.3-6.3l2.3-1c1.5,1.6,2.3,2.6,3.3,3.8c1.5,1.8,1.5,1.8,1.6,2c1.9-1.6,3.9-4,4.5-5.4
			L1756.1,886.6z"/>
		<path class="st16" d="M1755.7,900.7c2,0.7,4.8,1.2,7,1.3c3,0.1,5.5-0.7,7.7-2.3c1.3-0.9,2.1-1.8,3.1-3.2c0.7,1.3,1,1.8,2,3
			c-2.7,3-5.3,4.6-8.7,5.2c-2.6,0.5-5.6,0.3-9.2-0.5c-0.9-0.2-1-0.2-1.6-0.3L1755.7,900.7z M1760.1,888.6c2.4,2.7,3.6,4.2,5,6.5
			l-2.4,1.5c-1.5-2.5-3-4.7-4.9-6.7L1760.1,888.6z"/>
	</g>
	<path class="st17" d="M1708.2,900.8c0,0,8.2,1.1,11.4,4.4c3.3,3.4,10.5,4.3,10.5,4.3s6.7,0.4,9.7,4c3,3.6,10.6,4.6,10.6,4.6
		s4.2,0.1,7.3,3.1"/>
	<path class="st17" d="M1719.8,902.4c3.3,3.4,11.2,5,11.2,5s6.7,0.4,9.7,4c3,3.6,9.8,4.5,9.8,4.5"/>
	<path class="st17" d="M1706.2,902.9c0,0,9.7,1.2,12.9,4.6c3.3,3.4,10.5,4.3,10.5,4.3s6.7,0.4,9.7,4c3,3.6,10.6,4.6,10.6,4.6
		s6.5,1.5,9.7,4.5"/>
	<path class="st17" d="M1710.3,905.7c0,0,5.7,1.4,8.4,4c3.4,3.3,10.5,4.3,10.5,4.3s6.7,0.4,9.7,4c3,3.6,10.6,4.6,10.6,4.6
		s3.7,0.5,5.8,1.9"/>
	
		<linearGradient id="SVGID_16_" gradientUnits="userSpaceOnUse" x1="1505.3284" y1="1477.7545" x2="1589.9042" y2="1477.7545" gradientTransform="matrix(0.9842 0.3216 -0.1856 0.9554 509.3644 -1065.9244)">
		<stop  offset="0.2649" style="stop-color:#000000"/>
		<stop  offset="0.452" style="stop-color:#0D0C0C"/>
		<stop  offset="0.7605" style="stop-color:#1D1A1B"/>
		<stop  offset="1" style="stop-color:#231F20"/>
	</linearGradient>
	<line class="st18" x1="1718.4" y1="827.7" x2="1798.1" y2="859.7"/>
	
		<linearGradient id="SVGID_17_" gradientUnits="userSpaceOnUse" x1="1500.4622" y1="1482.6088" x2="1585.038" y2="1482.6088" gradientTransform="matrix(0.9842 0.3216 -0.1856 0.9554 509.3644 -1065.9244)">
		<stop  offset="0.2649" style="stop-color:#000000"/>
		<stop  offset="0.452" style="stop-color:#0D0C0C"/>
		<stop  offset="0.7605" style="stop-color:#1D1A1B"/>
		<stop  offset="1" style="stop-color:#231F20"/>
	</linearGradient>
	<line class="st19" x1="1712.7" y1="830.8" x2="1792.4" y2="862.8"/>
</g>
<g>
	<g>
		<path class="st20" d="M496.7,142.9v155.8h-45.2v-99.5l-62.1,76.1h-2.2l-62.1-76.1v99.5h-43.9V142.9h49.6l58.5,74.8l59-74.8H496.7z
			"/>
		<path class="st20" d="M693.9,264v34.7H527.6V142.9h163.8v34.7H572.4v25.6h98.2v33.2h-98.2V264H693.9z"/>
		<path class="st20" d="M895.8,269.3c-16.7,20.7-47.4,34.5-89,34.5c-63.9,0-103.5-30.3-103.5-83c0-52.8,39.6-83,103.5-83
			c38.5,0,66.3,13.6,82.6,28.7L856.2,191c-13.4-12-27.4-17.4-48.3-17.4c-37.8,0-58.5,16.7-58.5,47.2c0,30.7,21.4,47.4,59.2,47.4
			c19.1,0,34.3-3.8,45.2-13.8v-14h-51.6v-31.8h93.7V269.3z"/>
		<path class="st20" d="M1187.2,142.9v155.8H1142v-99.5l-62.1,76.1h-2.2l-62.1-76.1v99.5h-43.9V142.9h49.6l58.5,74.8l59-74.8H1187.2
			z"/>
		<path class="st20" d="M1346.8,268.9h-85.5l-14.7,29.8H1199l80.6-155.8h49.6l80.6,155.8h-48.3L1346.8,268.9z M1331,236.6
			l-26.9-55.2l-27.2,55.2H1331z"/>
		<path class="st20" d="M1550.1,243.1l39,20c-14.5,22.9-45.9,40.7-87.9,40.7c-58.8,0-98.4-30.5-98.4-83s39.6-83,100.2-83
			c40.3,0,71.5,18.3,85.5,40.5l-39.2,20c-10.2-16-26-23.6-47-23.6c-32.1,0-53.4,16.3-53.4,46.1c0,29.8,21.4,46.1,53.4,46.1
			C1523.2,266.9,1539.2,259.8,1550.1,243.1z"/>
	</g>
</g>
<g>
	<path class="st20" d="M546.6,445.9l29.3,15.1c-10.9,17.2-34.5,30.6-66.1,30.6c-44.2,0-73.9-22.9-73.9-62.4
		c0-39.5,29.8-62.4,75.3-62.4c30.3,0,53.7,13.7,64.2,30.4l-29.4,15.1c-7.7-12-19.6-17.7-35.3-17.7c-24.1,0-40.1,12.2-40.1,34.6
		c0,22.4,16.1,34.6,40.1,34.6C526.4,463.8,538.4,458.4,546.6,445.9z"/>
	<path class="st20" d="M580.7,429.2c0-39.6,29.9-62.4,76.3-62.4s76.4,22.7,76.4,62.4c0,39.6-30.1,62.4-76.4,62.4
		S580.7,468.8,580.7,429.2z M698.6,429.2c0-22.1-15.9-34.6-41.6-34.6c-25.6,0-41.6,12.5-41.6,34.6c0,22.1,15.9,34.6,41.6,34.6
		S698.6,451.2,698.6,429.2z"/>
	<path class="st20" d="M878.6,451.1c0,24.1-22.2,40.5-64.7,40.5c-30.1,0-55.4-8.2-73.8-22.9l17.9-21.1
		c13.9,11.7,33.1,18.2,56.5,18.2c20.1,0,30.1-3.7,30.1-11.4c0-7.5-9.4-10-33.4-12c-34.8-3-66.4-10.7-66.4-36.8
		c0-25.1,27.1-38.8,64.2-38.8c25.1,0,48.2,6,64.2,17.4L856,405.4c-13-9.2-28.8-12.9-47-13c-13.7,0-30.3,2.2-30.3,10.5
		c0,7.9,13.5,8.9,34.5,10.5C851.5,416.6,878.6,424.1,878.6,451.1z"/>
	<path class="st20" d="M1055.5,370.6v117.1h-33.9v-74.8l-46.7,57.2h-1.7l-46.7-57.2v74.8h-32.9V370.6h37.3l44,56.2l44.3-56.2H1055.5
		z"/>
	<path class="st20" d="M1072.1,429.2c0-39.6,29.9-62.4,76.3-62.4c46.3,0,76.4,22.7,76.4,62.4c0,39.6-30.1,62.4-76.4,62.4
		C1102,491.5,1072.1,468.8,1072.1,429.2z M1190,429.2c0-22.1-15.9-34.6-41.6-34.6c-25.6,0-41.6,12.5-41.6,34.6
		c0,22.1,15.9,34.6,41.6,34.6C1174.1,463.8,1190,451.2,1190,429.2z"/>
	<path class="st20" d="M1274.1,388.8c0,12.4-8.2,30.1-26.1,40.5l-6.7-9.4c8.4-6.2,14-12.2,16.2-20.1c-0.7,0.8-2.2,1.2-4.7,1.2
		c-9.7,0-17.6-7-17.6-16.7c0-9.2,7.9-16.6,18.7-16.6C1266.4,367.8,1274.1,377.5,1274.1,388.8z"/>
	<path class="st20" d="M1420.1,451.1c0,24.1-22.2,40.5-64.7,40.5c-30.1,0-55.4-8.2-73.8-22.9l17.9-21.1
		c13.9,11.7,33.1,18.2,56.5,18.2c20.1,0,30.1-3.7,30.1-11.4c0-7.5-9.4-10-33.4-12c-34.8-3-66.4-10.7-66.4-36.8
		c0-25.1,27.1-38.8,64.2-38.8c25.1,0,48.2,6,64.2,17.4l-17.2,21.2c-13-9.2-28.8-12.9-47-13c-13.7,0-30.3,2.2-30.3,10.5
		c0,7.9,13.5,8.9,34.5,10.5C1393,416.6,1420.1,424.1,1420.1,451.1z"/>
	<path class="st20" d="M569.7,519V636h-33.9v-74.8l-46.7,57.2h-1.7l-46.7-57.2V636h-32.9V519h37.3l44,56.2l44.3-56.2H569.7z"/>
	<path class="st20" d="M592.9,636V519h34.1V636H592.9z"/>
	<path class="st20" d="M789.4,577.5c0,36.8-28.6,58.5-73.6,58.5h-65.4V519h65.4C760.8,519,789.4,540.7,789.4,577.5z M754.7,577.5
		c0-20.7-16.4-31.4-41.5-31.4h-28.6v62.9h28.6C738.3,608.9,754.7,598.2,754.7,577.5z"/>
	<path class="st20" d="M944.5,519V636h-29.9l-75.6-76.9V636H806V519h36.1l69.4,71.6V519H944.5z"/>
	<path class="st20" d="M967.7,636V519h34.1V636H967.7z"/>
	<path class="st20" d="M1163.2,613.9c-12.5,15.6-35.6,25.9-66.9,25.9c-48,0-77.8-22.7-77.8-62.4c0-39.6,29.8-62.4,77.8-62.4
		c28.9,0,49.8,10.2,62,21.6l-24.9,18.4c-10-9-20.6-13-36.3-13c-28.4,0-44,12.5-44,35.5c0,23.1,16.1,35.6,44.5,35.6
		c14.4,0,25.8-2.8,33.9-10.4v-10.5h-38.8v-23.9h70.4V613.9z"/>
	<path class="st20" d="M1319.2,519V636h-34.1v-45.3h-70.2V636h-34.1V519h34.1v43.6h70.2V519H1319.2z"/>
	<path class="st20" d="M1462.5,546.2h-48.7V636h-34.1v-89.8h-48.3V519h131.1V546.2z"/>
</g>
<g>
	<path class="st20" d="M545.1,764.3h-44.9l-7.7,15.7h-25l42.3-81.8h26l42.3,81.8h-25.3L545.1,764.3z M536.8,747.4l-14.1-29l-14.2,29
		H536.8z"/>
	<path class="st20" d="M663.1,760.8V780h-78.8v-81.8H608v62.6H663.1z"/>
	<path class="st20" d="M759,761.7V780h-87.3v-81.8h86v18.2h-62.5v13.4h51.5v17.4h-51.5v14.5H759z"/>
	<path class="st20" d="M824.9,738.2l37.1,41.8h-28.6l-23-26l-23,26h-27.1l37-41.5l-36.2-40.3h28.6l22.2,25l22.1-25h27.2L824.9,738.2
		z"/>
	<path class="st20" d="M974.6,760.8V780h-78.8v-81.8h23.8v62.6H974.6z"/>
	<path class="st20" d="M1050.7,764.3h-44.9l-7.7,15.7h-25l42.3-81.8h26l42.3,81.8h-25.3L1050.7,764.3z M1042.4,747.4l-14.1-29
		l-14.2,29H1042.4z"/>
	<path class="st20" d="M1186.6,698.2V780h-23.8v-31.7h-49.1V780h-23.8v-81.8h23.8v30.5h49.1v-30.5H1186.6z"/>
	<path class="st20" d="M1290.1,761.7V780h-87.3v-81.8h86v18.2h-62.5v13.4h51.5v17.4h-51.5v14.5H1290.1z"/>
	<path class="st20" d="M1318.1,698.2l23.8,35.3l23.7-35.3h26.5l-38.4,54.2V780h-23.8v-27.6l-38.4-54.2H1318.1z"/>
</g>
<g>
	<path class="st20" d="M796.2,879.3c0,10.5-9.4,16.6-24.3,16.6h-46.7v-60.5h43.3c14.9,0,24.3,6,24.3,15.6c0,6.8-4.8,12.8-13.8,13.3
		C788.4,864.9,796.2,870,796.2,879.3z M742.7,859.5h22.9c5.9,0,9.8-1.3,9.8-6c0-4.6-3.9-5.9-9.8-5.9h-22.9V859.5z M778.2,877.2
		c0-4.9-3.7-6.3-9.9-6.3h-25.6v12.7h25.6C774.4,883.6,778.2,882.1,778.2,877.2z"/>
	<path class="st20" d="M852,884.3h-33.2l-5.7,11.6h-18.5l31.3-60.5h19.3l31.3,60.5h-18.7L852,884.3z M845.9,871.8l-10.5-21.4
		l-10.5,21.4H845.9z"/>
	<path class="st20" d="M952.5,835.4v60.5H937l-39-39.7v39.7h-17v-60.5h18.7l35.8,37v-37H952.5z"/>
	<path class="st20" d="M1036.3,865.6c0,19-14.8,30.2-38,30.2h-33.8v-60.5h33.8C1021.5,835.4,1036.3,846.6,1036.3,865.6z
		 M1018.3,865.6c0-10.7-8.5-16.2-21.4-16.2h-14.8v32.5h14.8C1009.8,881.9,1018.3,876.3,1018.3,865.6z"/>
	<path class="st20" d="M1132.8,884.1h-11.7v11.7h-17.1v-11.7h-44.6v-9.8l46-38.9h15.7v36.1h11.7V884.1z M1104.2,871.5v-19.6
		l-23.1,19.6H1104.2z"/>
</g>
<g>
	<path class="st20" d="M818.9,964.6c0,8.7-7.9,13.9-20.3,13.9h-39.1v-50.6h36.2c12.4,0,20.3,5,20.3,13.1c0,5.7-4,10.7-11.6,11.1
		C812.4,952.6,818.9,956.8,818.9,964.6z M774.1,948.1h19.2c4.9,0,8.2-1.1,8.2-5c0-3.8-3.3-4.9-8.2-4.9h-19.2V948.1z M803.8,962.9
		c0-4.1-3.1-5.3-8.3-5.3h-21.4v10.6h21.4C800.7,968.2,803.8,967,803.8,962.9z"/>
	<path class="st20" d="M865.6,968.8h-27.8l-4.8,9.7h-15.5l26.2-50.6h16.1l26.2,50.6h-15.7L865.6,968.8z M860.5,958.3l-8.7-17.9
		l-8.8,17.9H860.5z"/>
	<path class="st20" d="M949.7,927.9v50.6h-12.9l-32.7-33.2v33.2h-14.2v-50.6h15.6l30,30.9v-30.9H949.7z"/>
	<path class="st20" d="M1019.8,953.2c0,15.9-12.4,25.3-31.8,25.3h-28.3v-50.6H988C1007.4,927.9,1019.8,937.3,1019.8,953.2z
		 M1004.8,953.2c0-9-7.1-13.6-17.9-13.6h-12.4v27.2h12.4C997.7,966.8,1004.8,962.1,1004.8,953.2z"/>
	<path class="st20" d="M1069.1,968.6c7.7,0,12.9-1.6,12.9-6.4c0-4.8-5.3-6.7-13.4-6.7c-4.9,0-10.3,0.9-15.5,3.1l-10.6-4l4.3-26.7h45
		v10.9h-33.9l-1.7,10.9c5.1-3.1,11.1-4.7,17.9-4.7c11.5,0,23,5.4,23,17.3c0,9.5-8.2,17.8-28,17.8c-12.2,0-21.8-3.7-28.9-9.8l7.8-8.7
		C1051.8,964.9,1059.5,968.6,1069.1,968.6z"/>
</g>
<g>
	<g>
		<g>
			<path class="st21" d="M1671.6,747c0.4,1,0.5,2.1,0.2,3.1c-2.2,7.2-14.9,16.6-29.9,22.2c-8.1,3-16.5,4.8-23.5,5.2
				c-5.9,0.3-10.9-0.4-13.8-2.2c-0.9-0.6-1.5-1.5-1.9-2.5l-24.3-62.9c-0.6-1.5-0.4-3.2,0.5-4.5c2.7-3.7,3.5-8.2,2-12.2
				c-1.4-3.7-4.5-6.2-8.3-7.5c-2.5-0.8-4.6-2.9-5.6-5.5l-16.3-42.1c0.1-0.4,0.2-0.8,0.3-1.3c1.4-5,4.3-9.9,8.4-14.2
				c1.1-1.2,1.3-3.1,0.7-4.8l-1.7-4.3c-0.8-2.1-0.3-4.3,1.1-5.6l0.2,0.4c2.9,2.5,11.3,2,19.5-1.1l0.3-0.1c8.1-3.1,14.6-8.2,15-11.9
				l-0.1-0.2c1.6,0.2,3.2,1.4,3.9,3.3l1.9,5c0.7,1.7,2.1,2.9,3.7,3.1c5.5,0.7,10.4,2.4,14.5,5c0.4,0.2,0.8,0.5,1.1,0.7l19.1,49.4
				c0.4,1.1,0.5,2.4,0.1,3.4c-1.2,3.1-1.3,6.6,0,9.9c1.3,3.4,3.7,5.9,6.7,7.4c1,0.5,1.8,1.5,2.2,2.6L1671.6,747z"/>
			<path class="st22" d="M1672,748.9l-4.3,7.7l-15.1,11l-21.6,9l-16.5,1.1l-11.1-3.6l-25.4-65.2l4.4-10.6l-2.9-7.5l-9.4-5.2
				l-12.4-32.7l67.1-24.3c0,0,3.7,9.3,4.7,9.8c1,0.5,8,24.4,8,24.4l-1.1,5.4c0,0,3.6,9.2,3.9,9.6c0.2,0.4,6.6,5.8,6.6,5.8
				L1672,748.9z"/>
			
				<ellipse transform="matrix(0.9379 -0.3468 0.3468 0.9379 -123.4424 591.5076)" class="st23" cx="1591.1" cy="640.7" rx="35.7" ry="10.6"/>
			<path class="st24" d="M1571,685.1c0,0,33.4,3.1,67.6-23.5"/>
			<path class="st24" d="M1577.9,708.8c0,0,37,5.1,69.9-23.4"/>
			<path class="st25" d="M1671.6,747c0.4,1,0.5,2.1,0.2,3.1c-2.2,7.2-14.9,16.6-29.9,22.2c-8.1,3-16.5,4.8-23.5,5.2
				c-5.9,0.3-10.9-0.4-13.8-2.2c-0.9-0.6-1.5-1.5-1.9-2.5l-24.3-62.9c-0.6-1.5-0.4-3.2,0.5-4.5c2.7-3.7,3.5-8.2,2-12.2
				c-1.4-3.7-4.5-6.2-8.3-7.5c-2.5-0.8-4.6-2.9-5.6-5.5l-16.3-42.1c0.1-0.4,0.2-0.8,0.3-1.3c1.4-5,4.3-9.9,8.4-14.2
				c1.1-1.2,1.3-3.1,0.7-4.8l-1.7-4.3c-0.8-2.1-0.3-4.3,1.1-5.6l0.2,0.4c2.9,2.5,11.3,2,19.5-1.1l0.3-0.1c8.1-3.1,14.6-8.2,15-11.9
				l-0.1-0.2c1.6,0.2,3.2,1.4,3.9,3.3l1.9,5c0.7,1.7,2.1,2.9,3.7,3.1c5.5,0.7,10.4,2.4,14.5,5c0.4,0.2,0.8,0.5,1.1,0.7l19.1,49.4
				c0.4,1.1,0.5,2.4,0.1,3.4c-1.2,3.1-1.3,6.6,0,9.9c1.3,3.4,3.7,5.9,6.7,7.4c1,0.5,1.8,1.5,2.2,2.6L1671.6,747z"/>
			<path class="st21" d="M1594.4,595.1l0.1,0.2c-0.4,3.7-6.9,8.8-15,11.9l-0.3,0.1c-8.3,3.1-16.7,3.6-19.5,1.1l-0.2-0.4l-5.1-13.2
				l0.1,0c2,2.9,10.4,2.5,19.5-0.9c9.1-3.4,15.6-8.7,15.2-12.1l0.1,0L1594.4,595.1z"/>
			<path class="st21" d="M1588.9,581.1c0.1,0.2,0.1,0.4,0.1,0.6c0.4,3.4-6.1,8.7-15.2,12.1c-9.1,3.4-17.5,3.8-19.5,0.9
				c-0.1-0.1-0.2-0.3-0.3-0.5c-1.3-3.4,5.4-9,15.1-12.6C1578.8,577.9,1587.6,577.7,1588.9,581.1z"/>
			<polyline class="st26" points="1562.3,596.5 1562.3,596.5 1567.2,609.3 			"/>
			<polyline class="st26" points="1568.7,595.7 1568.7,595.7 1573.6,608.5 			"/>
			<polyline class="st26" points="1574.5,593.5 1574.5,593.5 1579.4,606.3 			"/>
			<polyline class="st26" points="1580.3,591.3 1580.3,591.3 1585.3,604.1 			"/>
			<polyline class="st26" points="1585.9,588.5 1585.9,588.5 1590.9,601.3 			"/>
		</g>
		<g>
			<defs>
				<path id="SVGID_18_" d="M1569.2,581.5c0,0,16.1,0,5.2,11.4l5.4,14.1c0,0,8.3,3.4,8.8,5.7c0.5,2.3,18.9,5.4,21.3,11.7
					c2.4,6.3,17.2,45.3,17.2,45.3s-1.6,10.5,9.6,23.2l26,68.2l9.3-12.1l-25.2-65.5l-8-8.5l-0.1-11.4l-19.8-54c0,0-16.9-3.7-17.5-4.4
					c-0.6-0.7-6.5-11.3-6.5-11.3l-7.4-15.8L1569.2,581.5z"/>
			</defs>
			<clipPath id="SVGID_19_">
				<use xlink:href="#SVGID_18_"  style="overflow:visible;"/>
			</clipPath>
			<g class="st27">
				<path class="st21" d="M1638.7,675c1.3,3.3,3.7,5.9,6.7,7.4c1,0.5,1.8,1.5,2.2,2.6l24,62c0.4,1,0.5,2.1,0.2,3.1
					c-2.2,7.2-14.9,16.6-29.9,22.2c-8.1,3-16.4,4.8-23.4,5.2c-5.9,0.3-10.9-0.4-13.9-2.2c-0.9-0.5-1.5-1.4-1.9-2.4l-24.3-62.9
					c-0.6-1.6-0.4-3.3,0.5-4.5c2.7-3.7,3.5-8.2,2-12.2c-1.4-3.6-4.5-6.2-8.3-7.5c-2.5-0.8-4.6-2.9-5.6-5.5l-16.3-42.1
					c0.1-0.4,0.2-0.8,0.3-1.3c1.4-5,4.3-9.9,8.3-14.2c1.1-1.2,1.3-3.1,0.7-4.8l-1.6-4.3c-1-2.6,0-5.5,2.4-6.3l13.9-9.9
					c0.5-0.4,1.1-0.6,1.8-0.7l16-1.4c2.3-0.8,4.9,0.5,5.9,3.1l1.9,5c0.6,1.7,2.1,2.9,3.7,3.1c5.5,0.7,10.4,2.4,14.5,5
					c0.4,0.2,0.7,0.5,1.1,0.7l19.1,49.4c0.4,1.1,0.5,2.4,0.1,3.4C1637.5,668.1,1637.4,671.6,1638.7,675z"/>
				<path class="st6" d="M1557.5,652.8l10.6,29.8l10.4,7l2.8,10.2l-4.1,10.2l25.4,62.8c0,0,12.7,11.9,39.2-0.5
					c26.6-12.4,29.7-25.3,29.7-25.3l-24-62l-8.9-10l-0.1-11.4l-13.9-35L1557.5,652.8z"/>
				
					<ellipse transform="matrix(0.9379 -0.3468 0.3468 0.9379 -123.4424 591.5076)" class="st22" cx="1591.1" cy="640.7" rx="35.7" ry="10.6"/>
				<path class="st28" d="M1571,685.1c0,0,33.4,3.1,67.6-23.5"/>
				<path class="st28" d="M1577.9,708.8c0,0,37,5.1,69.9-23.4"/>
				<path class="st25" d="M1638.7,675c1.3,3.3,3.7,5.9,6.7,7.4c1,0.5,1.8,1.5,2.2,2.6l24,62c0.4,1,0.5,2.1,0.2,3.1
					c-2.2,7.2-14.9,16.6-29.9,22.2c-8.1,3-16.4,4.8-23.4,5.2c-5.9,0.3-10.9-0.4-13.9-2.2c-0.9-0.5-1.5-1.4-1.9-2.4l-24.3-62.9
					c-0.6-1.6-0.4-3.3,0.5-4.5c2.7-3.7,3.5-8.2,2-12.2c-1.4-3.6-4.5-6.2-8.3-7.5c-2.5-0.8-4.6-2.9-5.6-5.5l-16.3-42.1
					c0.1-0.4,0.2-0.8,0.3-1.3c1.4-5,4.3-9.9,8.3-14.2c1.1-1.2,1.3-3.1,0.7-4.8l-1.6-4.3c-1-2.6,0-5.5,2.4-6.3l13.9-9.9
					c0.5-0.4,1.1-0.6,1.8-0.7l16-1.4c2.3-0.8,4.9,0.5,5.9,3.1l1.9,5c0.6,1.7,2.1,2.9,3.7,3.1c5.5,0.7,10.4,2.4,14.5,5
					c0.4,0.2,0.7,0.5,1.1,0.7l19.1,49.4c0.4,1.1,0.5,2.4,0.1,3.4C1637.5,668.1,1637.4,671.6,1638.7,675z"/>
				<path class="st21" d="M1589.1,581.6l5.3,13.7l0,0c-0.5,3.7-7,8.9-15.3,12c-8.3,3.1-16.7,3.6-19.5,1.1l0,0l-5.3-13.7
					L1589.1,581.6z"/>
				
					<ellipse transform="matrix(0.9369 -0.3496 0.3496 0.9369 -106.2673 586.4709)" class="st21" cx="1571.5" cy="587.6" rx="18.6" ry="6.6"/>
				<polyline class="st26" points="1562.3,596.5 1562.3,596.5 1567.2,609.3 				"/>
				<polyline class="st26" points="1568.7,595.7 1568.7,595.7 1573.6,608.5 				"/>
				<polyline class="st26" points="1574.5,593.5 1574.5,593.5 1579.4,606.3 				"/>
				<polyline class="st26" points="1580.3,591.3 1580.3,591.3 1585.3,604.1 				"/>
				<polyline class="st26" points="1585.9,588.5 1585.9,588.5 1590.9,601.3 				"/>
			</g>
		</g>
	</g>
	<path class="st29" d="M1560.2,635.3l16.4,42.9c0,0,2.4,1.7,6.7-0.8l-16.2-42.7C1567,634.8,1565.9,631.1,1560.2,635.3z"/>
	<path class="st29" d="M1595.4,721l17.4,45.7c0,0,2.5,1.9,6.7-0.7l-17.3-45.4C1602.2,720.6,1601.1,716.7,1595.4,721z"/>
</g>
<g>
	<g>
		<g>
			<path class="st30" d="M182,267.9c0,0-6.4,25.7-11.1,38.7c-4.8,13-11,38.1-11,38.1l-99.4-20.6c0,0,3-7.4,5.2-10.6
				c2.2-3.3,11.2-37.8,15.5-52.9c4.4-15.1,9.5-84.2,9.5-84.2s5.1-4.3,42.8,3.1c37.7,7.4,61.8,16,61.8,16s-15.4,25.5-13.9,35.1
				C182.7,240.3,182,267.9,182,267.9z"/>
			<path class="st30" d="M182.3,307c-5.4,17.8-22.5,37.7-22.5,37.7s6.3-25.2,11-38.1c4.7-13,11.1-38.7,11.1-38.7s0.8-27.7-0.7-37.3
				c-1.5-9.6,13.9-35.1,13.9-35.1l-0.1,0.6c-0.4,3.8-2.4,24.7-4.3,38.5c-1.6,12.4,2,22.1,4.1,35.7
				C195.4,273.9,187.7,289.3,182.3,307z"/>
			<path class="st30" d="M195.1,196.1l0.1-0.6C195.2,195.5,195.2,195.7,195.1,196.1z"/>
			<g>
				<g>
					<path class="st31" d="M112.1,250.5c-18.3,5.9-29.9,22.9-15.4,35.4c16.3,14,27.9,3.4,41.1-13.5
						C149.2,257.7,128.3,245.3,112.1,250.5z"/>
					<g>
						<path class="st32" d="M90.7,270.5c8.5-8.8,9.9-13.8,25.1-21.1"/>
						<path class="st32" d="M91.6,277.3c13.1-10.9,11.8-18.2,32.6-27.4"/>
						<path class="st32" d="M94.5,282.5c17.7-11.8,13.7-20.6,37.7-31.1"/>
						<path class="st32" d="M98.6,286.6c20.5-11.4,16-20.5,37.7-31.6"/>
						<path class="st32" d="M102.9,289.8c21.8-10.6,18.2-19.2,36.2-30.6"/>
						<path class="st32" d="M107.6,292.6c21.5-9.3,19.9-16.7,33.4-27.8"/>
					</g>
				</g>
				<g>
					<path class="st31" d="M153.3,241.4c10.8,8,13.8,17.7,3.4,26.1c-9.2,7.4-14.5-2.8-18.5-13.9C134.3,243,145.3,235.4,153.3,241.4z
						"/>
					<g>
						<path class="st32" d="M138.3,246.7c4.8,9,5.6,13.1,13.2,22.8"/>
						<path class="st32" d="M141.2,242.2c6.6,10.3,6.8,14.8,14.1,25.2"/>
						<path class="st32" d="M145.1,239.7c8,10.6,8.2,15.1,14.3,25.3"/>
						<path class="st32" d="M150.4,239.7c7,8.9,8,12.7,12.2,20.9"/>
					</g>
				</g>
				<g>
					<path class="st31" d="M144.7,275.6c-6.6-1.4-13.5,2-11.1,8.3c2.8,7.3,8.2,5.9,15.4,3C155.3,284.3,150.7,276.9,144.7,275.6z"/>
					<g>
						<path class="st32" d="M134,281.8c0,0,5.2-3.4,14.2-4.6"/>
						<path class="st32" d="M135,284.7c0,0,6.7-3.5,15.7-4.8"/>
						<path class="st32" d="M136.4,287.8c0,0,6.1-3.5,15.2-4.8"/>
					</g>
				</g>
			</g>
		</g>
		<g>
			<defs>
				<path id="SVGID_20_" d="M133.4,179.5c0,0,34.6,13.7,33.3,38.7s3.2,34.6,1.8,48.9c-1.4,14.3-21.8,75-21.8,75l13,2.7l18.5-27.9
					l16.5-46.6l-4.5-28.9l4.8-45.9L133.4,179.5z"/>
			</defs>
			<clipPath id="SVGID_21_">
				<use xlink:href="#SVGID_20_"  style="overflow:visible;"/>
			</clipPath>
			<g class="st33">
				<path class="st30" d="M195.2,195.5L195.2,195.5c0,0-24.1-8.6-61.8-16s-42.8-3.1-42.8-3.1s-5.1,69.1-9.5,84.3
					s-13.3,49.6-15.5,52.9c-2.2,3.3-5.1,10.6-5.1,10.6l99.4,20.7l26.2-68.4L195.2,195.5z"/>
				<path class="st30" d="M195.2,195.5c0,0-15.4,25.5-13.9,35.1c1.4,9.7,0.7,37.3,0.7,37.3s-6.4,25.7-11.1,38.7s-11,38.1-11,38.1
					s17.1-20,22.5-37.7c5.4-17.8,13.1-33.1,12.6-36.7c-2.1-13.7-5.7-23.4-4.1-35.7C192.9,219.4,195.2,195.5,195.2,195.5z"/>
				<g>
					<g>
						<path class="st34" d="M112.1,250.5c-18.3,5.9-29.9,22.9-15.4,35.4c16.3,14,27.9,3.4,41.1-13.5
							C149.2,257.7,128.3,245.3,112.1,250.5z"/>
						<path class="st34" d="M153.3,241.4c10.8,8,13.8,17.7,3.4,26.1c-9.2,7.4-14.5-2.8-18.5-13.9C134.3,243,145.3,235.4,153.3,241.4
							z"/>
						<path class="st34" d="M144.7,275.6c-6.6-1.4-13.5,2-11.1,8.3c2.8,7.3,8.2,5.9,15.4,3C155.3,284.3,150.7,276.9,144.7,275.6z"/>
						<g>
							<path class="st32" d="M90.7,270.5c8.5-8.8,9.9-13.8,25.1-21.1"/>
							<path class="st32" d="M91.6,277.3c13.1-10.9,11.8-18.2,32.6-27.4"/>
							<path class="st32" d="M94.5,282.5c17.7-11.8,13.7-20.6,37.7-31.1"/>
							<path class="st32" d="M98.6,286.6c20.5-11.4,16-20.5,37.7-31.6"/>
							<path class="st32" d="M102.9,289.8c21.8-10.6,18.2-19.2,36.2-30.6"/>
							<path class="st32" d="M107.6,292.6c21.5-9.3,19.9-16.7,33.4-27.8"/>
						</g>
					</g>
					<g>
						<path class="st32" d="M138.3,246.7c4.8,9,5.6,13.1,13.2,22.8"/>
						<path class="st32" d="M141.2,242.2c6.6,10.3,6.8,14.8,14.1,25.2"/>
						<path class="st32" d="M145.1,239.7c8,10.6,8.2,15.1,14.3,25.3"/>
						<path class="st32" d="M150.4,239.7c7,8.9,8,12.7,12.2,20.9"/>
					</g>
					<path class="st32" d="M134,281.8c0,0,5.2-3.4,14.2-4.6"/>
					<path class="st32" d="M135,284.7c0,0,6.7-3.5,15.7-4.8"/>
					<path class="st32" d="M136.4,287.8c0,0,6.1-3.5,15.2-4.8"/>
				</g>
			</g>
		</g>
	</g>
	<path class="st29" d="M95.7,236.2c2.9-5.1,8.8-18.1,8.8-18.1l-3.7-25.6L100,217L95.7,236.2z"/>
	<path class="st29" d="M75.8,315c2.1-2.3,6.5-8.3,6.5-8.3l0.9-13.5L80,305.7L75.8,315z"/>
</g>
<g>
	<g>
		<g>
			<path class="st35" d="M1865.6,237.7c0,0-9,26.6-15.1,39.9c-6.2,13.3-15,39.4-15,39.4l-103.3-30.5c0,0,3.8-7.5,6.4-10.8
				c2.6-3.3,15.1-39,21-54.6c5.9-15.6,17.4-88.2,17.4-88.2s5.7-4.1,44.9,7c39.2,11.1,64,22.3,64,22.3s-18.5,25.6-17.8,35.9
				C1868.9,208.5,1865.6,237.7,1865.6,237.7z"/>
			<path class="st35" d="M1862.6,279.1c-7.2,18.3-27,37.9-27,37.9s8.8-26.1,15-39.4c6.1-13.3,15.1-39.9,15.1-39.9s3.2-29.2,2.5-39.5
				c-0.7-10.3,17.8-35.9,17.8-35.9l-0.1,0.6c-0.7,4-4.7,25.9-7.9,40.3c-2.8,12.9,0.2,23.5,1.2,38.1
				C1879.4,245.2,1869.8,260.7,1862.6,279.1z"/>
			<path class="st35" d="M1885.8,162.9l0.1-0.6C1885.9,162.3,1885.9,162.5,1885.8,162.9z"/>
			<g>
				
					<linearGradient id="SVGID_22_" gradientUnits="userSpaceOnUse" x1="1470.5387" y1="371.9107" x2="1510.5277" y2="375.3073" gradientTransform="matrix(0.9805 0.1965 -0.1965 0.9805 409.4932 -415.9489)">
					<stop  offset="0.2649" style="stop-color:#000000"/>
					<stop  offset="0.452" style="stop-color:#0D0C0C"/>
					<stop  offset="0.7605" style="stop-color:#1D1A1B"/>
					<stop  offset="1" style="stop-color:#231F20"/>
				</linearGradient>
				<polygon class="st36" points="1792.6,222.4 1774.3,255.6 1815.7,246.8 				"/>
				
					<linearGradient id="SVGID_23_" gradientUnits="userSpaceOnUse" x1="-360.1871" y1="356.4466" x2="-330.7074" y2="358.9505" gradientTransform="matrix(-0.6997 -0.1402 -0.1965 0.9805 1651.8184 -166.9644)">
					<stop  offset="0.2649" style="stop-color:#000000"/>
					<stop  offset="0.452" style="stop-color:#0D0C0C"/>
					<stop  offset="0.7605" style="stop-color:#1D1A1B"/>
					<stop  offset="1" style="stop-color:#231F20"/>
				</linearGradient>
				<polygon class="st37" points="1830.5,219.4 1831.2,246 1814,230.2 				"/>
				
					<linearGradient id="SVGID_24_" gradientUnits="userSpaceOnUse" x1="1742.3281" y1="-634.6044" x2="1771.8077" y2="-632.1004" gradientTransform="matrix(0.3857 0.3313 -0.3184 0.3707 937.1522 -87.3694)">
					<stop  offset="0.2649" style="stop-color:#000000"/>
					<stop  offset="0.452" style="stop-color:#0D0C0C"/>
					<stop  offset="0.7605" style="stop-color:#1D1A1B"/>
					<stop  offset="1" style="stop-color:#231F20"/>
				</linearGradient>
				<polygon class="st38" points="1818.4,252.5 1807,259.4 1821.6,264.2 				"/>
			</g>
			<path class="st39" d="M1791.3,232.1c0,0-1.7,2.8-1.1,2.6C1790.7,234.4,1791.3,232.1,1791.3,232.1z"/>
			<path class="st39" d="M1793.7,246.3c0,0-3-1.4-2.7-0.9C1791.4,246,1793.7,246.3,1793.7,246.3z"/>
			<path class="st39" d="M1823.3,231.1c0,0-3-1.4-2.7-0.9C1821,230.8,1823.3,231.1,1823.3,231.1z"/>
			<path class="st39" d="M1814,258.6c0,0,3.3-0.5,2.7-0.8S1814,258.6,1814,258.6z"/>
		</g>
		<g>
			<defs>
				<path id="SVGID_25_" d="M1822,140c0,0,35.4,17.5,31.9,43.8s0.4,36.9-2.3,51.8c-2.7,15-29.5,77.4-29.5,77.4l13.5,4l22-27.9
					l21.5-47.8l-2.2-31l9-48.1L1822,140z"/>
			</defs>
			<clipPath id="SVGID_26_">
				<use xlink:href="#SVGID_25_"  style="overflow:visible;"/>
			</clipPath>
			<g class="st40">
				<path class="st35" d="M1885.9,162.3L1885.9,162.3c0,0-24.7-11.1-63.9-22.3c-39.2-11.1-44.9-7-44.9-7s-11.5,72.6-17.4,88.2
					s-18.4,51.3-21,54.5c-2.6,3.3-6.4,10.8-6.4,10.8l103.3,30.5l33.7-70L1885.9,162.3z"/>
				<path class="st35" d="M1885.9,162.3c0,0-18.4,25.6-17.8,35.9c0.7,10.3-2.5,39.5-2.5,39.5s-9,26.6-15.1,39.9
					c-6.1,13.3-15,39.4-15,39.4s19.8-19.6,27-37.9c7.2-18.3,16.8-33.8,16.5-37.7c-1-14.7-4-25.2-1.2-38.1
					C1881.4,187.3,1885.9,162.3,1885.9,162.3z"/>
				<g>
					<g>
						<path class="st41" d="M1793.3,213.2c-19.8,4.6-33.6,21.6-19.3,36.1c16,16.2,29.2,6.1,44.6-10.7
							C1832,224,1810.9,209.1,1793.3,213.2z"/>
						<path class="st41" d="M1837.6,207.1c10.7,9.4,13.1,19.9,1.3,27.9c-10.3,7.1-15.1-4.2-18.4-16.3
							C1817.5,207.2,1829.7,200.1,1837.6,207.1z"/>
						<path class="st41" d="M1825.6,242.6c-6.9-2.1-14.5,0.9-12.4,7.8c2.3,7.9,8.1,7,16,4.5C1836,252.7,1831.8,244.5,1825.6,242.6z"
							/>
						<g>
							<path class="st42" d="M1769,232.4c9.7-8.6,11.7-13.8,28.4-20.2"/>
							<path class="st42" d="M1769.3,239.7c14.8-10.4,14.1-18.2,36.9-26.1"/>
							<path class="st42" d="M1771.9,245.5c19.7-11,16.3-20.6,42.5-29.6"/>
							<path class="st42" d="M1775.9,250.2c22.7-10.3,18.7-20.3,42.7-30.2"/>
							<path class="st42" d="M1780.2,253.9c23.9-9.3,20.9-18.7,40.9-29.2"/>
							<path class="st42" d="M1784.9,257.3c23.5-8,22.5-16,37.8-26.5"/>
						</g>
					</g>
					<g>
						<path class="st42" d="M1821.4,211.5c4.3,9.9,4.7,14.4,12,25.2"/>
						<path class="st42" d="M1824.8,207c6.1,11.5,5.9,16.2,12.7,27.9"/>
						<path class="st42" d="M1829.1,204.6c7.5,11.9,7.3,16.7,12.9,28"/>
						<path class="st42" d="M1834.8,205.1c6.6,10,7.3,14.1,11.1,23.2"/>
					</g>
					<path class="st42" d="M1813.8,248.1c0,0,5.8-3.1,15.4-3.7"/>
					<path class="st42" d="M1814.5,251.4c0,0,7.4-3.1,17-3.7"/>
					<path class="st42" d="M1815.8,254.7c0,0,6.8-3.2,16.4-3.8"/>
				</g>
			</g>
		</g>
	</g>
	<path class="st29" d="M1777.2,196.6c3.6-5.2,10.9-18.4,10.9-18.4l-1.7-27.4l-3,25.9L1777.2,196.6z"/>
	<path class="st29" d="M1749.3,278.2c2.4-2.3,7.6-8.2,7.6-8.2l2.1-14.2l-4.4,12.9L1749.3,278.2z"/>
</g>
<g>
	<g>
		<g>
			<polygon class="st43" points="354.5,597.4 321.7,701.3 305.3,705.9 339.6,598.7 			"/>
			<polygon class="st43" points="339.6,598.7 305.3,705.9 233.1,683.2 266,578.9 267,575.9 			"/>
			<polygon class="st43" points="339.6,598.7 267,575.9 293.6,551.1 345.3,565.7 340.7,592.1 			"/>
			<polygon class="st43" points="354.5,597.4 339.6,598.7 340.7,592.2 345.1,566.4 347.3,560.3 			"/>
			<polygon class="st43" points="347.3,560.3 346,566.7 293.4,551.8 297.1,546 			"/>
			<path class="st44" d="M310.7,621.7c-1.7-3.3-3.9-6.1-6.6-8.3l0.2-0.8c0.4-1.3-0.3-2.7-1.6-3.1l-11.4-3.6
				c-1.3-0.4-2.7,0.3-3.1,1.6l-0.1,0.4c-12.4,0.4-24.7,10.1-29.7,24.6c-3.3,9.6-2.8,19.7,1.2,27.7c3.2,6.2,8.3,10.7,14.6,12.7l0.1,0
				c14.7,4.6,31.6-6,37.6-23.5C315.2,639.8,314.7,629.7,310.7,621.7z M276.8,664.9L276.8,664.9c-4.2-1.3-7.6-4.3-9.7-8.6
				c-1.3-2.5-2-5.2-2.3-8.1l32,10.4C291,664.3,283.5,667,276.8,664.9z M270.4,627c4.4-6.2,10.6-10.2,16.9-10.8
				c0.2,0.1,0.4,0.2,0.6,0.3l11.2,3.5c1.6,1.4,3,3.2,4,5.4c1.9,3.8,2.8,8.3,2.5,13L270.4,627z"/>
		</g>
		<g>
			<defs>
				<polygon id="SVGID_27_" points="337.4,557.4 335.8,562.5 331.3,596.1 297.9,702.3 305.6,704.8 321.7,701.3 354.5,597.4 
					347.3,560.3 				"/>
			</defs>
			<clipPath id="SVGID_28_">
				<use xlink:href="#SVGID_27_"  style="overflow:visible;"/>
			</clipPath>
			<g class="st45">
				<polygon class="st43" points="266,578.9 282.1,570.4 354.5,597.4 321.7,701.3 305.3,705.9 				"/>
				<polygon class="st43" points="305.3,705.9 233.1,683.2 267,575.9 339.6,598.7 				"/>
				<polygon class="st43" points="267,575.9 293.4,551.7 345.1,566.4 339.6,598.7 				"/>
				<polygon class="st43" points="347.3,560.3 354.5,597.4 339.6,598.7 				"/>
				<polygon class="st43" points="293.4,551.7 297.1,546 347.3,560.3 345.1,566.4 				"/>
				<path class="st46" d="M310.7,621.7c-1.7-3.3-3.9-6.1-6.6-8.3l0.2-0.8c0.4-1.3-0.3-2.7-1.6-3.1l-11.4-3.6
					c-1.3-0.4-2.7,0.3-3.1,1.6l-0.1,0.4c-12.4,0.4-24.7,10.1-29.7,24.6c-3.3,9.6-2.8,19.7,1.2,27.7c3.2,6.2,8.3,10.7,14.6,12.7
					l0.1,0c14.7,4.6,31.6-6,37.6-23.5C315.2,639.8,314.7,629.7,310.7,621.7z M276.8,664.9L276.8,664.9c-4.2-1.3-7.6-4.3-9.7-8.6
					c-1.3-2.5-2-5.2-2.3-8.1l32,10.4C291,664.3,283.5,667,276.8,664.9z M270.4,627c4.4-6.2,10.6-10.2,16.9-10.8
					c0.2,0.1,0.4,0.2,0.6,0.3l11.2,3.5c1.6,1.4,3,3.2,4,5.4c1.9,3.8,2.8,8.3,2.5,13L270.4,627z"/>
			</g>
		</g>
	</g>
	<polygon class="st29" points="292.7,559.4 278.4,573.4 282.6,575.6 	"/>
	<path class="st6" d="M347.2,573.4c0,0-0.4,22.3,0.1,22.9c0.5,0.5,6.8-0.6,6.8-0.6l-4.4-23.1l-1.6-2.4L347.2,573.4z"/>
</g>
<g>
	<g>
		<g>
			<polygon class="st43" points="1662.7,330.6 1703.1,431.9 1693.3,445.9 1652,341.1 			"/>
			<polygon class="st43" points="1652,341.1 1693.3,445.9 1623.1,473.9 1582.5,372.3 1581.3,369.3 			"/>
			<polygon class="st43" points="1652,341.1 1581.3,369.3 1586.3,333.3 1635.6,311.9 1648.7,335.3 			"/>
			<polygon class="st43" points="1662.7,330.6 1652,341.1 1648.8,335.4 1635.9,312.6 1633.7,306.4 			"/>
			<polygon class="st43" points="1633.7,306.4 1636.8,312.2 1586.6,334 1585.8,327.2 			"/>
			<path class="st44" d="M1644.2,377.2c-3.4-1.5-6.9-2.3-10.4-2.3l-0.3-0.8c-0.5-1.3-2-1.9-3.2-1.4l-11.1,4.4
				c-1.3,0.5-1.9,2-1.4,3.2l0.2,0.4c-9.4,8.2-12.7,23.5-7.4,37.8c3.5,9.5,10.2,17,18.5,20.6c6.4,2.8,13.3,3,19.3,0.6l0.1,0
				c14.3-5.8,20.7-24.6,14.2-42C1659.1,388.3,1652.4,380.8,1644.2,377.2z M1645.3,432.1L1645.3,432.1c-4.1,1.6-8.6,1.5-12.9-0.5
				c-2.5-1.1-4.9-2.8-6.9-4.8l31.3-12.2C1655.9,422.7,1651.8,429.5,1645.3,432.1z M1616.4,406.7c-0.5-7.6,1.8-14.6,6.3-19
				c0.2,0,0.5-0.1,0.7-0.1l11-4.4c2.1,0.1,4.4,0.6,6.5,1.6c3.9,1.7,7.4,4.7,10.1,8.5L1616.4,406.7z"/>
		</g>
		<g>
			<defs>
				<polygon id="SVGID_29_" points="1624.3,310.5 1626.2,315.5 1644,344.3 1685.3,447.7 1692.8,444.7 1703.1,431.9 1662.7,330.7 
					1633.7,306.4 				"/>
			</defs>
			<clipPath id="SVGID_30_">
				<use xlink:href="#SVGID_29_"  style="overflow:visible;"/>
			</clipPath>
			<g class="st47">
				<polygon class="st43" points="1582.6,372.3 1589.6,355.5 1662.7,330.7 1703.1,431.9 1693.3,445.9 				"/>
				<polygon class="st43" points="1693.3,445.9 1623.1,473.9 1581.4,369.3 1652,341.1 				"/>
				<polygon class="st43" points="1581.4,369.3 1586.6,333.9 1635.9,312.6 1652,341.1 				"/>
				<polygon class="st43" points="1633.7,306.4 1662.7,330.7 1652,341.1 				"/>
				<polygon class="st43" points="1586.6,333.9 1585.8,327.2 1633.7,306.4 1635.9,312.6 				"/>
				<path class="st46" d="M1644.2,377.2c-3.4-1.5-6.9-2.3-10.4-2.3l-0.3-0.8c-0.5-1.3-2-1.9-3.2-1.4l-11.1,4.4
					c-1.3,0.5-1.9,2-1.4,3.2l0.2,0.4c-9.4,8.2-12.7,23.5-7.4,37.8c3.5,9.5,10.2,17,18.5,20.6c6.4,2.8,13.3,3,19.3,0.6l0.1,0
					c14.3-5.8,20.7-24.6,14.2-42C1659.1,388.3,1652.4,380.8,1644.2,377.2z M1645.3,432.1L1645.3,432.1c-4.1,1.6-8.6,1.5-12.9-0.5
					c-2.5-1.1-4.9-2.8-6.9-4.8l31.3-12.2C1655.9,422.7,1651.8,429.5,1645.3,432.1z M1616.4,406.7c-0.5-7.6,1.8-14.6,6.3-19
					c0.2,0,0.5-0.1,0.7-0.1l11-4.4c2.1,0.1,4.4,0.6,6.5,1.6c3.9,1.7,7.4,4.7,10.1,8.5L1616.4,406.7z"/>
			</g>
		</g>
	</g>
	<polygon class="st29" points="1590.9,340.3 1588.6,360.2 1593.3,359.3 	"/>
	<path class="st6" d="M1641.9,316.7c0,0,13.8,17.5,14.6,17.7c0.7,0.1,4.9-4.8,4.9-4.8l-18.1-15.1l-2.8-0.9L1641.9,316.7z"/>
</g>
<g>
	<g>
		<path class="st48" d="M142.6,444.5l23.9,90c0,0-0.5,1.6-2.4,4c-2.7,3.2-8.1,7.8-18.8,10.8c-10.9,3.1-18,1.5-22-0.4
			c-2.7-1.3-3.9-2.6-3.9-2.6l-23.9-90c1.4,5,13,6.4,25.9,3.1C134.5,456.4,144,449.6,142.6,444.5z"/>
		<path class="st49" d="M142.5,444.2c0.1,0.3,0.1,0.6,0.1,0.8c0,0.2,0,0.5,0,0.7c0,0,0,0.1,0,0.1c0,0.3-0.1,0.6-0.2,1
			c-1.5,4.8-9.9,10.1-20.9,12.9c-5.5,1.4-10.8,1.9-15.1,1.6c-5.4-0.3-9.3-1.9-10.6-4.4c-0.1-0.3-0.2-0.5-0.3-0.8
			c-1.4-5.3,8-12.2,21-15.5C129.4,437.2,141.1,438.9,142.5,444.2z"/>
		<g>
			<path class="st50" d="M111.2,450.2c0,0-10.9,3-10.7,4.8c0.2,2.1,6,1.8,14.7-0.4"/>
			<g>
				<g>
					<path class="st22" d="M111,450.1c0,0,11.6-7.6,14.2-5.9c2.6,1.7,3.8,5.4,2.9,6.1c-0.9,0.6-11.9,4.5-12.7,4.4
						C114.6,454.5,111,450.1,111,450.1z"/>
				</g>
			</g>
			<g>
				<g>
					<path class="st6" d="M122.6,446.1c0,0-2.7,0.5-2.7,1c0.1,0.5,1.8,3.5,3.1,3.1c0.3-0.1,0.6-0.2,0.9-0.3c1.3-0.6,2.1-2,1.4-3.1
						C125,446.3,124.2,445.9,122.6,446.1z"/>
				</g>
				<g>
					<g>
						<defs>
							<path id="SVGID_31_" d="M123.1,450.8c-0.4,0.1-0.8,0-1.3-0.2c-1.3-0.7-2.5-2.8-2.5-3.3c0-0.3-0.1-1,3.2-1.6l0,0
								c2-0.3,2.9,0.4,3.3,1c0.4,0.6,0.4,1.3,0.1,2.1c-0.3,0.8-1,1.4-1.8,1.7C123.8,450.6,123.5,450.7,123.1,450.8
								C123.1,450.8,123.1,450.8,123.1,450.8z M120.6,447.2c0.3,0.6,1.2,2.1,2,2.5c0.1,0.1,0.3,0.1,0.3,0.1c0,0,0,0,0,0
								c0.3-0.1,0.6-0.2,0.8-0.3c0.5-0.2,1-0.6,1.2-1.1c0.2-0.4,0.2-0.9-0.1-1.2c-0.1-0.2-0.5-0.8-2.2-0.6
								C121.8,446.8,120.9,447,120.6,447.2z"/>
						</defs>
						<clipPath id="SVGID_32_">
							<use xlink:href="#SVGID_31_"  style="overflow:visible;"/>
						</clipPath>
						<polygon class="st51" points="124.8,449.2 124,446.1 124.6,446 125.5,449.1 						"/>
						<polygon class="st51" points="124,446.1 124.8,449.2 121.4,450.2 120.5,447.2 						"/>
						<polygon class="st51" points="125.1,450.2 123.7,445 125.4,444.5 126.9,449.7 						"/>
						<polygon class="st51" points="119.8,449.3 119.1,446.3 123.7,445 125.1,450.2 120.5,451.5 						"/>
						<polygon class="st51" points="119.1,446.3 119.8,449.3 119,446.3 						"/>
					</g>
				</g>
			</g>
			<g>
				<g>
					<g>
						<defs>
							<path id="SVGID_33_" d="M116.5,454.9c-0.7,0.2-1.1,0.3-1.3,0.2c-0.8-0.2-3-2.6-4.7-4.7l-0.3-0.4l0.5-0.3
								c2-1.3,12.1-7.8,14.9-5.9c2.1,1.4,3.5,4.2,3.4,5.8c0,0.5-0.2,0.9-0.5,1.1C128,451,119.9,454.1,116.5,454.9z M115.6,454.1
								c1.4-0.2,11.4-3.7,12.2-4.3c0.4-0.5-0.6-3.6-3-5.2c-1.5-1-8.3,2.5-13,5.6C113.3,452,115,453.8,115.6,454.1z"/>
						</defs>
						<use xlink:href="#SVGID_33_"  style="overflow:visible;"/>
						<clipPath id="SVGID_34_">
							<use xlink:href="#SVGID_33_"  style="overflow:visible;"/>
						</clipPath>
						<polygon class="st52" points="124.6,451.8 122.6,443.8 126.2,442.8 128.5,450.7 						"/>
						<polygon class="st52" points="122.6,443.8 124.6,451.8 113.2,455.1 111,447.2 						"/>
						<polygon class="st52" points="124.8,452.6 122.2,442.1 127,440.7 130,451.2 						"/>
						<polygon class="st52" points="110.2,450 109.1,445.9 122.2,442.1 124.8,452.6 112,456.3 						"/>
						<polygon class="st52" points="109.1,445.9 110.2,450 109,445.9 						"/>
					</g>
				</g>
			</g>
			<g>
				<g>
					<g>
						<defs>
							<path id="SVGID_35_" d="M123.1,450.8c-0.4,0.1-0.8,0-1.3-0.2c-1.3-0.7-2.5-2.8-2.5-3.3c0-0.3-0.1-1,3.2-1.6l0,0
								c2-0.3,2.9,0.4,3.3,1c0.4,0.6,0.4,1.3,0.1,2.1c-0.3,0.8-1,1.4-1.8,1.7C123.8,450.6,123.5,450.7,123.1,450.8
								C123.1,450.8,123.1,450.8,123.1,450.8z M120.6,447.2c0.3,0.6,1.2,2.1,2,2.5c0.1,0.1,0.3,0.1,0.3,0.1c0,0,0,0,0,0
								c0.3-0.1,0.6-0.2,0.8-0.3c0.5-0.2,1-0.6,1.2-1.1c0.2-0.4,0.2-0.9-0.1-1.2c-0.1-0.2-0.5-0.8-2.2-0.6
								C121.8,446.8,120.9,447,120.6,447.2z"/>
						</defs>
						<use xlink:href="#SVGID_35_"  style="overflow:visible;"/>
						<clipPath id="SVGID_36_">
							<use xlink:href="#SVGID_35_"  style="overflow:visible;"/>
						</clipPath>
						<polygon class="st53" points="124.8,449.2 124,446.1 124.6,446 125.5,449.1 						"/>
						<polygon class="st53" points="124,446.1 124.8,449.2 121.4,450.2 120.5,447.2 						"/>
						<polygon class="st53" points="125.1,450.2 123.7,445 125.4,444.5 126.9,449.7 						"/>
						<polygon class="st53" points="119.8,449.3 119.1,446.3 123.7,445 125.1,450.2 120.5,451.5 						"/>
						<polygon class="st53" points="119.1,446.3 119.8,449.3 119,446.3 						"/>
					</g>
				</g>
			</g>
			<g>
				<g>
					<g>
						<defs>
							<path id="SVGID_37_" d="M117.5,452.6c-0.5,0.1-1,0.1-1.5,0c-1.2-0.4-1.8-1.6-1.2-2.7c0.5-1.1,2-1.7,3.2-1.3
								c1.2,0.4,1.8,1.6,1.2,2.7l0,0C118.9,452,118.2,452.4,117.5,452.6z M116.7,449.6c-0.4,0.1-0.7,0.3-0.9,0.7
								c-0.3,0.6,0,1.2,0.6,1.4c0.6,0.2,1.3-0.1,1.6-0.7l0,0c0.3-0.6,0-1.2-0.6-1.4C117.2,449.6,117,449.6,116.7,449.6z"/>
						</defs>
						<use xlink:href="#SVGID_37_"  style="overflow:visible;"/>
						<clipPath id="SVGID_38_">
							<use xlink:href="#SVGID_37_"  style="overflow:visible;"/>
						</clipPath>
						<polygon class="st54" points="118.4,451.5 117.8,449.3 118,449.2 118.7,451.4 						"/>
						<polygon class="st54" points="117.8,449.3 118.4,451.5 116,452.2 115.4,450 						"/>
						<polygon class="st54" points="118.6,452.3 117.5,448.1 119,447.6 120.2,451.9 						"/>
						<polygon class="st54" points="115.2,453.3 114.1,449.1 117.5,448.1 118.6,452.3 						"/>
						<polygon class="st54" points="114.1,449.1 115.2,453.3 114.9,453.4 113.7,449.2 						"/>
					</g>
				</g>
			</g>
		</g>
		<path class="st55" d="M120.9,510.1l4.9-3.9l5.4,19.2l-3.6-28.3c0.7-0.5-5.2,5.8-5.2,5.8l-7.4-17L120.9,510.1z"/>
	</g>
	<g>
		<defs>
			<path id="SVGID_39_" d="M123,440.2c0,0,15.8,3.1,9.5,15.4L156,545c0,0,11.4-7.3,10.8-11.8l-23.4-89.3
				C143.4,443.9,139.7,436.4,123,440.2z"/>
		</defs>
		<clipPath id="SVGID_40_">
			<use xlink:href="#SVGID_39_"  style="overflow:visible;"/>
		</clipPath>
		<g class="st56">
			<path class="st48" d="M142.6,444.5l23.9,90c0,0-0.5,1.6-2.4,4c-2.7,3.2-8.1,7.8-18.8,10.8c-10.9,3.1-18,1.5-22-0.4
				c-2.7-1.3-3.9-2.6-3.9-2.6l-23.9-90c1.4,5,13,6.4,25.9,3.1C134.5,456.4,144,449.6,142.6,444.5z"/>
			<path class="st49" d="M142.5,444.2c0.1,0.3,0.1,0.6,0.1,0.8c0,0.2,0,0.5,0,0.7c0,0,0,0.1,0,0.1c0,0.3-0.1,0.6-0.2,1
				c-1.5,4.8-9.9,10.1-20.9,12.9c-5.5,1.4-10.8,1.9-15.1,1.6c-5.4-0.3-9.3-1.9-10.6-4.4c-0.1-0.3-0.2-0.5-0.3-0.8
				c-1.4-5.3,8-12.2,21-15.5C129.4,437.2,141.1,438.9,142.5,444.2z"/>
			<g>
				<path class="st50" d="M111.2,450.2c0,0-10.9,3-10.7,4.8c0.2,2.1,6,1.8,14.7-0.4"/>
				<g>
					<g>
						<path class="st22" d="M111,450.1c0,0,11.6-7.6,14.2-5.9c2.6,1.7,3.8,5.4,2.9,6.1c-0.9,0.6-11.9,4.5-12.7,4.4
							C114.6,454.5,111,450.1,111,450.1z"/>
					</g>
				</g>
				<g>
					<g>
						<path class="st6" d="M122.6,446.1c0,0-2.7,0.5-2.7,1c0.1,0.5,1.8,3.5,3.1,3.1c0.3-0.1,0.6-0.2,0.9-0.3c1.3-0.6,2.1-2,1.4-3.1
							C125,446.3,124.2,445.9,122.6,446.1z"/>
					</g>
					<g>
						<g>
							<defs>
								<path id="SVGID_41_" d="M123.1,450.8c-0.4,0.1-0.8,0-1.3-0.2c-1.3-0.7-2.5-2.8-2.5-3.3c0-0.3-0.1-1,3.2-1.6l0,0
									c2-0.3,2.9,0.4,3.3,1c0.4,0.6,0.4,1.3,0.1,2.1c-0.3,0.8-1,1.4-1.8,1.7C123.8,450.6,123.5,450.7,123.1,450.8
									C123.1,450.8,123.1,450.8,123.1,450.8z M120.6,447.2c0.3,0.6,1.2,2.1,2,2.5c0.1,0.1,0.3,0.1,0.3,0.1c0,0,0,0,0,0
									c0.3-0.1,0.6-0.2,0.8-0.3c0.5-0.2,1-0.6,1.2-1.1c0.2-0.4,0.2-0.9-0.1-1.2c-0.1-0.2-0.5-0.8-2.2-0.6
									C121.8,446.8,120.9,447,120.6,447.2z"/>
							</defs>
							<clipPath id="SVGID_42_">
								<use xlink:href="#SVGID_41_"  style="overflow:visible;"/>
							</clipPath>
							<polygon class="st57" points="124.8,449.2 124,446.1 124.6,446 125.5,449.1 							"/>
							<polygon class="st57" points="124,446.1 124.8,449.2 121.4,450.2 120.5,447.2 							"/>
							<polygon class="st57" points="125.1,450.2 123.7,445 125.4,444.5 126.9,449.7 							"/>
							<polygon class="st57" points="119.8,449.3 119.1,446.3 123.7,445 125.1,450.2 120.5,451.5 							"/>
							<polygon class="st57" points="119.1,446.3 119.8,449.3 119,446.3 							"/>
						</g>
					</g>
				</g>
				<g>
					<g>
						<g>
							<defs>
								<path id="SVGID_43_" d="M116.5,454.9c-0.7,0.2-1.1,0.3-1.3,0.2c-0.8-0.2-3-2.6-4.7-4.7l-0.3-0.4l0.5-0.3
									c2-1.3,12.1-7.8,14.9-5.9c2.1,1.4,3.5,4.2,3.4,5.8c0,0.5-0.2,0.9-0.5,1.1C128,451,119.9,454.1,116.5,454.9z M115.6,454.1
									c1.4-0.2,11.4-3.7,12.2-4.3c0.4-0.5-0.6-3.6-3-5.2c-1.5-1-8.3,2.5-13,5.6C113.3,452,115,453.8,115.6,454.1z"/>
							</defs>
							<use xlink:href="#SVGID_43_"  style="overflow:visible;"/>
							<clipPath id="SVGID_44_">
								<use xlink:href="#SVGID_43_"  style="overflow:visible;"/>
							</clipPath>
							<polygon class="st58" points="124.6,451.8 122.6,443.8 126.2,442.8 128.5,450.7 							"/>
							<polygon class="st58" points="122.6,443.8 124.6,451.8 113.2,455.1 111,447.2 							"/>
							<polygon class="st58" points="124.8,452.6 122.2,442.1 127,440.7 130,451.2 							"/>
							<polygon class="st58" points="110.2,450 109.1,445.9 122.2,442.1 124.8,452.6 112,456.3 							"/>
							<polygon class="st58" points="109.1,445.9 110.2,450 109,445.9 							"/>
						</g>
					</g>
				</g>
				<g>
					<g>
						<g>
							<defs>
								<path id="SVGID_45_" d="M123.1,450.8c-0.4,0.1-0.8,0-1.3-0.2c-1.3-0.7-2.5-2.8-2.5-3.3c0-0.3-0.1-1,3.2-1.6l0,0
									c2-0.3,2.9,0.4,3.3,1c0.4,0.6,0.4,1.3,0.1,2.1c-0.3,0.8-1,1.4-1.8,1.7C123.8,450.6,123.5,450.7,123.1,450.8
									C123.1,450.8,123.1,450.8,123.1,450.8z M120.6,447.2c0.3,0.6,1.2,2.1,2,2.5c0.1,0.1,0.3,0.1,0.3,0.1c0,0,0,0,0,0
									c0.3-0.1,0.6-0.2,0.8-0.3c0.5-0.2,1-0.6,1.2-1.1c0.2-0.4,0.2-0.9-0.1-1.2c-0.1-0.2-0.5-0.8-2.2-0.6
									C121.8,446.8,120.9,447,120.6,447.2z"/>
							</defs>
							<use xlink:href="#SVGID_45_"  style="overflow:visible;"/>
							<clipPath id="SVGID_46_">
								<use xlink:href="#SVGID_45_"  style="overflow:visible;"/>
							</clipPath>
							<polygon class="st59" points="124.8,449.2 124,446.1 124.6,446 125.5,449.1 							"/>
							<polygon class="st59" points="124,446.1 124.8,449.2 121.4,450.2 120.5,447.2 							"/>
							<polygon class="st59" points="125.1,450.2 123.7,445 125.4,444.5 126.9,449.7 							"/>
							<polygon class="st59" points="119.8,449.3 119.1,446.3 123.7,445 125.1,450.2 120.5,451.5 							"/>
							<polygon class="st59" points="119.1,446.3 119.8,449.3 119,446.3 							"/>
						</g>
					</g>
				</g>
				<g>
					<g>
						<g>
							<defs>
								<path id="SVGID_47_" d="M117.5,452.6c-0.5,0.1-1,0.1-1.5,0c-1.2-0.4-1.8-1.6-1.2-2.7c0.5-1.1,2-1.7,3.2-1.3
									c1.2,0.4,1.8,1.6,1.2,2.7l0,0C118.9,452,118.2,452.4,117.5,452.6z M116.7,449.6c-0.4,0.1-0.7,0.3-0.9,0.7
									c-0.3,0.6,0,1.2,0.6,1.4c0.6,0.2,1.3-0.1,1.6-0.7l0,0c0.3-0.6,0-1.2-0.6-1.4C117.2,449.6,117,449.6,116.7,449.6z"/>
							</defs>
							<use xlink:href="#SVGID_47_"  style="overflow:visible;"/>
							<clipPath id="SVGID_48_">
								<use xlink:href="#SVGID_47_"  style="overflow:visible;"/>
							</clipPath>
							<polygon class="st60" points="118.4,451.5 117.8,449.3 118,449.2 118.7,451.4 							"/>
							<polygon class="st60" points="117.8,449.3 118.4,451.5 116,452.2 115.4,450 							"/>
							<polygon class="st60" points="118.6,452.3 117.5,448.1 119,447.6 120.2,451.9 							"/>
							<polygon class="st60" points="115.2,453.3 114.1,449.1 117.5,448.1 118.6,452.3 							"/>
							<polygon class="st60" points="114.1,449.1 115.2,453.3 114.9,453.4 113.7,449.2 							"/>
						</g>
					</g>
				</g>
			</g>
			<path class="st55" d="M117.8,511.4l4.9-3.9l5.4,19.2l-3.6-28.3c0.7-0.5-5.2,5.8-5.2,5.8l-7.4-17L117.8,511.4z"/>
		</g>
	</g>
	<path class="st29" d="M103.3,468.8l19.3,73.4c0,0,1.9,3.8,4,1.7l-19.1-73C107.4,471.1,105.9,464.9,103.3,468.8z"/>
</g>
<g>
	<g>
		<g>
			<path class="st61" d="M144.5,733.6l9.8,2.4c0,0,11.5-13.6,0.1-15.2c-11.1-1.6-14.8,1.2-15,1.3c-2.7-11.7-13.1-49.1-15.9-59.4
				l1.7-0.5l8.5-8l-6.8-9.7c0,0-8.4,6.9-9,7.2c-0.6,0.4-12.1-1.3-12.1-1.3l-11.5,8.8L84,657l-8.8,9.2l-9.5-2.9
				c0,0-10.4,11.4,0.1,13.4c10.5,2,14.4-0.9,14.4-0.9l2.2-0.7l13.3,60.8l-1.3,0.4l-7.7,7.8l1.8,11.2l10.5-7.8l11.5,1.6l12.9-10.3
				l12.2,2.6L144.5,733.6z"/>
			<path class="st61" d="M110,664.9c0,0,28.6-14.7,29.9-7.1c1.3,7.5,18,56.6,18.7,59.4s-20.9,8-28.5,10.7"/>
			<path class="st61" d="M113.1,732.7c0,0-28.6,14.7-29.9,7.1c-1.3-7.5-18-56.6-18.7-59.4c-0.7-2.8,20.9-8,28.5-10.7"/>
		</g>
		<path class="st62" d="M129.2,691.3c4.2,10,0.6,22.6-10.3,27.1s-23.5-1.3-27.7-11.3c-4.2-10,1.8-20.4,12.6-24.9
			S125,681.3,129.2,691.3z"/>
		<path class="st63" d="M97.9,699.6c0,0.4,0,0.6,0,0.6C97.8,700.1,97.8,699.9,97.9,699.6z"/>
		<path class="st63" d="M103.9,709.7c0,0.4,0,0.6,0,0.6C103.8,710.1,103.8,709.9,103.9,709.7z"/>
		<path class="st63" d="M106.5,702.6c0,0.4,0,0.6,0,0.6C106.4,703,106.4,702.8,106.5,702.6z"/>
		<path class="st63" d="M116.7,704c0,0.4,0,0.6,0,0.6C116.6,704.4,116.6,704.2,116.7,704z"/>
		<path class="st63" d="M114.2,712.5c0,0.4,0,0.6,0,0.6C114.1,713,114.1,712.7,114.2,712.5z"/>
		<path class="st63" d="M122.5,693.6c0,0.4,0,0.6,0,0.6C122.3,694,122.3,693.8,122.5,693.6z"/>
		<path class="st63" d="M114.5,694.7c0,0.4,0,0.6,0,0.6C114.4,695.2,114.4,694.9,114.5,694.7z"/>
		<path class="st63" d="M112.5,685.6c0,0.4,0,0.6,0,0.6C112.3,686,112.4,685.8,112.5,685.6z"/>
		<path class="st63" d="M103.5,689.8c0,0.4,0,0.6,0,0.6C103.4,690.2,103.4,690,103.5,689.8z"/>
		<path class="st63" d="M124.1,708.5c0,0.4,0,0.6,0,0.6C124,709,124,708.8,124.1,708.5z"/>
		<path class="st63" d="M96.1,693.1c0,0.4,0,0.6,0,0.6C96,693.5,96,693.3,96.1,693.1z"/>
		<g>
			<defs>
				<path id="SVGID_49_" d="M105,652.1c1.2,0.2,12.6,4.9,12.6,4.9l2.5,3.2l7.8-2.9l21.2,65.1l-6,2.5l-6.6,13.6l7.9-4.9l11.4,1.7
					l3.3-11.2l-3.5-4.5l2.8-2.4l-19.3-61l-5.5-2.1l-6-8.6l-9.7,6.2l-12.1-1.3L105,652.1z"/>
			</defs>
			<clipPath id="SVGID_50_">
				<use xlink:href="#SVGID_49_"  style="overflow:visible;"/>
			</clipPath>
			<g class="st64">
				<path class="st61" d="M144.5,733.6l9.8,2.4c0,0,11.5-13.6,0.1-15.2c-11.1-1.6-14.8,1.2-15,1.3c-2.7-11.7-13.1-49.1-15.9-59.4
					l1.7-0.5l8.5-8l-6.8-9.7c0,0-8.4,6.9-9,7.2c-0.6,0.4-12.1-1.3-12.1-1.3l-11.5,8.8L84,657l-8.8,9.2l-9.5-2.9
					c0,0-10.4,11.4,0.1,13.4c10.5,2,14.4-0.9,14.4-0.9l2.2-0.7l13.3,60.8l-1.3,0.4l-7.7,7.8l1.8,11.2l10.5-7.8l11.5,1.6l12.9-10.3
					l12.2,2.6L144.5,733.6z"/>
				<path class="st61" d="M110,664.9c0,0,28.6-14.7,29.9-7.1c1.3,7.5,18,56.6,18.7,59.4s-20.9,8-28.5,10.7"/>
				<path class="st61" d="M113.1,732.7c0,0-28.6,14.7-29.9,7.1c-1.3-7.5-18-56.6-18.7-59.4c-0.7-2.8,20.9-8,28.5-10.7"/>
			</g>
		</g>
	</g>
	<path class="st65" d="M72.1,686.3L85.5,730c0,0,3.1,3.4,3.5,1.7l-14.5-46.2C74.5,685.5,72.8,683.4,72.1,686.3z"/>
</g>
<g>
	<g>
		<g>
			<g>
				<path class="st66" d="M335.5,980l1.5,6.8c0,0,5.2-2.4,5.8-10.2c0.6-7.7-1.8-6.9-1.9-6.9c9-13.3,37.6-56.8,45.5-68.7l0.5,0.4
					l6.7-3.4l6.7-4.6c0,0-7.2-2.2-7.5-2.1c-0.3,0,0.9-5.2,0.9-5.2l-9.4-1l1.5-5.8l-7,1.8l-0.6-7.4c0,0-5.3,2.1-6.3,9.9
					c-0.9,7.8,1.6,7,1.6,7l0.6,0.5l-46.7,68.7l-0.4-0.3l-6.6,3.7l-5.6,5.7l4.4,0.1l0.2,5.8l9,0.4l0.7,6.7L335.5,980z"/>
				<path class="st66" d="M383.7,895.8c0,0,13.2,0.8,7.4,9.2s-43.2,67.1-45.3,70.3s-7.5-3.4-10.1-4.8"/>
				<path class="st66" d="M331,966c0,0-13.2-0.8-7.4-9.2s43.2-67.1,45.3-70.3c2.1-3.2,7.5,3.4,10.1,4.8"/>
			</g>
			<g>
				<path class="st66" d="M335.5,980l1.5,6.8c0,0,5.2-2.4,5.8-10.2c0.6-7.7-1.8-6.9-1.9-6.9c9-13.3,37.6-56.8,45.5-68.7l0.5,0.4
					l6.7-3.4l6.7-4.6c0,0-7.2-2.2-7.5-2.1c-0.3,0,0.9-5.2,0.9-5.2l-9.4-1l1.5-5.8l-7,1.8l-0.6-7.4c0,0-5.3,2.1-6.3,9.9
					c-0.9,7.8,1.6,7,1.6,7l0.6,0.5l-46.7,68.7l-0.4-0.3l-6.6,3.7l-5.6,5.7l4.4,0.1l0.2,5.8l9,0.4l0.7,6.7L335.5,980z"/>
				<path class="st66" d="M383.7,895.8c0,0,13.2,0.8,7.4,9.2s-43.2,67.1-45.3,70.3s-7.5-3.4-10.1-4.8"/>
				<path class="st66" d="M331,966c0,0-13.2-0.8-7.4-9.2s43.2-67.1,45.3-70.3c2.1-3.2,7.5,3.4,10.1,4.8"/>
			</g>
			<path class="st67" d="M342.1,960.9l-3.7-2.4c-3.7-2.4-4.8-7.4-2.4-11.2l31.6-48.4l5.2,3.4c2.9,1.9,3.7,5.8,1.8,8.7L342.1,960.9z"
				/>
			<path class="st68" d="M389.1,886.3c0,0-3,8.8-2.1,9.6c0.9,0.8,3.7,2,3.7,2l-51,75.9l-2.6-2.2l-6.6,7.9l-1.5,2.5l6.4-1.9l1.5,6.8
				l4-4l2.7-6.8l2.1-0.7c0,0,48.4-74.1,47.6-74.3c-0.8-0.2-1.6-2.1-1.6-2.1l7.8-5l-5.5-2.4l-0.3-5.5L389.1,886.3z"/>
		</g>
		<g>
			<defs>
				<path id="SVGID_51_" d="M331.8,979.5c0.3-0.3,8-5.8,8-5.8l49.4-76.6l-0.1-10.9l4.6-0.3l-0.9,5.2l7.5,2.1l-7.6,5.3l-1.6,6.4
					l-45.3,70.3l-3,1.3l-4.5,9.3l-2.8-6L331.8,979.5z"/>
			</defs>
			<clipPath id="SVGID_52_">
				<use xlink:href="#SVGID_51_"  style="overflow:visible;"/>
			</clipPath>
			<g class="st69">
				<g>
					<path class="st66" d="M335.5,980l1.5,6.8c0,0,5.2-2.4,5.8-10.2c0.6-7.7-1.8-6.9-1.9-6.9c9-13.3,37.6-56.8,45.5-68.7l0.5,0.4
						l6.7-3.4l6.7-4.6c0,0-7.2-2.2-7.5-2.1c-0.3,0,0.9-5.2,0.9-5.2l-9.4-1l1.5-5.8l-7,1.8l-0.6-7.4c0,0-5.3,2.1-6.3,9.9
						c-0.9,7.8,1.6,7,1.6,7l0.6,0.5l-46.7,68.7l-0.4-0.3l-6.6,3.7l-5.6,5.7l4.4,0.1l0.2,5.8l9,0.4l0.7,6.7L335.5,980z"/>
					<path class="st66" d="M383.7,895.8c0,0,13.2,0.8,7.4,9.2s-43.2,67.1-45.3,70.3s-7.5-3.4-10.1-4.8"/>
					<path class="st66" d="M331,966c0,0-13.2-0.8-7.4-9.2s43.2-67.1,45.3-70.3c2.1-3.2,7.5,3.4,10.1,4.8"/>
				</g>
				<g>
					<path class="st66" d="M335.5,980l1.5,6.8c0,0,5.2-2.4,5.8-10.2c0.6-7.7-1.8-6.9-1.9-6.9c9-13.3,37.6-56.8,45.5-68.7l0.5,0.4
						l6.7-3.4l6.7-4.6c0,0-7.2-2.2-7.5-2.1c-0.3,0,0.9-5.2,0.9-5.2l-9.4-1l1.5-5.8l-7,1.8l-0.6-7.4c0,0-5.3,2.1-6.3,9.9
						c-0.9,7.8,1.6,7,1.6,7l0.6,0.5l-46.7,68.7l-0.4-0.3l-6.6,3.7l-5.6,5.7l4.4,0.1l0.2,5.8l9,0.4l0.7,6.7L335.5,980z"/>
					<path class="st66" d="M383.7,895.8c0,0,13.2,0.8,7.4,9.2s-43.2,67.1-45.3,70.3s-7.5-3.4-10.1-4.8"/>
					<path class="st66" d="M331,966c0,0-13.2-0.8-7.4-9.2s43.2-67.1,45.3-70.3c2.1-3.2,7.5,3.4,10.1,4.8"/>
				</g>
				<path class="st67" d="M342.1,960.9l-3.7-2.4c-3.7-2.4-4.8-7.4-2.4-11.2l31.6-48.4l5.2,3.4c2.9,1.9,3.7,5.8,1.8,8.7L342.1,960.9z
					"/>
				<path class="st68" d="M389.1,886.3c0,0-3,8.8-2.1,9.6c0.9,0.8,3.7,2,3.7,2l-51,75.9l-2.6-2.2l-6.6,7.9l-1.5,2.5l6.4-1.9l1.5,6.8
					l4-4l2.7-6.8l2.1-0.7c0,0,48.4-74.1,47.6-74.3c-0.8-0.2-1.6-2.1-1.6-2.1l7.8-5l-5.5-2.4l-0.3-5.5L389.1,886.3z"/>
			</g>
		</g>
	</g>
	<path class="st65" d="M364.3,909l-23.8,36.1c0,0-1.3,2.4,0.7,3.1l26.3-39.7C367.5,908.6,366,906.4,364.3,909z"/>
</g>
<g>
	<g>
		<g>
			<g>
				<path class="st66" d="M473.9,934.4l-2.6,6.5c0,0,5.6,1,10.5-5.2c4.8-6,2.4-6.7,2.3-6.8c14.9-5.9,63.1-25.8,76.3-31.2l0.2,0.6
					l7.5,1l8.2,0c0,0-4.7-5.8-5-6c-0.3-0.1,3.7-3.8,3.7-3.8l-7.2-6.1l4.5-3.9l-6.9-2.4l3.6-6.5c0,0-5.6-1.2-10.8,4.7
					s-2.6,6.7-2.6,6.7l0.2,0.8l-77.3,30.5l-0.2-0.5l-7.5-0.6l-7.8,1.6l3.5,2.5l-3.1,4.9l7.3,5.4l-3.2,5.9L473.9,934.4z"/>
				<path class="st66" d="M561.1,892c0,0,10.4,8.1,0.9,11.7s-73.4,31.2-77,32.6c-3.6,1.5-4.3-7-5.6-9.6"/>
				<path class="st66" d="M478,920.4c0,0-10.4-8.1-0.9-11.7c9.5-3.6,73.4-31.1,77-32.6c3.6-1.5,4.3,7,5.6,9.6"/>
			</g>
			<g>
				<path class="st66" d="M473.9,934.4l-2.6,6.5c0,0,5.6,1,10.5-5.2c4.8-6,2.4-6.7,2.3-6.8c14.9-5.9,63.1-25.8,76.3-31.2l0.2,0.6
					l7.5,1l8.2,0c0,0-4.7-5.8-5-6c-0.3-0.1,3.7-3.8,3.7-3.8l-7.2-6.1l4.5-3.9l-6.9-2.4l3.6-6.5c0,0-5.6-1.2-10.8,4.7
					s-2.6,6.7-2.6,6.7l0.2,0.8l-77.3,30.5l-0.2-0.5l-7.5-0.6l-7.8,1.6l3.5,2.5l-3.1,4.9l7.3,5.4l-3.2,5.9L473.9,934.4z"/>
				<path class="st66" d="M561.1,892c0,0,10.4,8.1,0.9,11.7s-73.4,31.2-77,32.6c-3.6,1.5-4.3-7-5.6-9.6"/>
				<path class="st66" d="M478,920.4c0,0-10.4-8.1-0.9-11.7c9.5-3.6,73.4-31.1,77-32.6c3.6-1.5,4.3,7,5.6,9.6"/>
			</g>
			<path class="st67" d="M490,922.4l-1.7-4.1c-1.7-4.1,0.2-8.8,4.3-10.6l53.3-22.2l2.4,5.7c1.3,3.2-0.2,6.9-3.4,8.2L490,922.4z"/>
			<path class="st68" d="M571,887.2c0,0-7.5,5.6-7.1,6.8c0.3,1.2,1.9,3.8,1.9,3.8l-84.8,34l-0.9-3.3l-9.9,2.8l-2.6,1.2l6.4,2
				l-2.6,6.5l5.6-1.1l6.1-4.1l2.1,0.6c0,0,81.7-34,81.1-34.6c-0.5-0.6-0.1-2.7-0.1-2.7l9.3,0.2l-3.2-5.1l2.8-4.7L571,887.2z"/>
		</g>
		<g>
			<defs>
				<path id="SVGID_53_" d="M471.1,932c0.4-0.1,9.8-0.3,9.8-0.3l84-35.5l6.1-9.1l4,2.3l-3.7,3.8l5,6l-9.3,0.1l-4.9,4.3l-77,32.6
					l-3.2-0.6l-9,5.2l1.1-6.5L471.1,932z"/>
			</defs>
			<clipPath id="SVGID_54_">
				<use xlink:href="#SVGID_53_"  style="overflow:visible;"/>
			</clipPath>
			<g class="st70">
				<g>
					<path class="st66" d="M473.9,934.4l-2.6,6.5c0,0,5.6,1,10.5-5.2c4.8-6,2.4-6.7,2.3-6.8c14.9-5.9,63.1-25.8,76.3-31.2l0.2,0.6
						l7.5,1l8.2,0c0,0-4.7-5.8-5-6c-0.3-0.1,3.7-3.8,3.7-3.8l-7.2-6.1l4.5-3.9l-6.9-2.4l3.6-6.5c0,0-5.6-1.2-10.8,4.7
						s-2.6,6.7-2.6,6.7l0.2,0.8l-77.3,30.5l-0.2-0.5l-7.5-0.6l-7.8,1.6l3.5,2.5l-3.1,4.9l7.3,5.4l-3.2,5.9L473.9,934.4z"/>
					<path class="st66" d="M561.1,892c0,0,10.4,8.1,0.9,11.7s-73.4,31.2-77,32.6c-3.6,1.5-4.3-7-5.6-9.6"/>
					<path class="st66" d="M478,920.4c0,0-10.4-8.1-0.9-11.7c9.5-3.6,73.4-31.1,77-32.6c3.6-1.5,4.3,7,5.6,9.6"/>
				</g>
				<g>
					<path class="st66" d="M473.9,934.4l-2.6,6.5c0,0,5.6,1,10.5-5.2c4.8-6,2.4-6.7,2.3-6.8c14.9-5.9,63.1-25.8,76.3-31.2l0.2,0.6
						l7.5,1l8.2,0c0,0-4.7-5.8-5-6c-0.3-0.1,3.7-3.8,3.7-3.8l-7.2-6.1l4.5-3.9l-6.9-2.4l3.6-6.5c0,0-5.6-1.2-10.8,4.7
						s-2.6,6.7-2.6,6.7l0.2,0.8l-77.3,30.5l-0.2-0.5l-7.5-0.6l-7.8,1.6l3.5,2.5l-3.1,4.9l7.3,5.4l-3.2,5.9L473.9,934.4z"/>
					<path class="st66" d="M561.1,892c0,0,10.4,8.1,0.9,11.7s-73.4,31.2-77,32.6c-3.6,1.5-4.3-7-5.6-9.6"/>
					<path class="st66" d="M478,920.4c0,0-10.4-8.1-0.9-11.7c9.5-3.6,73.4-31.1,77-32.6c3.6-1.5,4.3,7,5.6,9.6"/>
				</g>
				<path class="st67" d="M490,922.4l-1.7-4.1c-1.7-4.1,0.2-8.8,4.3-10.6l53.3-22.2l2.4,5.7c1.3,3.2-0.2,6.9-3.4,8.2L490,922.4z"/>
				<path class="st68" d="M571,887.2c0,0-7.5,5.6-7.1,6.8c0.3,1.2,1.9,3.8,1.9,3.8l-84.8,34l-0.9-3.3l-9.9,2.8l-2.6,1.2l6.4,2
					l-2.6,6.5l5.6-1.1l6.1-4.1l2.1,0.6c0,0,81.7-34,81.1-34.6c-0.5-0.6-0.1-2.7-0.1-2.7l9.3,0.2l-3.2-5.1l2.8-4.7L571,887.2z"/>
			</g>
		</g>
	</g>
	<path class="st65" d="M537.6,892l-40,16.5c0,0-2.5,1.2-1.2,3l44.1-18C540.5,893.5,540.5,890.8,537.6,892z"/>
</g>
<g>
	<g>
		<g>
			<g>
				<path class="st66" d="M662.8,989.4l5.6-4.1c0,0-4.3-3.8-11.7-1.1c-7.2,2.6-5.6,4.5-5.5,4.5c-15.8-2.8-67.2-11.3-81.3-13.6
					l0.2-0.6l-5.9-4.8l-7-4.3c0,0,0.9,7.4,1.1,7.7c0.2,0.3-5.1,1.3-5.1,1.3l2.9,9l-5.9,1l4.5,5.7l-6.5,3.6c0,0,4.1,4,11.6,1.7
					c7.5-2.3,5.7-4.3,5.7-4.3l0.2-0.8l81.8,14.8l-0.1,0.5l6.1,4.5l7.4,2.8l-1.7-4l5.2-2.5l-3.3-8.4l5.9-3.3L662.8,989.4z"/>
				<path class="st66" d="M566.3,979.5c0,0-4.6-12.4,5.4-10.5s78.8,12.2,82.6,12.8c3.8,0.7,0,8.2-0.3,11.1"/>
				<path class="st66" d="M651.9,999.2c0,0,4.6,12.4-5.4,10.5c-10-1.9-78.8-12.2-82.6-12.8c-3.8-0.7,0-8.2,0.3-11.1"/>
			</g>
			<g>
				<path class="st66" d="M662.8,989.4l5.6-4.1c0,0-4.3-3.8-11.7-1.1c-7.2,2.6-5.6,4.5-5.5,4.5c-15.8-2.8-67.2-11.3-81.3-13.6
					l0.2-0.6l-5.9-4.8l-7-4.3c0,0,0.9,7.4,1.1,7.7c0.2,0.3-5.1,1.3-5.1,1.3l2.9,9l-5.9,1l4.5,5.7l-6.5,3.6c0,0,4.1,4,11.6,1.7
					c7.5-2.3,5.7-4.3,5.7-4.3l0.2-0.8l81.8,14.8l-0.1,0.5l6.1,4.5l7.4,2.8l-1.7-4l5.2-2.5l-3.3-8.4l5.9-3.3L662.8,989.4z"/>
				<path class="st66" d="M566.3,979.5c0,0-4.6-12.4,5.4-10.5s78.8,12.2,82.6,12.8c3.8,0.7,0,8.2-0.3,11.1"/>
				<path class="st66" d="M651.9,999.2c0,0,4.6,12.4-5.4,10.5c-10-1.9-78.8-12.2-82.6-12.8c-3.8-0.7,0-8.2,0.3-11.1"/>
			</g>
			<path class="st67" d="M642.8,991.1l-0.7,4.3c-0.7,4.4-4.8,7.4-9.3,6.7l-57.1-9.2l1-6.1c0.6-3.4,3.8-5.8,7.2-5.2L642.8,991.1z"/>
			<path class="st68" d="M555.4,978.4c0,0,9.3-0.8,9.6-2c0.3-1.2,0.4-4.2,0.4-4.2l90,15.8l-1,3.3l9.9,2.9l2.9,0.4l-4.4-5.1l5.6-4.1
				l-5.3-2l-7.3,0.3l-1.5-1.7c0,0-87.3-14.1-87.2-13.3c0.1,0.8-1.3,2.3-1.3,2.3l-7.7-5.1l0,6l-4.9,2.5L555.4,978.4z"/>
		</g>
		<g>
			<defs>
				<path id="SVGID_55_" d="M664,992.9c-0.4-0.2-8.5-4.9-8.5-4.9l-90.1-14l-9.9,4.5l-2.1-4.1l5.1-1.3l-1.1-7.7l8,4.8l6.5-1.1
					l82.6,12.8l2.4,2.2l10.4,0.3l-4.3,5L664,992.9z"/>
			</defs>
			<clipPath id="SVGID_56_">
				<use xlink:href="#SVGID_55_"  style="overflow:visible;"/>
			</clipPath>
			<g class="st71">
				<g>
					<path class="st66" d="M662.8,989.4l5.6-4.1c0,0-4.3-3.8-11.7-1.1c-7.2,2.6-5.6,4.5-5.5,4.5c-15.8-2.8-67.2-11.3-81.3-13.6
						l0.2-0.6l-5.9-4.8l-7-4.3c0,0,0.9,7.4,1.1,7.7c0.2,0.3-5.1,1.3-5.1,1.3l2.9,9l-5.9,1l4.5,5.7l-6.5,3.6c0,0,4.1,4,11.6,1.7
						c7.5-2.3,5.7-4.3,5.7-4.3l0.2-0.8l81.8,14.8l-0.1,0.5l6.1,4.5l7.4,2.8l-1.7-4l5.2-2.5l-3.3-8.4l5.9-3.3L662.8,989.4z"/>
					<path class="st66" d="M566.3,979.5c0,0-4.6-12.4,5.4-10.5s78.8,12.2,82.6,12.8c3.8,0.7,0,8.2-0.3,11.1"/>
					<path class="st66" d="M651.9,999.2c0,0,4.6,12.4-5.4,10.5c-10-1.9-78.8-12.2-82.6-12.8c-3.8-0.7,0-8.2,0.3-11.1"/>
				</g>
				<g>
					<path class="st66" d="M662.8,989.4l5.6-4.1c0,0-4.3-3.8-11.7-1.1c-7.2,2.6-5.6,4.5-5.5,4.5c-15.8-2.8-67.2-11.3-81.3-13.6
						l0.2-0.6l-5.9-4.8l-7-4.3c0,0,0.9,7.4,1.1,7.7c0.2,0.3-5.1,1.3-5.1,1.3l2.9,9l-5.9,1l4.5,5.7l-6.5,3.6c0,0,4.1,4,11.6,1.7
						c7.5-2.3,5.7-4.3,5.7-4.3l0.2-0.8l81.8,14.8l-0.1,0.5l6.1,4.5l7.4,2.8l-1.7-4l5.2-2.5l-3.3-8.4l5.9-3.3L662.8,989.4z"/>
					<path class="st66" d="M566.3,979.5c0,0-4.6-12.4,5.4-10.5s78.8,12.2,82.6,12.8c3.8,0.7,0,8.2-0.3,11.1"/>
					<path class="st66" d="M651.9,999.2c0,0,4.6,12.4-5.4,10.5c-10-1.9-78.8-12.2-82.6-12.8c-3.8-0.7,0-8.2,0.3-11.1"/>
				</g>
				<path class="st67" d="M642.8,991.1l-0.7,4.3c-0.7,4.4-4.8,7.4-9.3,6.7l-57.1-9.2l1-6.1c0.6-3.4,3.8-5.8,7.2-5.2L642.8,991.1z"/>
				<path class="st68" d="M555.4,978.4c0,0,9.3-0.8,9.6-2c0.3-1.2,0.4-4.2,0.4-4.2l90,15.8l-1,3.3l9.9,2.9l2.9,0.4l-4.4-5.1l5.6-4.1
					l-5.3-2l-7.3,0.3l-1.5-1.7c0,0-87.3-14.1-87.2-13.3c0.1,0.8-1.3,2.3-1.3,2.3l-7.7-5.1l0,6l-4.9,2.5L555.4,978.4z"/>
			</g>
		</g>
	</g>
	<path class="st65" d="M586.3,991.9l42.7,7.1c0,0,2.7,0.3,2.6-1.9l-46.9-7.9C584.6,989.1,583.2,991.4,586.3,991.9z"/>
</g>
<g>
	<g>
		<g>
			<g>
				<path class="st66" d="M1567.2,929.2l-0.7-6.9c0,0-5.5,1.8-6.9,9.5c-1.4,7.6,1,7.1,1.1,7.1c-10.4,12.2-43.9,52.1-53.1,63
					l-0.5-0.5l-7.1,2.6l-7.2,3.8c0,0,6.9,3,7.2,3c0.3,0-1.5,5-1.5,5l9.2,2.1l-2.2,5.5l7.2-1l-0.2,7.4c0,0,5.5-1.5,7.4-9.1
					s-0.8-7.1-0.8-7.1l-0.6-0.6l54.3-62.9l0.4,0.3l7-2.9l6.2-5l-4.3-0.6l0.5-5.8l-8.9-1.4l0.1-6.8L1567.2,929.2z"/>
				<path class="st66" d="M1509.6,1007.2c0,0-13-2.3-6.3-10c6.7-7.6,50.6-61.6,53.1-64.6s7.1,4.2,9.4,5.9"/>
				<path class="st66" d="M1570.1,943.6c0,0,13,2.3,6.3,10s-50.6,61.6-53.1,64.6s-7.1-4.2-9.4-5.9"/>
			</g>
			<g>
				<path class="st66" d="M1567.2,929.2l-0.7-6.9c0,0-5.5,1.8-6.9,9.5c-1.4,7.6,1,7.1,1.1,7.1c-10.4,12.2-43.9,52.1-53.1,63
					l-0.5-0.5l-7.1,2.6l-7.2,3.8c0,0,6.9,3,7.2,3c0.3,0-1.5,5-1.5,5l9.2,2.1l-2.2,5.5l7.2-1l-0.2,7.4c0,0,5.5-1.5,7.4-9.1
					s-0.8-7.1-0.8-7.1l-0.6-0.6l54.3-62.9l0.4,0.3l7-2.9l6.2-5l-4.3-0.6l0.5-5.8l-8.9-1.4l0.1-6.8L1567.2,929.2z"/>
				<path class="st66" d="M1509.6,1007.2c0,0-13-2.3-6.3-10c6.7-7.6,50.6-61.6,53.1-64.6s7.1,4.2,9.4,5.9"/>
				<path class="st66" d="M1570.1,943.6c0,0,13,2.3,6.3,10s-50.6,61.6-53.1,64.6s-7.1-4.2-9.4-5.9"/>
			</g>
			<path class="st67" d="M1558.5,947.3l3.4,2.8c3.4,2.9,3.9,7.9,1,11.4l-37,44.4l-4.8-4c-2.7-2.2-3-6.2-0.8-8.9L1558.5,947.3z"/>
			<path class="st68" d="M1503.1,1016.1c0,0,4-8.4,3.2-9.3c-0.8-0.9-3.5-2.5-3.5-2.5l59.4-69.5l2.3,2.5l7.5-7l1.8-2.3l-6.6,1.2
				l-0.7-6.9l-4.4,3.5l-3.5,6.4l-2.2,0.4c0,0-56.6,68-55.8,68.3c0.8,0.3,1.4,2.3,1.4,2.3l-8.3,4.1l5.1,3l-0.3,5.5L1503.1,1016.1z"/>
		</g>
		<g>
			<defs>
				<path id="SVGID_57_" d="M1570.8,930c-0.3,0.3-8.6,4.8-8.6,4.8l-57.9,70.4l-1.2,10.8l-4.6-0.2l1.5-5l-7.2-3l8.2-4.4l2.3-6.1
					l53.1-64.6l3.1-0.9l5.5-8.8l2.1,6.2L1570.8,930z"/>
			</defs>
			<clipPath id="SVGID_58_">
				<use xlink:href="#SVGID_57_"  style="overflow:visible;"/>
			</clipPath>
			<g class="st72">
				<g>
					<path class="st66" d="M1567.2,929.2l-0.7-6.9c0,0-5.5,1.8-6.9,9.5c-1.4,7.6,1,7.1,1.1,7.1c-10.4,12.2-43.9,52.1-53.1,63
						l-0.5-0.5l-7.1,2.6l-7.2,3.8c0,0,6.9,3,7.2,3c0.3,0-1.5,5-1.5,5l9.2,2.1l-2.2,5.5l7.2-1l-0.2,7.4c0,0,5.5-1.5,7.4-9.1
						s-0.8-7.1-0.8-7.1l-0.6-0.6l54.3-62.9l0.4,0.3l7-2.9l6.2-5l-4.3-0.6l0.5-5.8l-8.9-1.4l0.1-6.8L1567.2,929.2z"/>
					<path class="st66" d="M1509.6,1007.2c0,0-13-2.3-6.3-10c6.7-7.6,50.6-61.6,53.1-64.6s7.1,4.2,9.4,5.9"/>
					<path class="st66" d="M1570.1,943.6c0,0,13,2.3,6.3,10s-50.6,61.6-53.1,64.6s-7.1-4.2-9.4-5.9"/>
				</g>
				<g>
					<path class="st66" d="M1567.2,929.2l-0.7-6.9c0,0-5.5,1.8-6.9,9.5c-1.4,7.6,1,7.1,1.1,7.1c-10.4,12.2-43.9,52.1-53.1,63
						l-0.5-0.5l-7.1,2.6l-7.2,3.8c0,0,6.9,3,7.2,3c0.3,0-1.5,5-1.5,5l9.2,2.1l-2.2,5.5l7.2-1l-0.2,7.4c0,0,5.5-1.5,7.4-9.1
						s-0.8-7.1-0.8-7.1l-0.6-0.6l54.3-62.9l0.4,0.3l7-2.9l6.2-5l-4.3-0.6l0.5-5.8l-8.9-1.4l0.1-6.8L1567.2,929.2z"/>
					<path class="st66" d="M1509.6,1007.2c0,0-13-2.3-6.3-10c6.7-7.6,50.6-61.6,53.1-64.6s7.1,4.2,9.4,5.9"/>
					<path class="st66" d="M1570.1,943.6c0,0,13,2.3,6.3,10s-50.6,61.6-53.1,64.6s-7.1-4.2-9.4-5.9"/>
				</g>
				<path class="st67" d="M1558.5,947.3l3.4,2.8c3.4,2.9,3.9,7.9,1,11.4l-37,44.4l-4.8-4c-2.7-2.2-3-6.2-0.8-8.9L1558.5,947.3z"/>
				<path class="st68" d="M1503.1,1016.1c0,0,4-8.4,3.2-9.3c-0.8-0.9-3.5-2.5-3.5-2.5l59.4-69.5l2.3,2.5l7.5-7l1.8-2.3l-6.6,1.2
					l-0.7-6.9l-4.4,3.5l-3.5,6.4l-2.2,0.4c0,0-56.6,68-55.8,68.3c0.8,0.3,1.4,2.3,1.4,2.3l-8.3,4.1l5.1,3l-0.3,5.5L1503.1,1016.1z"
					/>
			</g>
		</g>
	</g>
	<path class="st65" d="M1530.4,996.3l27.8-33.1c0,0,1.6-2.2-0.3-3.2l-30.7,36.4C1527.2,996.4,1528.4,998.7,1530.4,996.3z"/>
</g>
<g>
	<g>
		<g>
			<g>
				<path class="st66" d="M1424.5,958.4l3.4-6.1c0,0-5.5-1.6-11.1,3.9c-5.5,5.4-3.2,6.4-3.1,6.5c-15.5,4.2-65.6,18.3-79.4,22.2
					l-0.1-0.7l-7.3-1.8l-8.1-0.9c0,0,4,6.3,4.3,6.5c0.3,0.2-4.1,3.3-4.1,3.3l6.5,6.9l-4.9,3.4l6.5,3.2l-4.4,6c0,0,5.4,1.9,11.2-3.4
					c5.8-5.3,3.4-6.3,3.4-6.3l-0.1-0.8l80.3-21.4l0.1,0.5l7.4,1.5l7.9-0.7l-3.2-2.9l3.6-4.5l-6.6-6.2l3.9-5.5L1424.5,958.4z"/>
				<path class="st66" d="M1332.9,990.5c0,0-9.4-9.2,0.4-11.8s76.5-22.5,80.3-23.5c3.7-1,3.5,7.5,4.5,10.2"/>
				<path class="st66" d="M1418.8,972c0,0,9.4,9.2-0.4,11.8s-76.5,22.5-80.3,23.5c-3.7,1-3.5-7.5-4.5-10.2"/>
			</g>
			<g>
				<path class="st66" d="M1424.5,958.4l3.4-6.1c0,0-5.5-1.6-11.1,3.9c-5.5,5.4-3.2,6.4-3.1,6.5c-15.5,4.2-65.6,18.3-79.4,22.2
					l-0.1-0.7l-7.3-1.8l-8.1-0.9c0,0,4,6.3,4.3,6.5c0.3,0.2-4.1,3.3-4.1,3.3l6.5,6.9l-4.9,3.4l6.5,3.2l-4.4,6c0,0,5.4,1.9,11.2-3.4
					c5.8-5.3,3.4-6.3,3.4-6.3l-0.1-0.8l80.3-21.4l0.1,0.5l7.4,1.5l7.9-0.7l-3.2-2.9l3.6-4.5l-6.6-6.2l3.9-5.5L1424.5,958.4z"/>
				<path class="st66" d="M1332.9,990.5c0,0-9.4-9.2,0.4-11.8s76.5-22.5,80.3-23.5c3.7-1,3.5,7.5,4.5,10.2"/>
				<path class="st66" d="M1418.8,972c0,0,9.4,9.2-0.4,11.8s-76.5,22.5-80.3,23.5c-3.7,1-3.5-7.5-4.5-10.2"/>
			</g>
			<path class="st67" d="M1407,968.5l1.2,4.2c1.2,4.3-1.2,8.8-5.5,10l-55.6,15.9l-1.7-5.9c-1-3.3,1-6.8,4.3-7.8L1407,968.5z"/>
			<path class="st68" d="M1322.6,994.2c0,0,8.1-4.7,7.9-5.9c-0.2-1.2-1.5-4-1.5-4l88.2-24l0.5,3.4l10.1-1.6l2.7-0.9l-6.1-2.7
				l3.4-6.1l-5.6,0.4l-6.5,3.4l-2-0.9c0,0-85.1,24.3-84.6,25c0.5,0.7-0.2,2.7-0.2,2.7l-9.2-1.3l2.6,5.4l-3.4,4.3L1322.6,994.2z"/>
		</g>
		<g>
			<defs>
				<path id="SVGID_59_" d="M1427,961.2c-0.4,0-9.8-0.8-9.8-0.8l-87.5,25.6l-7.1,8.3l-3.7-2.8l4.1-3.3l-4.3-6.5l9.2,1l5.4-3.8
					l80.3-23.5l3.1,1l9.5-4.1l-1.8,6.3L1427,961.2z"/>
			</defs>
			<clipPath id="SVGID_60_">
				<use xlink:href="#SVGID_59_"  style="overflow:visible;"/>
			</clipPath>
			<g class="st73">
				<g>
					<path class="st66" d="M1424.5,958.4l3.4-6.1c0,0-5.5-1.6-11.1,3.9c-5.5,5.4-3.2,6.4-3.1,6.5c-15.5,4.2-65.6,18.3-79.4,22.2
						l-0.1-0.7l-7.3-1.8l-8.1-0.9c0,0,4,6.3,4.3,6.5c0.3,0.2-4.1,3.3-4.1,3.3l6.5,6.9l-4.9,3.4l6.5,3.2l-4.4,6c0,0,5.4,1.9,11.2-3.4
						c5.8-5.3,3.4-6.3,3.4-6.3l-0.1-0.8l80.3-21.4l0.1,0.5l7.4,1.5l7.9-0.7l-3.2-2.9l3.6-4.5l-6.6-6.2l3.9-5.5L1424.5,958.4z"/>
					<path class="st66" d="M1332.9,990.5c0,0-9.4-9.2,0.4-11.8s76.5-22.5,80.3-23.5c3.7-1,3.5,7.5,4.5,10.2"/>
					<path class="st66" d="M1418.8,972c0,0,9.4,9.2-0.4,11.8s-76.5,22.5-80.3,23.5c-3.7,1-3.5-7.5-4.5-10.2"/>
				</g>
				<g>
					<path class="st66" d="M1424.5,958.4l3.4-6.1c0,0-5.5-1.6-11.1,3.9c-5.5,5.4-3.2,6.4-3.1,6.5c-15.5,4.2-65.6,18.3-79.4,22.2
						l-0.1-0.7l-7.3-1.8l-8.1-0.9c0,0,4,6.3,4.3,6.5c0.3,0.2-4.1,3.3-4.1,3.3l6.5,6.9l-4.9,3.4l6.5,3.2l-4.4,6c0,0,5.4,1.9,11.2-3.4
						c5.8-5.3,3.4-6.3,3.4-6.3l-0.1-0.8l80.3-21.4l0.1,0.5l7.4,1.5l7.9-0.7l-3.2-2.9l3.6-4.5l-6.6-6.2l3.9-5.5L1424.5,958.4z"/>
					<path class="st66" d="M1332.9,990.5c0,0-9.4-9.2,0.4-11.8s76.5-22.5,80.3-23.5c3.7-1,3.5,7.5,4.5,10.2"/>
					<path class="st66" d="M1418.8,972c0,0,9.4,9.2-0.4,11.8s-76.5,22.5-80.3,23.5c-3.7,1-3.5-7.5-4.5-10.2"/>
				</g>
				<path class="st67" d="M1407,968.5l1.2,4.2c1.2,4.3-1.2,8.8-5.5,10l-55.6,15.9l-1.7-5.9c-1-3.3,1-6.8,4.3-7.8L1407,968.5z"/>
				<path class="st68" d="M1322.6,994.2c0,0,8.1-4.7,7.9-5.9c-0.2-1.2-1.5-4-1.5-4l88.2-24l0.5,3.4l10.1-1.6l2.7-0.9l-6.1-2.7
					l3.4-6.1l-5.6,0.4l-6.5,3.4l-2-0.9c0,0-85.1,24.3-84.6,25c0.5,0.7-0.2,2.7-0.2,2.7l-9.2-1.3l2.6,5.4l-3.4,4.3L1322.6,994.2z"/>
			</g>
		</g>
	</g>
	<path class="st65" d="M1356.3,993.2l41.6-11.7c0,0,2.6-0.9,1.5-2.8l-45.9,12.8C1353.6,991.4,1353.3,994.1,1356.3,993.2z"/>
</g>
<g>
	<g>
		<g>
			<g>
				<path class="st66" d="M1243.1,882.1l-6.1,3.4c0,0,3.8,4.3,11.5,2.5c7.5-1.8,6.1-3.8,6-3.9c15.3,4.6,65.4,19,79.2,22.9l-0.2,0.6
					l5.3,5.4l6.4,5c0,0,0-7.5-0.2-7.8c-0.1-0.3,5.2-0.7,5.2-0.7l-1.8-9.3l5.9-0.3l-3.9-6.2l6.9-2.8c0,0-3.6-4.4-11.3-3
					c-7.7,1.4-6.2,3.6-6.2,3.6l-0.3,0.8l-79.5-24.1l0.2-0.5l-5.5-5.2l-7.1-3.6l1.2,4.2l-5.4,1.9l2.4,8.7l-6.2,2.6L1243.1,882.1z"/>
				<path class="st66" d="M1337.8,903c0,0,3.1,12.8-6.6,9.8c-9.7-3.1-76.9-21.2-80.6-22.3c-3.7-1.1,1-8.2,1.6-11"/>
				<path class="st66" d="M1255.1,873.6c0,0-3.1-12.8,6.6-9.8c9.7,3.1,76.9,21.2,80.6,22.3s-1,8.2-1.6,11"/>
			</g>
			<g>
				<path class="st66" d="M1243.1,882.1l-6.1,3.4c0,0,3.8,4.3,11.5,2.5c7.5-1.8,6.1-3.8,6-3.9c15.3,4.6,65.4,19,79.2,22.9l-0.2,0.6
					l5.3,5.4l6.4,5c0,0,0-7.5-0.2-7.8c-0.1-0.3,5.2-0.7,5.2-0.7l-1.8-9.3l5.9-0.3l-3.9-6.2l6.9-2.8c0,0-3.6-4.4-11.3-3
					c-7.7,1.4-6.2,3.6-6.2,3.6l-0.3,0.8l-79.5-24.1l0.2-0.5l-5.5-5.2l-7.1-3.6l1.2,4.2l-5.4,1.9l2.4,8.7l-6.2,2.6L1243.1,882.1z"/>
				<path class="st66" d="M1337.8,903c0,0,3.1,12.8-6.6,9.8c-9.7-3.1-76.9-21.2-80.6-22.3c-3.7-1.1,1-8.2,1.6-11"/>
				<path class="st66" d="M1255.1,873.6c0,0-3.1-12.8,6.6-9.8c9.7,3.1,76.9,21.2,80.6,22.3s-1,8.2-1.6,11"/>
			</g>
			<path class="st67" d="M1263.3,882.7l1.2-4.2c1.2-4.3,5.7-6.8,10-5.6l55.6,15.7l-1.7,5.9c-0.9,3.3-4.4,5.3-7.8,4.3L1263.3,882.7z"
				/>
			<path class="st68" d="M1348.6,905.3c0,0-9.3-0.2-9.8,0.9c-0.5,1.1-0.8,4.2-0.8,4.2l-87.6-26l1.3-3.1l-9.5-4l-2.8-0.7l3.8,5.6
				l-6.1,3.4l5,2.6l7.3,0.5l1.3,1.8c0,0,85.1,24.1,85.1,23.3s1.6-2.2,1.6-2.2l7.1,5.9l0.7-5.9l5.1-1.9L1348.6,905.3z"/>
		</g>
		<g>
			<defs>
				<path id="SVGID_61_" d="M1242.4,878.4c0.4,0.2,7.9,5.9,7.9,5.9l87.9,24.3l10.4-3.3l1.7,4.3l-5.2,0.7l0.2,7.8l-7.4-5.7l-6.6,0.4
					l-80.6-22.3l-2.1-2.5l-10.2-1.5l4.9-4.4L1242.4,878.4z"/>
			</defs>
			<clipPath id="SVGID_62_">
				<use xlink:href="#SVGID_61_"  style="overflow:visible;"/>
			</clipPath>
			<g class="st74">
				<g>
					<path class="st66" d="M1243.1,882.1l-6.1,3.4c0,0,3.8,4.3,11.5,2.5c7.5-1.8,6.1-3.8,6-3.9c15.3,4.6,65.4,19,79.2,22.9l-0.2,0.6
						l5.3,5.4l6.4,5c0,0,0-7.5-0.2-7.8c-0.1-0.3,5.2-0.7,5.2-0.7l-1.8-9.3l5.9-0.3l-3.9-6.2l6.9-2.8c0,0-3.6-4.4-11.3-3
						c-7.7,1.4-6.2,3.6-6.2,3.6l-0.3,0.8l-79.5-24.1l0.2-0.5l-5.5-5.2l-7.1-3.6l1.2,4.2l-5.4,1.9l2.4,8.7l-6.2,2.6L1243.1,882.1z"/>
					<path class="st66" d="M1337.8,903c0,0,3.1,12.8-6.6,9.8c-9.7-3.1-76.9-21.2-80.6-22.3c-3.7-1.1,1-8.2,1.6-11"/>
					<path class="st66" d="M1255.1,873.6c0,0-3.1-12.8,6.6-9.8c9.7,3.1,76.9,21.2,80.6,22.3s-1,8.2-1.6,11"/>
				</g>
				<g>
					<path class="st66" d="M1243.1,882.1l-6.1,3.4c0,0,3.8,4.3,11.5,2.5c7.5-1.8,6.1-3.8,6-3.9c15.3,4.6,65.4,19,79.2,22.9l-0.2,0.6
						l5.3,5.4l6.4,5c0,0,0-7.5-0.2-7.8c-0.1-0.3,5.2-0.7,5.2-0.7l-1.8-9.3l5.9-0.3l-3.9-6.2l6.9-2.8c0,0-3.6-4.4-11.3-3
						c-7.7,1.4-6.2,3.6-6.2,3.6l-0.3,0.8l-79.5-24.1l0.2-0.5l-5.5-5.2l-7.1-3.6l1.2,4.2l-5.4,1.9l2.4,8.7l-6.2,2.6L1243.1,882.1z"/>
					<path class="st66" d="M1337.8,903c0,0,3.1,12.8-6.6,9.8c-9.7-3.1-76.9-21.2-80.6-22.3c-3.7-1.1,1-8.2,1.6-11"/>
					<path class="st66" d="M1255.1,873.6c0,0-3.1-12.8,6.6-9.8c9.7,3.1,76.9,21.2,80.6,22.3s-1,8.2-1.6,11"/>
				</g>
				<path class="st67" d="M1263.3,882.7l1.2-4.2c1.2-4.3,5.7-6.8,10-5.6l55.6,15.7l-1.7,5.9c-0.9,3.3-4.4,5.3-7.8,4.3L1263.3,882.7z
					"/>
				<path class="st68" d="M1348.6,905.3c0,0-9.3-0.2-9.8,0.9c-0.5,1.1-0.8,4.2-0.8,4.2l-87.6-26l1.3-3.1l-9.5-4l-2.8-0.7l3.8,5.6
					l-6.1,3.4l5,2.6l7.3,0.5l1.3,1.8c0,0,85.1,24.1,85.1,23.3s1.6-2.2,1.6-2.2l7.1,5.9l0.7-5.9l5.1-1.9L1348.6,905.3z"/>
			</g>
		</g>
	</g>
	<path class="st65" d="M1319.4,888.4l-41.6-11.9c0,0-2.7-0.6-2.8,1.6l45.7,13.3C1320.8,891.3,1322.4,889.3,1319.4,888.4z"/>
</g>
<g>
	<g>
		<g>
			<polygon class="st75" points="1773.4,552.3 1794,539.8 1885.7,553.2 1865.4,692 1844.8,704.5 1753.1,691 			"/>
			
				<rect x="1762.7" y="558.3" transform="matrix(0.9895 0.1449 -0.1449 0.9895 110.1237 -255.4624)" class="st75" width="92.8" height="140.2"/>
			<line class="st75" x1="1885.7" y1="553.2" x2="1865.2" y2="565.8"/>
			<path class="st76" d="M1786.4,545.6l32.3,4.7c0,0-0.7,3.3,8,4.7c8.8,1.4,11.6-1.8,11.6-1.8l38.2,5.6"/>
			<path class="st77" d="M1840.3,624.8c-1.6,15-15.1,25.8-30.1,24.2c-15-1.6-25.8-15-24.3-30c-0.2,2.7,11.7,6.1,26.7,7.7
				C1827.6,628.3,1840,627.5,1840.3,624.8z"/>
			<path class="st77" d="M1840.3,624.8c-0.3,2.7-12.7,3.5-27.7,1.9c-15-1.6-26.9-5-26.7-7.7c0,0,0,0,0,0l0-0.1
				c0.1-0.8,1.4-1.4,3.4-1.9c0.1-2.8,0.6-6.8,3.5-5.4c1.4,0.7,2.1,1.3,2.4,1.8c0.9-2.5,3-6.9,5.6-4.5c2.2,2,1.9,5.2,1.3,7.2
				c-0.3,1.1-0.7,1.9-0.7,2.1c0.1-0.1,0.7-1,1.5-2c1.3-1.9,2.3-4.1,4.8-4.7c2.4-0.6,4.1,0.2,3.2,5.2c0,0.2-0.1,0.5-0.2,0.7
				c0,0,0.2-0.3,0.5-0.7c1.7-2.5,7.3-10.2,8-5c0.3,2.7,0.4,4.7,0.3,6c-0.1,1.5-0.3,2.3-0.4,2.4c0.1-0.2,0.6-1.2,1.3-2.3
				c1.3-2,3.2-4.3,3.9-1.8c0.3,1,0.5,1.8,0.6,2.6c0.4,2.3,0.3,3.6,0.3,3.6s0.5-1.7,1.3-3.3c1-2.1,2.5-4,3.8-2
				c0.8,1.3,1.2,2.3,1.3,3.2c0.1,1.4-0.4,2.2-0.5,2.4c0.2-0.2,1-1.1,2-2c1.8-1.5,4.2-3,5.4-0.3c0.7,1.7,1.2,2.8,1.4,3.4
				C1840.3,624.8,1840.3,624.8,1840.3,624.8z"/>
			<path class="st77" d="M1775.4,604.3c0,0,14.3,14.2,21.1,19.8l-5.2-1.5c0,0-11.1-8.3-17.6-16.7
				C1773.8,605.9,1774.1,602.8,1775.4,604.3z"/>
		</g>
		<g>
			<defs>
				<path id="SVGID_63_" d="M1794,539.8l57.9,24l-20.3,138.7l13.3,1.9c0,0,20.5-11.9,20.8-13.7s20.1-137.5,20.1-137.5L1794,539.8z"
					/>
			</defs>
			<clipPath id="SVGID_64_">
				<use xlink:href="#SVGID_63_"  style="overflow:visible;"/>
			</clipPath>
			<g class="st78">
				<polygon class="st75" points="1773.4,552.3 1794,539.8 1885.7,553.2 1865.4,692 1844.8,704.5 1753.1,691 				"/>
				
					<rect x="1762.7" y="558.3" transform="matrix(0.9895 0.1449 -0.1449 0.9895 110.1237 -255.4624)" class="st75" width="92.8" height="140.2"/>
				<line class="st75" x1="1885.7" y1="553.2" x2="1865.2" y2="565.8"/>
				<path class="st76" d="M1786.4,545.6l32.3,4.7c0,0-0.7,3.3,8,4.7c8.8,1.4,11.6-1.8,11.6-1.8l38.2,5.6"/>
				<path class="st79" d="M1840.3,624.8c-1.6,15-15.1,25.8-30.1,24.2c-15-1.6-25.8-15-24.3-30c-0.2,2.7,11.7,6.1,26.7,7.7
					C1827.6,628.3,1840,627.5,1840.3,624.8z"/>
				<path class="st79" d="M1840.3,624.8c-0.3,2.7-12.7,3.5-27.7,1.9c-15-1.6-26.9-5-26.7-7.7c0,0,0,0,0,0l0-0.1
					c0.1-0.8,1.4-1.4,3.4-1.9c0.1-2.8,0.6-6.8,3.5-5.4c1.4,0.7,2.1,1.3,2.4,1.8c0.9-2.5,3-6.9,5.6-4.5c2.2,2,1.9,5.2,1.3,7.2
					c-0.3,1.1-0.7,1.9-0.7,2.1c0.1-0.1,0.7-1,1.5-2c1.3-1.9,2.3-4.1,4.8-4.7c2.4-0.6,4.1,0.2,3.2,5.2c0,0.2-0.1,0.5-0.2,0.7
					c0,0,0.2-0.3,0.5-0.7c1.7-2.5,7.3-10.2,8-5c0.3,2.7,0.4,4.7,0.3,6c-0.1,1.5-0.3,2.3-0.4,2.4c0.1-0.2,0.6-1.2,1.3-2.3
					c1.3-2,3.2-4.3,3.9-1.8c0.3,1,0.5,1.8,0.6,2.6c0.4,2.3,0.3,3.6,0.3,3.6s0.5-1.7,1.3-3.3c1-2.1,2.5-4,3.8-2
					c0.8,1.3,1.2,2.3,1.3,3.2c0.1,1.4-0.4,2.2-0.5,2.4c0.2-0.2,1-1.1,2-2c1.8-1.5,4.2-3,5.4-0.3c0.7,1.7,1.2,2.8,1.4,3.4
					C1840.3,624.8,1840.3,624.8,1840.3,624.8z"/>
				<path class="st79" d="M1775.4,604.3c0,0,14.3,14.2,21.1,19.8l-5.2-1.5c0,0-11.1-8.3-17.6-16.7
					C1773.8,605.9,1774.1,602.8,1775.4,604.3z"/>
			</g>
		</g>
		<polygon class="st68" points="1862.8,549.9 1849.3,563.4 1829,702.2 1844.8,704.5 1865.4,692 1887.6,551.8 1864.4,549 		"/>
	</g>
	<path class="st29" d="M1789,625.4c0,0,2.2,10.6,13.4,18.2L1789,625.4z"/>
</g>
</svg>
