<svg xmlns="http://www.w3.org/2000/svg" viewBox="0 0 220.67 74.04"><defs><style>.cls-1{fill:#595281;}.cls-2{fill:#b4629b;}.cls-3{fill:#cf6ca6;}.cls-4{fill:#fff4d0;}</style></defs><title>OFiesta-Logo</title><g id="Layer_2" data-name="Layer 2"><g id="Layer_1-2" data-name="Layer 1"><path class="cls-1" d="M0,26.51C0,39.38,8.73,47.35,21.83,47.35c0,0,12.48-.16,17-7.09v6.09H59.9l0,5.07,2.72,3.26a14.57,14.57,0,0,0-1.4,4.9l0,.26V73.33H88.65V71.82a17.85,17.85,0,0,0,17,.13v1.38h27.49V71.82A16.41,16.41,0,0,0,141.75,74c9.37,0,15.42-6.22,15.42-15.85V52.54a19.46,19.46,0,0,0-1-6.19h33.65L192,41h8.43l2.15,5.35h18.08V40.7L203.55,1H189l-1.38,3.21V1H150.22V2.59A30.42,30.42,0,0,0,137.71,0c-6,0-10.88,1.62-14.16,4.62V1H47.65V1H35.93V4.85C32.24,1.67,27.22,0,21.24,0,8.14,0,0,8,0,20.86Z"/><path class="cls-2" d="M75.25,46.93c4.5,0,9.34,2,9.34,6.77,0,3.69-2.85,5.87-6.78,7.19-2.61.93-5,2-5.57,2.83H84.93v5.42h-20v-3.2c.44-4.31,3.61-7.84,9.08-9.63,2.3-.8,4.18-1.35,4.18-2.46s-1.54-1.66-3.22-1.66a9.3,9.3,0,0,0-6.62,3.26L65,51.51A13.18,13.18,0,0,1,75.25,46.93Z"/><path class="cls-2" d="M85.59,58.37c0-7.35,4.55-11.47,11.67-11.47S109,51,109,58.37s-4.56,11.48-11.7,11.48S85.59,65.72,85.59,58.37Zm16.9,0c0-3.57-1.94-5.6-5.21-5.6s-5.23,2-5.23,5.6S94,64,97.28,64,102.49,61.94,102.49,58.37Z"/><path class="cls-2" d="M119.74,46.93c4.5,0,9.34,2,9.34,6.77,0,3.69-2.85,5.87-6.78,7.19-2.61.93-5,2-5.57,2.83h12.69v5.42h-20v-3.2c.44-4.31,3.61-7.84,9.08-9.63,2.3-.8,4.18-1.35,4.18-2.46s-1.54-1.66-3.21-1.66a9.3,9.3,0,0,0-6.63,3.26l-3.29-3.94A13.18,13.18,0,0,1,119.74,46.93Z"/><path class="cls-2" d="M130.08,58.37c0-7.35,4.55-11.47,11.67-11.47s11.7,4.12,11.7,11.47-4.56,11.48-11.7,11.48S130.08,65.72,130.08,58.37Zm16.9,0c0-3.57-1.93-5.6-5.2-5.6s-5.24,2-5.24,5.6,1.94,5.6,5.24,5.6S147,61.94,147,58.37Z"/><path class="cls-2" d="M3.72,26.69c0-10.56,7-16.48,17.52-16.48S38.8,16.13,38.8,26.69s-7,16.48-17.56,16.48S3.72,37.25,3.72,26.69Zm25.76,0c0-5.08-3.12-8-8.24-8s-8.23,3-8.23,8,3.12,8,8.23,8S29.48,31.77,29.48,26.69Z"/><path class="cls-2" d="M55.42,19.31V24H71.29v7.86H55.42v10.3H46.25V11.22H74.63v8.09Z"/><path class="cls-2" d="M78.17,42.16V11.22h9.17V42.16Z"/><path class="cls-2" d="M120.24,34.38v7.78H91.33V11.22h28.5V19H100.32v3.94h15.9v7.15h-15.9v4.29Z"/><path class="cls-2" d="M153.62,32.17c0,6.67-5.08,11-14.82,11-6.84,0-12.78-2.12-17-5.87l4.55-6.19A19.15,19.15,0,0,0,139,35.57c3.76,0,5.6-.75,5.6-2.29s-1.5-2-6.39-2.52c-8.08-.84-15.26-3-15.26-10.08,0-6.76,6.28-10.47,14.81-10.47,5.53,0,11,1.5,14.78,4.46L148.13,21a16.41,16.41,0,0,0-10.42-3.23c-2.67,0-5.75.4-5.75,2.08,0,1.5,2.37,1.81,6.62,2.21C147.37,22.85,153.62,24.84,153.62,32.17Z"/><path class="cls-2" d="M183.9,19.4H173.49V42.16h-9.17V19.4H153.94V11.22h30Z"/><path class="cls-2" d="M202.8,36.81H189.65l-2.15,5.35H178L191.3,11.22h10l13.35,30.94H205Zm-2.78-7-3.8-9.55-3.79,9.55Z"/><path class="cls-2" d="M39.65,11.21v6.26h2.63s.35,4.62-2,5.35v1.32s3.63-.33,3.63-5.8V11.21Z"/><path class="cls-3" d="M75.25,44c4.5,0,9.34,2,9.34,6.77,0,3.69-2.85,5.88-6.78,7.2-2.61.92-5,2-5.57,2.83H84.93v5.41h-20V63c.44-4.3,3.61-7.84,9.08-9.63,2.3-.79,4.18-1.35,4.18-2.46s-1.54-1.66-3.22-1.66a9.3,9.3,0,0,0-6.62,3.26L65,48.6A13.15,13.15,0,0,1,75.25,44Z"/><path class="cls-3" d="M85.59,55.46C85.59,48.1,90.14,44,97.26,44S109,48.1,109,55.46s-4.56,11.47-11.7,11.47S85.59,62.81,85.59,55.46Zm16.9,0c0-3.57-1.94-5.6-5.21-5.6s-5.23,2-5.23,5.6,1.94,5.59,5.23,5.59S102.49,59,102.49,55.46Z"/><path class="cls-3" d="M119.74,44c4.5,0,9.34,2,9.34,6.77,0,3.69-2.85,5.88-6.78,7.2-2.61.92-5,2-5.57,2.83h12.69v5.41h-20V63c.44-4.3,3.61-7.84,9.08-9.63,2.3-.79,4.18-1.35,4.18-2.46s-1.54-1.66-3.21-1.66a9.3,9.3,0,0,0-6.63,3.26l-3.29-3.93A13.15,13.15,0,0,1,119.74,44Z"/><path class="cls-3" d="M130.08,55.46c0-7.36,4.55-11.48,11.67-11.48s11.7,4.12,11.7,11.48-4.56,11.47-11.7,11.47S130.08,62.81,130.08,55.46Zm16.9,0c0-3.57-1.93-5.6-5.2-5.6s-5.24,2-5.24,5.6,1.94,5.59,5.24,5.59S147,59,147,55.46Z"/><path class="cls-3" d="M3.72,23.77c0-10.56,7-16.48,17.52-16.48S38.8,13.21,38.8,23.77s-7,16.49-17.56,16.49S3.72,34.34,3.72,23.77Zm25.76,0c0-5.08-3.12-8-8.24-8s-8.23,3-8.23,8,3.12,8.05,8.23,8.05S29.48,28.86,29.48,23.77Z"/><path class="cls-3" d="M55.42,16.39v4.69H71.29V29H55.42V39.24H46.25V8.31H74.63v8.08Z"/><path class="cls-3" d="M78.17,39.24V8.31h9.17V39.24Z"/><path class="cls-3" d="M120.24,31.46v7.78H91.33V8.31h28.5v7.78H100.32V20h15.9v7.16h-15.9v4.28Z"/><path class="cls-3" d="M153.62,29.25c0,6.68-5.08,11-14.82,11-6.84,0-12.78-2.12-17-5.88l4.55-6.19A19.11,19.11,0,0,0,139,32.66c3.76,0,5.6-.75,5.6-2.3s-1.5-2-6.39-2.52c-8.08-.84-15.26-3-15.26-10.08,0-6.76,6.28-10.47,14.81-10.47,5.53,0,11,1.5,14.78,4.46L148.13,18a16.41,16.41,0,0,0-10.42-3.23c-2.67,0-5.75.4-5.75,2.08,0,1.5,2.37,1.81,6.62,2.21C147.37,19.93,153.62,21.92,153.62,29.25Z"/><path class="cls-3" d="M183.9,16.48H173.49V39.24h-9.17V16.48H153.94V8.31h30Z"/><path class="cls-3" d="M202.8,33.89H189.65l-2.15,5.35H178L191.3,8.31h10l13.35,30.93H205Zm-2.78-7-3.8-9.54-3.79,9.54Z"/><path class="cls-3" d="M39.65,8.3v6.25h2.63s.35,4.63-2,5.36v1.31s3.63-.33,3.63-5.8V8.3Z"/><path class="cls-4" d="M75.25,41.1c4.5,0,9.34,2,9.34,6.76,0,3.69-2.85,5.88-6.78,7.2-2.61.92-5,2-5.57,2.83H84.93v5.42h-20v-3.2c.44-4.31,3.61-7.85,9.08-9.63,2.3-.8,4.18-1.36,4.18-2.46s-1.54-1.66-3.22-1.66a9.26,9.26,0,0,0-6.62,3.26L65,45.68A13.18,13.18,0,0,1,75.25,41.1Z"/><path class="cls-4" d="M85.59,52.54c0-7.35,4.55-11.47,11.67-11.47S109,45.19,109,52.54,104.4,64,97.26,64,85.59,59.89,85.59,52.54Zm16.9,0c0-3.57-1.94-5.6-5.21-5.6s-5.23,2-5.23,5.6,1.94,5.6,5.23,5.6S102.49,56.11,102.49,52.54Z"/><path class="cls-4" d="M119.74,41.1c4.5,0,9.34,2,9.34,6.76,0,3.69-2.85,5.88-6.78,7.2-2.61.92-5,2-5.57,2.83h12.69v5.42h-20v-3.2c.44-4.31,3.61-7.85,9.08-9.63,2.3-.8,4.18-1.36,4.18-2.46s-1.54-1.66-3.21-1.66a9.27,9.27,0,0,0-6.63,3.26l-3.29-3.94A13.18,13.18,0,0,1,119.74,41.1Z"/><path class="cls-4" d="M130.08,52.54c0-7.35,4.55-11.47,11.67-11.47s11.7,4.12,11.7,11.47S148.89,64,141.75,64,130.08,59.89,130.08,52.54Zm16.9,0c0-3.57-1.93-5.6-5.2-5.6s-5.24,2-5.24,5.6,1.94,5.6,5.24,5.6S147,56.11,147,52.54Z"/><path class="cls-4" d="M3.72,20.86c0-10.56,7-16.49,17.52-16.49S38.8,10.3,38.8,20.86s-7,16.48-17.56,16.48S3.72,31.42,3.72,20.86Zm25.76,0c0-5.08-3.12-8-8.24-8s-8.23,3-8.23,8,3.12,8,8.23,8S29.48,25.94,29.48,20.86Z"/><path class="cls-4" d="M55.42,13.48v4.68H71.29V26H55.42v10.3H46.25V5.39H74.63v8.09Z"/><path class="cls-4" d="M78.17,36.33V5.39h9.17V36.33Z"/><path class="cls-4" d="M120.24,28.55v7.78H91.33V5.39h28.5v7.78H100.32V17.1h15.9v7.16h-15.9v4.29Z"/><path class="cls-4" d="M153.62,26.34c0,6.67-5.08,11-14.82,11-6.84,0-12.78-2.12-17-5.88l4.55-6.18A19.15,19.15,0,0,0,139,29.74c3.76,0,5.6-.75,5.6-2.3s-1.5-2-6.39-2.52c-8.08-.84-15.26-3-15.26-10.07,0-6.76,6.28-10.48,14.81-10.48,5.53,0,11,1.51,14.78,4.47l-4.36,6.27a16.46,16.46,0,0,0-10.42-3.22c-2.67,0-5.75.4-5.75,2.07,0,1.51,2.37,1.82,6.62,2.21C147.37,17,153.62,19,153.62,26.34Z"/><path class="cls-4" d="M183.9,13.57H173.49V36.33h-9.17V13.57H153.94V5.39h30Z"/><path class="cls-4" d="M202.8,31H189.65l-2.15,5.35H178L191.3,5.39h10l13.35,30.94H205ZM200,24l-3.8-9.55L192.43,24Z"/><path class="cls-4" d="M39.65,5.38v6.26h2.63s.35,4.62-2,5.35v1.31s3.63-.32,3.63-5.8V5.38Z"/></g></g></svg>